<?xml version="1.0" standalone="no"?>
<!DOCTYPE svg PUBLIC "-//W3C//DTD SVG 1.1//EN" "http://www.w3.org/Graphics/SVG/1.1/DTD/svg11.dtd" >
<svg xmlns="http://www.w3.org/2000/svg" xmlns:xlink="http://www.w3.org/1999/xlink" version="1.1">
<metadata>
Created by FontForge 20190801 at Wed Nov 13 12:55:03 2019
 By Torsten Lindsø Andersen
Copyright 2019 TDC NET - Designed by Kontrapunkt
</metadata>
<defs>
<font id="TDCNET-Regular" horiz-adv-x="350" >
  <font-face 
    font-family="TDC NET"
    font-weight="400"
    font-stretch="normal"
    units-per-em="1000"
    panose-1="0 0 5 0 0 0 0 0 0 0"
    ascent="760"
    descent="-240"
    x-height="500"
    cap-height="700"
    bbox="-714 -250 1292 1188"
    underline-thickness="50"
    underline-position="-100"
    unicode-range="U+000D-274C"
  />
<missing-glyph horiz-adv-x="600" 
 />
    <glyph glyph-name="f_b" unicode="fb" horiz-adv-x="990" 
d="M823.5 477q54.5 -33 88 -92.5t33.5 -134.5t-33.5 -134.5t-88 -92.5t-115.5 -33q-67 0 -114.5 32t-66.5 72l-16 -94h-69v669q-17 8 -37.5 13t-54.5 5q-69 0 -102 -35.5t-33 -93.5v-58h127v-72h-127v-428h-86v428h-118v72h118v70q0 51 27 94.5t76.5 69.5t114.5 26
q55 0 103.5 -12.5t77.5 -27.5v-314q19 41 66.5 72.5t113.5 31.5q61 0 115.5 -33zM772 86.5q38 21.5 61.5 63.5t23.5 100t-23.5 100t-61.5 63.5t-80 21.5q-47 0 -85.5 -24t-60.5 -66t-22 -95t22 -95t60.5 -66t85.5 -24q42 0 80 21.5z" />
    <glyph glyph-name="f_f" unicode="ff" horiz-adv-x="713" 
d="M547 500h155v-72h-155v-428h-85v428h-247v-428h-86v428h-118v72h118v79q0 68 42.5 109.5t106.5 41.5q29 0 54 -6.5t38 -13.5l-20 -72q-35 15 -62 15q-37 0 -55 -23.5t-18 -59.5v-70h247v79q0 68 42 109.5t107 41.5q28 0 53 -6.5t38 -13.5l-19 -72q-35 15 -63 15
q-37 0 -55 -23.5t-18 -59.5v-70z" />
    <glyph glyph-name="f_f_i" unicode="ffi" horiz-adv-x="956" 
d="M874 0h-85v428h-241v-428h-86v428h-247v-428h-86v428h-118v72h118v79q0 68 42.5 109.5t106.5 41.5q29 0 54 -6.5t38 -13.5l-20 -72q-35 15 -62 15q-37 0 -55 -23.5t-18 -59.5v-70h247v79q0 68 42.5 109.5t106.5 41.5q28 0 53 -6t39 -14l-20 -72q-35 15 -63 15
q-37 0 -54.5 -23.5t-17.5 -59.5v-70h326v-500zM788 606q-18 17 -18 42q0 24 18 41t43 17t42.5 -17t17.5 -41q0 -25 -17.5 -42t-42.5 -17t-43 17z" />
    <glyph glyph-name="f_f_j" unicode="ffj" horiz-adv-x="961" 
d="M878 -75q0 -72 -43 -113.5t-106 -41.5q-45 0 -85 21l22 66q26 -12 53 -12q36 0 55 23t19 62v498h-244v-428h-85v428h-249v-428h-86v428h-118v72h118v79q0 68 42.5 109.5t106.5 41.5q29 0 54 -6.5t38 -13.5l-20 -72q-35 15 -62 15q-37 0 -55 -23.5t-18 -59.5v-70h249v79
q0 68 42 109.5t107 41.5q28 0 53 -6.5t38 -13.5l-19 -72q-35 15 -63 15q-37 0 -55 -23.5t-18 -59.5v-70h329v-575zM878.5 689q17.5 -17 17.5 -41q0 -25 -17.5 -42t-42.5 -17q-26 0 -43.5 17t-17.5 42q0 24 18 41t43 17t42.5 -17z" />
    <glyph glyph-name="f_f_l" unicode="ffl" horiz-adv-x="974" 
d="M945 0q-28 -10 -56 -10q-60 0 -87.5 32t-27.5 85v562q-19 8 -39 13t-54 5q-69 0 -102 -36t-33 -93v-58h128v-72h-128v-428h-85v428h-246v-428h-86v428h-118v72h118v79q0 68 42.5 109.5t106.5 41.5q29 0 54 -6.5t38 -13.5l-20 -72q-35 15 -62 15q-37 0 -55 -23.5
t-18 -59.5v-70h246v70q0 51 27 94.5t76.5 69.5t114.5 26q54 0 102 -12.5t79 -27.5v-601q0 -24 10.5 -38t31.5 -14q14 0 29 5z" />
    <glyph glyph-name="f_f_t" unicode="fft" horiz-adv-x="1101" 
d="M1082 27q-19 -13 -53.5 -25t-74.5 -12q-80 0 -125 45.5t-45 129.5v263h-234v-428h-86v428h-249v-428h-86v428h-118v72h118v79q0 68 42.5 109.5t106.5 41.5q29 0 54 -6.5t38 -13.5l-20 -72q-35 15 -62 15q-37 0 -55 -23.5t-18 -59.5v-70h249v79q0 68 42.5 109.5
t106.5 41.5q29 0 54 -6.5t38 -13.5l-20 -72q-35 15 -62 15q-37 0 -55 -23.5t-18 -59.5v-70h236v155h84v-155h203v-72h-203v-251q0 -54 24.5 -82.5t66.5 -28.5q41 0 90 28z" />
    <glyph glyph-name="f_i" unicode="fi" horiz-adv-x="623" 
d="M541 0h-85v428h-241v-428h-86v428h-118v72h118v79q0 68 42.5 109.5t106.5 41.5q29 0 54 -6.5t38 -13.5l-20 -72q-35 15 -62 15q-37 0 -55 -23.5t-18 -59.5v-70h326v-500zM455.5 606q-17.5 17 -17.5 42q0 24 17.5 41t42.5 17t42.5 -17t17.5 -41q0 -25 -17.5 -42t-42.5 -17
t-42.5 17z" />
    <glyph glyph-name="f_i_t" unicode="fit" horiz-adv-x="1066" 
d="M1048 27q-20 -13 -54.5 -25t-74.5 -12q-79 0 -124 45.5t-45 129.5v263h-204v-428h-86v428h-245v-428h-86v428h-118v72h118v79q0 68 42.5 109.5t106.5 41.5q29 0 54 -6.5t38 -13.5l-20 -72q-35 15 -62 15q-37 0 -55 -23.5t-18 -59.5v-70h536v155h84v-155h204v-72h-204
v-251q0 -54 24.5 -82.5t67.5 -28.5q41 0 90 28zM459.5 606q-17.5 17 -17.5 42q0 24 18 41t43 17t42.5 -17t17.5 -41q0 -25 -17.5 -42t-42.5 -17q-26 0 -43.5 17z" />
    <glyph glyph-name="f_j" unicode="fj" horiz-adv-x="626" 
d="M544 -75q0 -48 -20 -83t-54 -53.5t-75 -18.5q-47 0 -85 21l21 66q28 -12 54 -12q36 0 54.5 23t18.5 62v498h-243v-428h-86v428h-118v72h118v79q0 68 42.5 109.5t106.5 41.5q29 0 54 -6.5t38 -13.5l-20 -72q-35 15 -62 15q-37 0 -55 -23.5t-18 -59.5v-70h329v-575z
M458.5 606q-17.5 17 -17.5 42q0 24 17.5 41t42.5 17t42.5 -17t17.5 -41q0 -25 -17.5 -42t-42.5 -17t-42.5 17z" />
    <glyph glyph-name="f_k" unicode="fk" horiz-adv-x="892" 
d="M626 231h-98v-231h-86v669q-17 8 -37.5 13t-54.5 5q-69 0 -102 -35.5t-33 -93.5v-58h127v-72h-127v-428h-86v428h-118v72h118v70q0 51 27 94.5t76.5 69.5t114.5 26q55 0 103.5 -12.5t77.5 -27.5v-417h98l137 197h100l-167 -236l180 -264h-99z" />
    <glyph glyph-name="f_l" unicode="fl" horiz-adv-x="643" 
d="M613 0q-28 -10 -56 -10q-60 0 -87.5 32t-27.5 85v562q-17 8 -37.5 13t-54.5 5q-69 0 -102 -35.5t-33 -93.5v-58h127v-72h-127v-428h-86v428h-118v72h118v70q0 51 27 94.5t76.5 69.5t114.5 26q55 0 103.5 -12.5t77.5 -27.5v-601q0 -24 10.5 -38t31.5 -14q14 0 29 5z" />
    <glyph glyph-name="f_t" unicode="ft" horiz-adv-x="765" 
d="M747 27q-19 -13 -53.5 -25t-74.5 -12q-80 0 -125 45.5t-45 129.5v263h-234v-428h-86v428h-118v72h118v79q0 68 42.5 109.5t106.5 41.5q29 0 54 -6.5t38 -13.5l-20 -72q-35 15 -62 15q-37 0 -55 -23.5t-18 -59.5v-70h235v155h85v-155h203v-72h-203v-251q0 -54 24.5 -82.5
t66.5 -28.5q41 0 90 28z" />
    <glyph glyph-name="f_t_i" unicode="fti" horiz-adv-x="1002" 
d="M920 0h-85v428h-291v-251q0 -54 24.5 -82.5t66.5 -28.5q41 0 90 28l31 -67q-18 -13 -53 -25t-75 -12q-80 0 -125 45.5t-45 129.5v263h-243v-428h-86v428h-118v72h118v79q0 68 42.5 109.5t106.5 41.5q29 0 54 -6.5t38 -13.5l-20 -72q-35 15 -62 15q-37 0 -55 -23.5
t-18 -59.5v-70h245v155h84v-155h376v-500zM920 689q18 -17 18 -41q0 -25 -17.5 -42t-43.5 -17q-25 0 -42.5 17t-17.5 42q0 24 17.5 41t42.5 17t43 -17z" />
    <glyph glyph-name="f_z" unicode="fz" horiz-adv-x="832" 
d="M784 72v-72h-402v56l290 372h-457v-428h-86v428h-118v72h118v79q0 68 42.5 109.5t106.5 41.5q29 0 54 -6.5t38 -13.5l-20 -72q-35 15 -62 15q-37 0 -55 -23.5t-18 -59.5v-70h567v-56l-288 -372h290z" />
    <glyph glyph-name="g_f" unicode="gf" horiz-adv-x="923" 
d="M757 500h155v-72h-155v-428h-86v428h-226q25 -21 44.5 -58t19.5 -87q0 -68 -41.5 -119t-97.5 -71q55 -17 91 -53t36 -90q0 -51 -29 -92t-82.5 -64.5t-125.5 -23.5q-74 0 -129.5 27.5t-91.5 64.5l50 60q27 -29 71 -53t100 -24q68 0 108.5 28.5t40.5 75.5q0 46 -39.5 71.5
t-117.5 37.5q-91 14 -153.5 70t-62.5 155q0 62 30.5 114t84.5 82.5t123 30.5q18 0 43 -3t41 -7h313v79q0 68 42.5 109.5t106.5 41.5q29 0 54 -6.5t38 -13.5l-20 -72q-35 15 -62 15q-37 0 -55 -23.5t-18 -59.5v-70zM347.5 153q34.5 18 55.5 51.5t21 78.5q0 71 -43.5 112
t-107.5 41q-65 0 -107.5 -41.5t-42.5 -111.5t43 -109t107 -39q40 0 74.5 18z" />
    <glyph glyph-name="g_f_i" unicode="gfi" horiz-adv-x="1167" 
d="M1084 0h-85v428h-241v-428h-85v428h-228q25 -21 44.5 -58t19.5 -87q0 -68 -41.5 -119t-97.5 -71q55 -17 91 -53t36 -90q0 -51 -29 -92t-82.5 -64.5t-125.5 -23.5q-74 0 -129.5 27.5t-91.5 64.5l50 60q27 -29 71 -53t100 -24q68 0 108.5 28.5t40.5 75.5q0 46 -39.5 71.5
t-117.5 37.5q-91 14 -153.5 70t-62.5 155q0 62 30.5 114t84.5 82.5t123 30.5q18 0 43 -3t41 -7h315v79q0 68 42 109.5t107 41.5q28 0 53 -6.5t38 -13.5l-19 -72q-37 15 -63 15q-37 0 -55 -23.5t-18 -59.5v-70h326v-500zM1084 689q18 -17 18 -41q0 -25 -17.5 -42t-43.5 -17
q-25 0 -42.5 17t-17.5 42q0 24 17.5 41t42.5 17t43 -17zM347.5 153q34.5 18 55.5 51.5t21 78.5q0 71 -43.5 112t-107.5 41q-65 0 -107.5 -41.5t-42.5 -111.5t43 -109t107 -39q40 0 74.5 18z" />
    <glyph glyph-name="g_f_t" unicode="gft" horiz-adv-x="1310" 
d="M1292 27q-20 -13 -54.5 -25t-74.5 -12q-79 0 -124 45.5t-45 129.5v263h-234v-428h-86v428h-229q25 -21 44.5 -58t19.5 -87q0 -68 -41.5 -119t-97.5 -71q55 -17 91 -53t36 -90q0 -51 -29 -92t-82.5 -64.5t-125.5 -23.5q-74 0 -129.5 27.5t-91.5 64.5l50 60q27 -29 71 -53
t100 -24q68 0 108.5 28.5t40.5 75.5q0 46 -39.5 71.5t-117.5 37.5q-91 14 -153.5 70t-62.5 155q0 62 30.5 114t84.5 82.5t123 30.5q18 0 43 -3t41 -7h316v79q0 68 42 109.5t107 41.5q28 0 53 -6t39 -14l-20 -72q-35 15 -63 15q-37 0 -54.5 -23.5t-17.5 -59.5v-70h235v155h84
v-155h204v-72h-204v-251q0 -54 24.5 -82.5t67.5 -28.5q41 0 90 28zM347.5 153q34.5 18 55.5 51.5t21 78.5q0 71 -43.5 112t-107.5 41q-65 0 -107.5 -41.5t-42.5 -111.5t43 -109t107 -39q40 0 74.5 18z" />
    <glyph glyph-name="g_i" unicode="gi" horiz-adv-x="835" 
d="M667.5 606q-17.5 17 -17.5 42q0 24 17.5 41t42.5 17t42.5 -17t17.5 -41q0 -25 -17.5 -42t-42.5 -17t-42.5 17zM753 0h-85v428h-223q25 -21 44.5 -58t19.5 -87q0 -68 -41.5 -119t-97.5 -71q55 -17 91 -53t36 -90q0 -51 -29 -92t-82.5 -64.5t-125.5 -23.5
q-74 0 -129.5 27.5t-91.5 64.5l50 60q27 -29 71 -53t100 -24q68 0 108.5 28.5t40.5 75.5q0 46 -39.5 71.5t-117.5 37.5q-91 14 -153.5 70t-62.5 155q0 62 30.5 114t84.5 82.5t123 30.5q18 0 43 -3t41 -7h395v-500zM347.5 153q34.5 18 55.5 51.5t21 78.5q0 71 -43.5 112
t-107.5 41q-65 0 -107.5 -41.5t-42.5 -111.5t43 -109t107 -39q40 0 74.5 18z" />
    <glyph glyph-name="g_j" unicode="gj" horiz-adv-x="852" 
d="M769.5 689q17.5 -17 17.5 -41q0 -25 -17.5 -42t-42.5 -17q-26 0 -43.5 17t-17.5 42q0 24 18 41t43 17t42.5 -17zM769 -75q0 -72 -43 -113.5t-106 -41.5q-45 0 -85 21l22 66q26 -12 53 -12q36 0 55 23t19 62v498h-239q25 -21 44.5 -58t19.5 -87q0 -68 -41.5 -119
t-97.5 -71q55 -17 91 -53t36 -90q0 -51 -29 -92t-82.5 -64.5t-125.5 -23.5q-74 0 -129.5 27.5t-91.5 64.5l50 60q27 -29 71 -53t100 -24q68 0 108.5 28.5t40.5 75.5q0 46 -39.5 71.5t-117.5 37.5q-91 14 -153.5 70t-62.5 155q0 62 30.5 114t84.5 82.5t123 30.5q18 0 43 -3
t41 -7h411v-575zM347.5 153q34.5 18 55.5 51.5t21 78.5q0 71 -43.5 112t-107.5 41q-65 0 -107.5 -41.5t-42.5 -111.5t43 -109t107 -39q40 0 74.5 18z" />
    <glyph glyph-name="g_t" unicode="gt" horiz-adv-x="986" 
d="M967 27q-18 -13 -53 -25t-75 -12q-80 0 -125 45.5t-45 129.5v263h-224q25 -21 44.5 -58t19.5 -87q0 -68 -41.5 -119t-97.5 -71q55 -17 91 -53t36 -90q0 -51 -29 -92t-82.5 -64.5t-125.5 -23.5q-74 0 -129.5 27.5t-91.5 64.5l50 60q27 -29 71 -53t100 -24q68 0 108.5 28.5
t40.5 75.5q0 46 -39.5 71.5t-117.5 37.5q-91 14 -153.5 70t-62.5 155q0 62 30.5 114t84.5 82.5t123 30.5q18 0 43 -3t41 -7h313v155h84v-155h203v-72h-203v-251q0 -54 24.5 -82.5t66.5 -28.5q41 0 90 28zM347.5 153q34.5 18 55.5 51.5t21 78.5q0 71 -43.5 112t-107.5 41
q-65 0 -107.5 -41.5t-42.5 -111.5t43 -109t107 -39q40 0 74.5 18z" />
    <glyph glyph-name="g_t_i" unicode="gti" horiz-adv-x="1214" 
d="M1132 689q18 -17 18 -41q0 -25 -18 -42t-43 -17t-42.5 17t-17.5 42q0 24 17.5 41t42.5 17t43 -17zM1132 0h-85v428h-291v-251q0 -54 24 -82.5t67 -28.5q41 0 90 28l31 -67q-19 -13 -53.5 -25t-74.5 -12q-80 0 -125 45.5t-45 129.5v263h-225q25 -21 44.5 -58t19.5 -87
q0 -68 -41.5 -119t-97.5 -71q55 -17 91 -53t36 -90q0 -51 -29 -92t-82.5 -64.5t-125.5 -23.5q-74 0 -129.5 27.5t-91.5 64.5l50 60q27 -29 71 -53t100 -24q68 0 108.5 28.5t40.5 75.5q0 46 -39.5 71.5t-117.5 37.5q-91 14 -153.5 70t-62.5 155q0 62 30.5 114t84.5 82.5
t123 30.5q18 0 43 -3t41 -7h313v155h85v-155h376v-500zM347.5 153q34.5 18 55.5 51.5t21 78.5q0 71 -43.5 112t-107.5 41q-65 0 -107.5 -41.5t-42.5 -111.5t43 -109t107 -39q40 0 74.5 18z" />
    <glyph glyph-name="i_f" unicode="if" horiz-adv-x="639" 
d="M473 500h155v-72h-155v-428h-85v428h-220v-428h-86v500h306v79q0 68 42 109.5t106 41.5q29 0 54 -6.5t38 -13.5l-20 -72q-35 15 -62 15q-37 0 -55 -23.5t-18 -59.5v-70zM167.5 606q-17.5 -17 -42.5 -17t-43 17t-18 42q0 24 18 41t43 17t42.5 -17t17.5 -41
q0 -25 -17.5 -42z" />
    <glyph glyph-name="i_f_i" unicode="ifi" horiz-adv-x="882" 
d="M800 0h-86v428h-241v-428h-85v428h-220v-428h-86v500h306v79q0 68 42 109.5t107 41.5q28 0 53 -6t39 -14l-20 -72q-35 15 -63 15q-37 0 -55 -23.5t-18 -59.5v-70h327v-500zM167.5 606q-17.5 -17 -42.5 -17t-43 17t-18 42q0 24 18 41t43 17t42.5 -17t17.5 -41
q0 -25 -17.5 -42zM714 606q-18 17 -18 42q0 24 18 41t43 17t42.5 -17t17.5 -41q0 -25 -17.5 -42t-42.5 -17t-43 17z" />
    <glyph glyph-name="i_f_t" unicode="ift" horiz-adv-x="1021" 
d="M1003 27q-19 -13 -53.5 -25t-74.5 -12q-80 0 -125 45.5t-45 129.5v263h-234v-428h-86v428h-217v-428h-86v500h303v79q0 68 42.5 109.5t106.5 41.5q28 0 53 -6t39 -14l-20 -72q-35 15 -63 15q-37 0 -54.5 -23.5t-17.5 -59.5v-70h235v155h85v-155h203v-72h-203v-251
q0 -54 24 -82.5t67 -28.5q41 0 90 28zM167.5 606q-17.5 -17 -42.5 -17t-43 17t-18 42q0 24 18 41t43 17t42.5 -17t17.5 -41q0 -25 -17.5 -42z" />
    <glyph glyph-name="i_t" unicode="it" horiz-adv-x="689" 
d="M167.5 606q-17.5 -17 -42.5 -17t-43 17t-18 42q0 24 18 41t43 17t42.5 -17t17.5 -41q0 -25 -17.5 -42zM670 27q-19 -13 -53.5 -25t-74.5 -12q-80 0 -125 45.5t-45 129.5v263h-204v-428h-86v500h292v155h84v-155h203v-72h-203v-251q0 -54 24.5 -82.5t66.5 -28.5
q41 0 90 28z" />
    <glyph glyph-name="i_t_i" unicode="iti" horiz-adv-x="918" 
d="M167.5 606q-17.5 -17 -42.5 -17t-43 17t-18 42q0 24 18 41t43 17t42.5 -17t17.5 -41q0 -25 -17.5 -42zM835 689q18 -17 18 -41q0 -25 -17.5 -42t-43.5 -17q-25 0 -42.5 17t-17.5 42q0 24 17.5 41t42.5 17t43 -17zM835 0h-85v428h-291v-251q0 -54 24.5 -82.5t66.5 -28.5
q41 0 90 28l32 -67q-19 -13 -54 -25t-75 -12q-80 0 -124.5 45t-44.5 130v263h-206v-428h-86v500h293v155h84v-155h376v-500z" />
    <glyph glyph-name="i_t_t" unicode="itt" horiz-adv-x="1063" 
d="M167.5 606q-17.5 -17 -42.5 -17t-43 17t-18 42q0 24 18 41t43 17t42.5 -17t17.5 -41q0 -25 -17.5 -42zM1045 27q-19 -13 -54 -25t-75 -12q-80 0 -124.5 45t-44.5 130v263h-283v-251q0 -54 24 -82.5t67 -28.5q41 0 90 28l31 -67q-19 -13 -53.5 -25t-74.5 -12
q-80 0 -125 45.5t-45 129.5v263h-210v-428h-86v500h297v155h85v-155h284v155h84v-155h204v-72h-204v-251q0 -54 24.5 -82.5t66.5 -28.5q45 0 90 28z" />
    <glyph glyph-name="t_i" unicode="ti" horiz-adv-x="679" 
d="M596 689q18 -17 18 -41q0 -25 -17.5 -42t-43.5 -17q-25 0 -42.5 17t-17.5 42q0 24 17.5 41t42.5 17t43 -17zM596 0h-85v428h-291v-251q0 -54 24.5 -82.5t66.5 -28.5q41 0 90 28l31 -67q-18 -13 -53 -25t-75 -12q-80 0 -125 45.5t-45 129.5v263h-124v72h126v155h84v-155
h376v-500z" />
    <glyph glyph-name="t_t" unicode="tt" horiz-adv-x="819" 
d="M801 27q-20 -13 -54.5 -25t-74.5 -12q-79 0 -124 45.5t-45 129.5v263h-283v-251q0 -54 24.5 -82.5t66.5 -28.5q41 0 90 28l31 -67q-18 -13 -53 -25t-75 -12q-80 0 -125 45.5t-45 129.5v263h-124v72h126v155h84v-155h284v155h84v-155h204v-72h-204v-251q0 -54 24.5 -82.5
t67.5 -28.5q41 0 90 28z" />
    <glyph glyph-name="t_t_i" unicode="tti" horiz-adv-x="1053" 
d="M970 689q18 -17 18 -41q0 -25 -17.5 -42t-43.5 -17q-25 0 -42.5 17t-17.5 42q0 24 17.5 41t42.5 17t43 -17zM970 0h-85v428h-291v-251q0 -54 24.5 -82.5t66.5 -28.5q41 0 90 28l31 -67q-18 -13 -53 -25t-75 -12q-80 0 -125 45.5t-45 129.5v263h-288v-251
q0 -54 24.5 -82.5t66.5 -28.5q41 0 90 28l31 -67q-18 -13 -53 -25t-75 -12q-80 0 -125 45.5t-45 129.5v263h-124v72h126v155h84v-155h290v155h84v-155h376v-500z" />
    <glyph glyph-name="t_z" unicode="tz" horiz-adv-x="960" 
d="M912 72v-72h-402v56l290 372h-580v-251q0 -54 24.5 -82.5t66.5 -28.5q41 0 90 28l31 -67q-18 -13 -53 -25t-75 -12q-80 0 -125 45.5t-45 129.5v263h-124v72h126v155h84v-155h690v-56l-288 -372h290z" />
    <glyph glyph-name=".notdef" horiz-adv-x="600" 
 />
    <glyph glyph-name=".null" horiz-adv-x="600" 
 />
    <glyph glyph-name="nonmarkingreturn" unicode="&#xd;" horiz-adv-x="600" 
 />
    <glyph glyph-name="space" unicode=" " horiz-adv-x="287" 
 />
    <glyph glyph-name="A" unicode="A" horiz-adv-x="721" 
d="M603 0l-77 193h-331l-76 -193h-95l286 700h102l286 -700h-95zM226 272h269l-135 339z" />
    <glyph glyph-name="Aacute" unicode="&#xc1;" horiz-adv-x="721" 
d="M603 0l-77 193h-331l-76 -193h-95l286 700h102l286 -700h-95zM226 272h269l-135 339zM264 783l-18 54l202 80l30 -80z" />
    <glyph glyph-name="Abreve" unicode="&#x102;" horiz-adv-x="721" 
d="M603 0l-77 193h-331l-76 -193h-95l286 700h102l286 -700h-95zM226 272h269l-135 339zM260.5 819q-35.5 33 -39.5 95h70q2 -34 17.5 -53t52.5 -19q61 0 66 72h71q-5 -61 -40 -94.5t-97 -33.5q-65 0 -100.5 33z" />
    <glyph glyph-name="Acircumflex" unicode="&#xc2;" horiz-adv-x="721" 
d="M603 0l-77 193h-331l-76 -193h-95l286 700h102l286 -700h-95zM226 272h269l-135 339zM313 911h92l109 -125h-89l-66 76l-66 -76h-86z" />
    <glyph glyph-name="Adieresis" unicode="&#xc4;" horiz-adv-x="721" 
d="M603 0l-77 193h-331l-76 -193h-95l286 700h102l286 -700h-95zM226 272h269l-135 339zM235.5 815q-15.5 15 -15.5 36t15.5 36.5t35.5 15.5q22 0 38 -15.5t16 -36.5t-16 -36t-38 -15q-20 0 -35.5 15zM413 815q-15 15 -15 36t15 36.5t36 15.5q22 0 37.5 -15.5t15.5 -36.5
t-15.5 -36t-37.5 -15q-21 0 -36 15z" />
    <glyph glyph-name="uni1EA0" unicode="&#x1ea0;" horiz-adv-x="721" 
d="M603 0l-77 193h-331l-76 -193h-95l286 700h102l286 -700h-95zM226 272h269l-135 339zM320 -195.5q-17 16.5 -17 40.5t17 40.5t40 16.5t40 -16.5t17 -40.5t-17 -40.5t-40 -16.5t-40 16.5z" />
    <glyph glyph-name="Agrave" unicode="&#xc0;" horiz-adv-x="721" 
d="M603 0l-77 193h-331l-76 -193h-95l286 700h102l286 -700h-95zM226 272h269l-135 339zM244 837l30 80l203 -80l-18 -54z" />
    <glyph glyph-name="Amacron" unicode="&#x100;" horiz-adv-x="721" 
d="M603 0l-77 193h-331l-76 -193h-95l286 700h102l286 -700h-95zM226 272h269l-135 339zM240 883h242v-69h-242v69z" />
    <glyph glyph-name="Aogonek" unicode="&#x104;" horiz-adv-x="721" 
d="M582.5 -149.5q14.5 -11.5 37.5 -11.5q43 0 78 14v-69q-36 -14 -81 -14q-60 0 -92.5 24t-32.5 65t32.5 77.5t87.5 63.5h-9l-77 193h-331l-76 -193h-95l286 700h102l286 -700q-40 -16 -85 -51t-45 -67q0 -20 14.5 -31.5zM226 272h269l-135 339z" />
    <glyph glyph-name="Aring" unicode="&#xc5;" horiz-adv-x="721" 
d="M603 0l-77 193h-331l-76 -193h-95l286 700h102l286 -700h-95zM226 272h269l-135 339zM448.5 970.5q36.5 -34.5 36.5 -83.5q0 -50 -36.5 -85t-87.5 -35t-87.5 35t-36.5 85q0 49 36.5 83.5t87.5 34.5t87.5 -34.5zM315 931q-19 -18 -19 -44q0 -27 19 -45.5t46 -18.5t46 18.5
t19 45.5q0 26 -19 44t-46 18t-46 -18z" />
    <glyph glyph-name="Aringacute" unicode="&#x1fa;" horiz-adv-x="721" 
d="M603 0l-77 193h-331l-76 -193h-95l286 700h102l286 -700h-95zM226 272h269l-135 339zM448.5 970.5q36.5 -34.5 36.5 -83.5q0 -50 -36.5 -85t-87.5 -35t-87.5 35t-36.5 85q0 49 36.5 83.5t87.5 34.5t87.5 -34.5zM315 931q-19 -18 -19 -44q0 -27 19 -45.5t46 -18.5t46 18.5
t19 45.5q0 26 -19 44t-46 18t-46 -18zM264 1054l-18 54l202 80l30 -80z" />
    <glyph glyph-name="Atilde" unicode="&#xc3;" horiz-adv-x="721" 
d="M603 0l-77 193h-331l-76 -193h-95l286 700h102l286 -700h-95zM226 272h269l-135 339zM377.5 796.5q-13.5 6.5 -29.5 17.5q-11 8 -18.5 12t-16.5 4q-15 0 -24.5 -10t-12.5 -30h-64q5 51 31 78.5t67 27.5q19 0 32 -6.5t29 -19.5q10 -9 17.5 -13.5t17.5 -4.5q15 0 25 12
t12 32h67q-4 -51 -31.5 -78.5t-67.5 -27.5q-20 0 -33.5 6.5z" />
    <glyph glyph-name="AE" unicode="&#xc6;" horiz-adv-x="996" 
d="M564 80h377v-80h-466v225h-264l-92 -225h-95l293 700h614v-80h-367v-214h319v-79h-319v-247zM243 303h232v315h-104z" />
    <glyph glyph-name="AEacute" unicode="&#x1fc;" horiz-adv-x="996" 
d="M564 80h377v-80h-466v225h-264l-92 -225h-95l293 700h614v-80h-367v-214h319v-79h-319v-247zM243 303h232v315h-104zM515 783l-18 54l202 80l30 -80z" />
    <glyph glyph-name="B" unicode="B" horiz-adv-x="658" 
d="M375 700q99 0 158 -45t59 -128q0 -67 -41 -108t-89 -55q31 -3 65.5 -23.5t59 -58.5t24.5 -91q0 -56 -28.5 -99.5t-77 -67.5t-106.5 -24h-304v700h280zM424.5 412q33.5 14 54.5 41t21 65q0 50 -35.5 78.5t-99.5 28.5h-181v-227h170q37 0 70.5 14zM481.5 109.5
q37.5 34.5 37.5 87.5q0 57 -42.5 91t-108.5 34h-184v-247h201q59 0 96.5 34.5z" />
    <glyph glyph-name="C" unicode="C" horiz-adv-x="728" 
d="M228.5 36.5q-82.5 46.5 -131 128.5t-48.5 185t48.5 185t130.5 128.5t179 46.5q83 0 159 -37t117 -93l-69 -51q-28 41 -84.5 70t-121.5 29q-75 0 -135.5 -34.5t-96 -97.5t-35.5 -146t35.5 -146t96.5 -97.5t136 -34.5q65 0 122.5 29t87.5 69l66 -50q-42 -55 -117.5 -92.5
t-158.5 -37.5q-98 0 -180.5 46.5z" />
    <glyph glyph-name="Cacute" unicode="&#x106;" horiz-adv-x="728" 
d="M228.5 36.5q-82.5 46.5 -131 128.5t-48.5 185t48.5 185t130.5 128.5t179 46.5q83 0 159 -37t117 -93l-69 -51q-28 41 -84.5 70t-121.5 29q-75 0 -135.5 -34.5t-96 -97.5t-35.5 -146t35.5 -146t96.5 -97.5t136 -34.5q65 0 122.5 29t87.5 69l66 -50q-42 -55 -117.5 -92.5
t-158.5 -37.5q-98 0 -180.5 46.5zM305 783l-18 54l202 80l30 -80z" />
    <glyph glyph-name="Ccaron" unicode="&#x10c;" horiz-adv-x="728" 
d="M228.5 36.5q-82.5 46.5 -131 128.5t-48.5 185t48.5 185t130.5 128.5t179 46.5q83 0 159 -37t117 -93l-69 -51q-28 41 -84.5 70t-121.5 29q-75 0 -135.5 -34.5t-96 -97.5t-35.5 -146t35.5 -146t96.5 -97.5t136 -34.5q65 0 122.5 29t87.5 69l66 -50q-42 -55 -117.5 -92.5
t-158.5 -37.5q-98 0 -180.5 46.5zM336 911l66 -74l65 74h88l-107 -125h-93l-106 125h87z" />
    <glyph glyph-name="Ccedilla" unicode="&#xc7;" horiz-adv-x="728" 
d="M576 31.5q-70 -36.5 -148 -40.5l-6 -47q113 -10 113 -83q0 -43 -36.5 -67t-99.5 -24q-24 0 -48.5 3.5t-39.5 9.5v54q43 -15 85 -15q73 0 73 37q0 22 -27.5 32.5t-88.5 10.5l18 90q-90 9 -163.5 57t-116 126.5t-42.5 174.5q0 103 48.5 185t130.5 128.5t179 46.5
q83 0 159 -37t117 -93l-69 -51q-28 41 -84.5 70t-121.5 29q-75 0 -135.5 -34.5t-96 -97.5t-35.5 -146t35.5 -146t96.5 -97.5t136 -34.5q65 0 122.5 29t87.5 69l66 -50q-39 -52 -109 -88.5z" />
    <glyph glyph-name="Ccircumflex" unicode="&#x108;" horiz-adv-x="728" 
d="M228.5 36.5q-82.5 46.5 -131 128.5t-48.5 185t48.5 185t130.5 128.5t179 46.5q83 0 159 -37t117 -93l-69 -51q-28 41 -84.5 70t-121.5 29q-75 0 -135.5 -34.5t-96 -97.5t-35.5 -146t35.5 -146t96.5 -97.5t136 -34.5q65 0 122.5 29t87.5 69l66 -50q-42 -55 -117.5 -92.5
t-158.5 -37.5q-98 0 -180.5 46.5zM355 911h92l109 -125h-89l-66 76l-66 -76h-86z" />
    <glyph glyph-name="Cdotaccent" unicode="&#x10a;" horiz-adv-x="728" 
d="M228.5 36.5q-82.5 46.5 -131 128.5t-48.5 185t48.5 185t130.5 128.5t179 46.5q83 0 159 -37t117 -93l-69 -51q-28 41 -84.5 70t-121.5 29q-75 0 -135.5 -34.5t-96 -97.5t-35.5 -146t35.5 -146t96.5 -97.5t136 -34.5q65 0 122.5 29t87.5 69l66 -50q-42 -55 -117.5 -92.5
t-158.5 -37.5q-98 0 -180.5 46.5zM359 806q-18 17 -18 42q0 24 18 41t43 17t42.5 -17t17.5 -41q0 -25 -17.5 -42t-42.5 -17t-43 17z" />
    <glyph glyph-name="D" unicode="D" horiz-adv-x="730" 
d="M290 700q106 0 195.5 -41t142.5 -120t53 -188q0 -108 -54 -187.5t-144.5 -121.5t-195.5 -42h-192v700h195zM438.5 113q69.5 33 110 94.5t40.5 144.5t-39.5 143.5t-107 92.5t-149.5 32h-110v-540h101q85 0 154.5 33z" />
    <glyph glyph-name="Eth" unicode="&#xd0;" horiz-adv-x="730" 
d="M485.5 659q89.5 -41 142.5 -120t53 -188q0 -108 -54 -187.5t-144.5 -121.5t-195.5 -42h-192v320h-54v60h54v320h195q106 0 195.5 -41zM438.5 113q69.5 33 110 94.5t40.5 144.5t-39.5 143.5t-107 92.5t-149.5 32h-110v-240h191v-60h-191v-240h101q85 0 154.5 33z" />
    <glyph glyph-name="Dcaron" unicode="&#x10e;" horiz-adv-x="730" 
d="M290 700q106 0 195.5 -41t142.5 -120t53 -188q0 -108 -54 -187.5t-144.5 -121.5t-195.5 -42h-192v700h195zM438.5 113q69.5 33 110 94.5t40.5 144.5t-39.5 143.5t-107 92.5t-149.5 32h-110v-540h101q85 0 154.5 33zM271 911l66 -74l65 74h88l-107 -125h-93l-106 125h87z
" />
    <glyph glyph-name="Dcroat" unicode="&#x110;" horiz-adv-x="730" 
d="M485.5 659q89.5 -41 142.5 -120t53 -188q0 -108 -54 -187.5t-144.5 -121.5t-195.5 -42h-192v320h-54v60h54v320h195q106 0 195.5 -41zM438.5 113q69.5 33 110 94.5t40.5 144.5t-39.5 143.5t-107 92.5t-149.5 32h-110v-240h191v-60h-191v-240h101q85 0 154.5 33z" />
    <glyph glyph-name="E" unicode="E" horiz-adv-x="616" 
d="M561 80v-80h-466v700h456v-80h-368v-214h320v-79h-320v-247h378z" />
    <glyph glyph-name="Eacute" unicode="&#xc9;" horiz-adv-x="616" 
d="M561 80v-80h-466v700h456v-80h-368v-214h320v-79h-320v-247h378zM232 783l-18 54l202 80l30 -80z" />
    <glyph glyph-name="Ebreve" unicode="&#x114;" horiz-adv-x="616" 
d="M561 80v-80h-466v700h456v-80h-368v-214h320v-79h-320v-247h378zM228.5 819q-35.5 33 -39.5 95h70q2 -34 17.5 -53t52.5 -19q61 0 66 72h71q-5 -61 -40 -94.5t-97 -33.5q-65 0 -100.5 33z" />
    <glyph glyph-name="Ecaron" unicode="&#x11a;" horiz-adv-x="616" 
d="M561 80v-80h-466v700h456v-80h-368v-214h320v-79h-320v-247h378zM263 911l66 -74l65 74h88l-107 -125h-93l-106 125h87z" />
    <glyph glyph-name="Ecircumflex" unicode="&#xca;" horiz-adv-x="616" 
d="M561 80v-80h-466v700h456v-80h-368v-214h320v-79h-320v-247h378zM282 911h92l109 -125h-89l-66 76l-66 -76h-86z" />
    <glyph glyph-name="Edieresis" unicode="&#xcb;" horiz-adv-x="616" 
d="M561 80v-80h-466v700h456v-80h-368v-214h320v-79h-320v-247h378zM203.5 815q-15.5 15 -15.5 36t15.5 36.5t35.5 15.5q22 0 38 -15.5t16 -36.5t-16 -36t-38 -15q-20 0 -35.5 15zM381 815q-15 15 -15 36t15 36.5t36 15.5q22 0 37.5 -15.5t15.5 -36.5t-15.5 -36t-37.5 -15
q-21 0 -36 15z" />
    <glyph glyph-name="Edotaccent" unicode="&#x116;" horiz-adv-x="616" 
d="M561 80v-80h-466v700h456v-80h-368v-214h320v-79h-320v-247h378zM287 806q-18 17 -18 42q0 24 18 41t43 17t42.5 -17t17.5 -41q0 -25 -17.5 -42t-42.5 -17t-43 17z" />
    <glyph glyph-name="uni1EB8" unicode="&#x1eb8;" horiz-adv-x="616" 
d="M561 80v-80h-466v700h456v-80h-368v-214h320v-79h-320v-247h378zM295 -195.5q-17 16.5 -17 40.5t17 40.5t40 16.5t40 -16.5t17 -40.5t-17 -40.5t-40 -16.5t-40 16.5z" />
    <glyph glyph-name="Egrave" unicode="&#xc8;" horiz-adv-x="616" 
d="M561 80v-80h-466v700h456v-80h-368v-214h320v-79h-320v-247h378zM212 837l30 80l203 -80l-18 -54z" />
    <glyph glyph-name="Emacron" unicode="&#x112;" horiz-adv-x="616" 
d="M561 80v-80h-466v700h456v-80h-368v-214h320v-79h-320v-247h378zM208 883h242v-69h-242v69z" />
    <glyph glyph-name="Eogonek" unicode="&#x118;" horiz-adv-x="616" 
d="M476 -51q-45 -35 -45 -67q0 -20 14.5 -31.5t37.5 -11.5q43 0 78 14v-69q-36 -14 -81 -14q-60 0 -92.5 24t-32.5 65t32.5 77.5t87.5 63.5h-380v700h456v-80h-368v-214h320v-79h-320v-247h378v-80q-40 -16 -85 -51z" />
    <glyph glyph-name="uni1EBC" unicode="&#x1ebc;" horiz-adv-x="616" 
d="M561 80v-80h-466v700h456v-80h-368v-214h320v-79h-320v-247h378zM345.5 796.5q-13.5 6.5 -29.5 17.5q-11 8 -18.5 12t-16.5 4q-15 0 -24.5 -10t-12.5 -30h-64q5 51 31 78.5t67 27.5q19 0 32 -6.5t29 -19.5q10 -9 17.5 -13.5t17.5 -4.5q15 0 25 12t12 32h67
q-4 -51 -31.5 -78.5t-67.5 -27.5q-20 0 -33.5 6.5z" />
    <glyph glyph-name="F" unicode="F" horiz-adv-x="586" 
d="M182 620v-229h334v-79h-334v-312h-87v700h444v-80h-357z" />
    <glyph glyph-name="G" unicode="G" horiz-adv-x="791" 
d="M227 36.5q-83 46.5 -130.5 128.5t-47.5 184q0 107 49 189t133 127t185 45q89 0 160 -34.5t113 -86.5l-68 -60q-28 40 -80.5 69.5t-124.5 29.5q-77 0 -139.5 -34.5t-99 -97t-36.5 -145.5q0 -79 35.5 -143.5t97 -102t136.5 -37.5q71 0 124.5 31t83 80.5t31.5 105.5h-270v80
h359q3 -21 3 -48q0 -96 -42.5 -170t-118 -115.5t-170.5 -41.5q-100 0 -183 46.5z" />
    <glyph glyph-name="Gbreve" unicode="&#x11e;" horiz-adv-x="791" 
d="M227 36.5q-83 46.5 -130.5 128.5t-47.5 184q0 107 49 189t133 127t185 45q89 0 160 -34.5t113 -86.5l-68 -60q-28 40 -80.5 69.5t-124.5 29.5q-77 0 -139.5 -34.5t-99 -97t-36.5 -145.5q0 -79 35.5 -143.5t97 -102t136.5 -37.5q71 0 124.5 31t83 80.5t31.5 105.5h-270v80
h359q3 -21 3 -48q0 -96 -42.5 -170t-118 -115.5t-170.5 -41.5q-100 0 -183 46.5zM311.5 819q-35.5 33 -39.5 95h70q2 -34 17.5 -53t52.5 -19q61 0 66 72h71q-5 -61 -40 -94.5t-97 -33.5q-65 0 -100.5 33z" />
    <glyph glyph-name="Gcaron" unicode="&#x1e6;" horiz-adv-x="791" 
d="M227 36.5q-83 46.5 -130.5 128.5t-47.5 184q0 107 49 189t133 127t185 45q89 0 160 -34.5t113 -86.5l-68 -60q-28 40 -80.5 69.5t-124.5 29.5q-77 0 -139.5 -34.5t-99 -97t-36.5 -145.5q0 -79 35.5 -143.5t97 -102t136.5 -37.5q71 0 124.5 31t83 80.5t31.5 105.5h-270v80
h359q3 -21 3 -48q0 -96 -42.5 -170t-118 -115.5t-170.5 -41.5q-100 0 -183 46.5zM346 911l66 -74l65 74h88l-107 -125h-93l-106 125h87z" />
    <glyph glyph-name="Gcircumflex" unicode="&#x11c;" horiz-adv-x="791" 
d="M227 36.5q-83 46.5 -130.5 128.5t-47.5 184q0 107 49 189t133 127t185 45q89 0 160 -34.5t113 -86.5l-68 -60q-28 40 -80.5 69.5t-124.5 29.5q-77 0 -139.5 -34.5t-99 -97t-36.5 -145.5q0 -79 35.5 -143.5t97 -102t136.5 -37.5q71 0 124.5 31t83 80.5t31.5 105.5h-270v80
h359q3 -21 3 -48q0 -96 -42.5 -170t-118 -115.5t-170.5 -41.5q-100 0 -183 46.5zM365 911h92l109 -125h-89l-66 76l-66 -76h-86z" />
    <glyph glyph-name="uni0122" unicode="&#x122;" horiz-adv-x="791" 
d="M227 36.5q-83 46.5 -130.5 128.5t-47.5 184q0 107 49 189t133 127t185 45q89 0 160 -34.5t113 -86.5l-68 -60q-28 40 -80.5 69.5t-124.5 29.5q-77 0 -139.5 -34.5t-99 -97t-36.5 -145.5q0 -79 35.5 -143.5t97 -102t136.5 -37.5q71 0 124.5 31t83 80.5t31.5 105.5h-270v80
h359q3 -21 3 -48q0 -96 -42.5 -170t-118 -115.5t-170.5 -41.5q-100 0 -183 46.5zM442.5 -59q13.5 -13 13.5 -36q0 -32 -16.5 -67t-39.5 -62l-28 18q26 37 34 73q-21 2 -33 14t-12 30t13 30.5t33 12.5q22 0 35.5 -13z" />
    <glyph glyph-name="Gdotaccent" unicode="&#x120;" horiz-adv-x="791" 
d="M227 36.5q-83 46.5 -130.5 128.5t-47.5 184q0 107 49 189t133 127t185 45q89 0 160 -34.5t113 -86.5l-68 -60q-28 40 -80.5 69.5t-124.5 29.5q-77 0 -139.5 -34.5t-99 -97t-36.5 -145.5q0 -79 35.5 -143.5t97 -102t136.5 -37.5q71 0 124.5 31t83 80.5t31.5 105.5h-270v80
h359q3 -21 3 -48q0 -96 -42.5 -170t-118 -115.5t-170.5 -41.5q-100 0 -183 46.5zM370 806q-18 17 -18 42q0 24 18 41t43 17t42.5 -17t17.5 -41q0 -25 -17.5 -42t-42.5 -17t-43 17z" />
    <glyph glyph-name="H" unicode="H" horiz-adv-x="755" 
d="M659 700v-700h-88v320h-388v-320h-88v700h88v-299h388v299h88z" />
    <glyph glyph-name="Hbar" unicode="&#x126;" horiz-adv-x="761" 
d="M703 588v-65h-40v-523h-88v320h-388v-320h-88v523h-40v65h40v112h88v-112h388v112h88v-112h40zM575 401v122h-388v-122h388z" />
    <glyph glyph-name="Hcircumflex" unicode="&#x124;" horiz-adv-x="755" 
d="M659 700v-700h-88v320h-388v-320h-88v700h88v-299h388v299h88zM330 911h92l109 -125h-89l-66 76l-66 -76h-86z" />
    <glyph glyph-name="I" unicode="I" horiz-adv-x="279" 
d="M95 700h88v-700h-88v700z" />
    <glyph glyph-name="Iacute" unicode="&#xcd;" horiz-adv-x="279" 
d="M95 700h88v-700h-88v700zM42 783l-18 54l202 80l30 -80z" />
    <glyph glyph-name="Ibreve" unicode="&#x12c;" horiz-adv-x="279" 
d="M95 700h88v-700h-88v700zM38.5 819q-35.5 33 -39.5 95h70q2 -34 17.5 -53t52.5 -19q61 0 66 72h71q-5 -61 -40 -94.5t-97 -33.5q-65 0 -100.5 33z" />
    <glyph glyph-name="Icircumflex" unicode="&#xce;" horiz-adv-x="279" 
d="M95 700h88v-700h-88v700zM91 911h92l109 -125h-89l-66 76l-66 -76h-86z" />
    <glyph glyph-name="Idieresis" unicode="&#xcf;" horiz-adv-x="279" 
d="M95 700h88v-700h-88v700zM13.5 815q-15.5 15 -15.5 36t15.5 36.5t35.5 15.5q22 0 38 -15.5t16 -36.5t-16 -36t-38 -15q-20 0 -35.5 15zM191 815q-15 15 -15 36t15 36.5t36 15.5q22 0 37.5 -15.5t15.5 -36.5t-15.5 -36t-37.5 -15q-21 0 -36 15z" />
    <glyph glyph-name="Idotaccent" unicode="&#x130;" horiz-adv-x="279" 
d="M95 700h88v-700h-88v700zM96 806q-18 17 -18 42q0 24 18 41t43 17t42.5 -17t17.5 -41q0 -25 -17.5 -42t-42.5 -17t-43 17z" />
    <glyph glyph-name="uni1ECA" unicode="&#x1eca;" horiz-adv-x="279" 
d="M95 700h88v-700h-88v700zM99 -195.5q-17 16.5 -17 40.5t17 40.5t40 16.5t40 -16.5t17 -40.5t-17 -40.5t-40 -16.5t-40 16.5z" />
    <glyph glyph-name="Igrave" unicode="&#xcc;" horiz-adv-x="279" 
d="M95 700h88v-700h-88v700zM22 837l30 80l203 -80l-18 -54z" />
    <glyph glyph-name="Imacron" unicode="&#x12a;" horiz-adv-x="279" 
d="M95 700h88v-700h-88v700zM18 883h242v-69h-242v69z" />
    <glyph glyph-name="Iogonek" unicode="&#x12e;" horiz-adv-x="279" 
d="M68.5 -149.5q14.5 -11.5 37.5 -11.5q43 0 78 14v-69q-36 -14 -81 -14q-60 0 -92.5 24t-32.5 65t32.5 77.5t87.5 63.5h-3v700h88v-700h1q-40 -16 -85 -51t-45 -67q0 -20 14.5 -31.5z" />
    <glyph glyph-name="Itilde" unicode="&#x128;" horiz-adv-x="279" 
d="M95 700h88v-700h-88v700zM155.5 796.5q-13.5 6.5 -29.5 17.5q-11 8 -18.5 12t-16.5 4q-15 0 -24.5 -10t-12.5 -30h-64q5 51 31 78.5t67 27.5q19 0 32 -6.5t29 -19.5q10 -9 17.5 -13.5t17.5 -4.5q15 0 25 12t12 32h67q-4 -51 -31.5 -78.5t-67.5 -27.5q-20 0 -33.5 6.5z
" />
    <glyph glyph-name="J" unicode="J" horiz-adv-x="454" 
d="M79.5 1q-38.5 11 -56.5 24l31 73q52 -26 111 -26q55 0 85.5 30t30.5 78v520h89v-521q0 -88 -56.5 -138.5t-148.5 -50.5q-47 0 -85.5 11z" />
    <glyph glyph-name="Jcircumflex" unicode="&#x134;" horiz-adv-x="454" 
d="M79.5 1q-38.5 11 -56.5 24l31 73q52 -26 111 -26q55 0 85.5 30t30.5 78v520h89v-521q0 -88 -56.5 -138.5t-148.5 -50.5q-47 0 -85.5 11zM279 911h92l109 -125h-89l-66 76l-66 -76h-86z" />
    <glyph glyph-name="K" unicode="K" horiz-adv-x="678" 
d="M543 0l-234 309h-126v-309h-88v700h88v-311h127l227 311h105l-261 -351l273 -349h-111z" />
    <glyph glyph-name="uni0136" unicode="&#x136;" horiz-adv-x="678" 
d="M543 0l-234 309h-126v-309h-88v700h88v-311h127l227 311h105l-261 -351l273 -349h-111zM381.5 -59q13.5 -13 13.5 -36q0 -32 -16.5 -67t-39.5 -62l-28 18q26 37 34 73q-21 2 -33 14t-12 30t13 30.5t33 12.5q22 0 35.5 -13z" />
    <glyph glyph-name="L" unicode="L" horiz-adv-x="531" 
d="M95 700h88v-620h318v-80h-406v700z" />
    <glyph glyph-name="Lacute" unicode="&#x139;" horiz-adv-x="531" 
d="M95 700h88v-620h318v-80h-406v700zM42 783l-18 54l202 80l30 -80z" />
    <glyph glyph-name="Lcaron" unicode="&#x13d;" horiz-adv-x="531" 
d="M183 700v-620h318v-80h-406v700h88zM381 700l-52 -180h-57l22 180h87z" />
    <glyph glyph-name="uni013B" unicode="&#x13b;" horiz-adv-x="531" 
d="M95 700h88v-620h318v-80h-406v700zM329.5 -59q13.5 -13 13.5 -36q0 -32 -16.5 -67t-39.5 -62l-28 18q26 37 34 73q-21 2 -33 14t-12 30t13 30.5t33 12.5q22 0 35.5 -13z" />
    <glyph glyph-name="Ldot" unicode="&#x13f;" horiz-adv-x="531" 
d="M95 700h88v-620h318v-80h-406v700zM305.5 297q-19.5 19 -19.5 46q0 26 19.5 44.5t47.5 18.5q27 0 46.5 -18.5t19.5 -44.5q0 -27 -19.5 -46t-46.5 -19q-28 0 -47.5 19z" />
    <glyph glyph-name="Lslash" unicode="&#x141;" horiz-adv-x="531" 
d="M183 80h318v-80h-406v333l-58 -23v67l58 23v300h88v-264l60 24v-67l-60 -24v-289z" />
    <glyph glyph-name="M" unicode="M" horiz-adv-x="1014" 
d="M167 700h124l216 -586l216 586h124l107 -700h-92l-87 607l-220 -601h-96l-219 601l-87 -607h-92z" />
    <glyph glyph-name="N" unicode="N" horiz-adv-x="762" 
d="M95 700h78l405 -550v550h89v-700h-79l-405 547v-547h-88v700z" />
    <glyph glyph-name="Nacute" unicode="&#x143;" horiz-adv-x="762" 
d="M95 700h78l405 -550v550h89v-700h-79l-405 547v-547h-88v700zM299 783l-18 54l202 80l30 -80z" />
    <glyph glyph-name="Ncaron" unicode="&#x147;" horiz-adv-x="762" 
d="M95 700h78l405 -550v550h89v-700h-79l-405 547v-547h-88v700zM330 911l66 -74l65 74h88l-107 -125h-93l-106 125h87z" />
    <glyph glyph-name="uni0145" unicode="&#x145;" horiz-adv-x="762" 
d="M95 700h78l405 -550v550h89v-700h-79l-405 547v-547h-88v700zM418.5 -59q13.5 -13 13.5 -36q0 -32 -16.5 -67t-39.5 -62l-28 18q26 37 34 73q-21 2 -33 14t-12 30t13 30.5t33 12.5q22 0 35.5 -13z" />
    <glyph glyph-name="Eng" unicode="&#x14a;" horiz-adv-x="762" 
d="M667 700v-756q0 -80 -50.5 -127t-132.5 -47q-41 0 -76 10.5t-52 23.5l33 72q22 -12 44 -18.5t53 -6.5q44 0 68 27.5t24 66.5v69l-395 533v-547h-88v700h78l405 -550v550h89z" />
    <glyph glyph-name="uni019D" unicode="&#x19d;" horiz-adv-x="762" 
d="M667 700v-700h-79l-405 547v-603q0 -80 -51 -127t-133 -47q-41 0 -76 10.5t-52 23.5l33 72q25 -12 46.5 -18.5t50.5 -6.5q44 0 69 27.5t25 66.5v755h78l405 -550v550h89z" />
    <glyph glyph-name="Ntilde" unicode="&#xd1;" horiz-adv-x="762" 
d="M95 700h78l405 -550v550h89v-700h-79l-405 547v-547h-88v700zM412.5 796.5q-13.5 6.5 -29.5 17.5q-11 8 -18.5 12t-16.5 4q-15 0 -24.5 -10t-12.5 -30h-64q5 51 31 78.5t67 27.5q19 0 32 -6.5t29 -19.5q10 -9 17.5 -13.5t17.5 -4.5q15 0 25 12t12 32h67
q-4 -51 -31.5 -78.5t-67.5 -27.5q-20 0 -33.5 6.5z" />
    <glyph glyph-name="O" unicode="O" horiz-adv-x="813" 
d="M227 38.5q-82 48.5 -130 131t-48 180.5t48 180.5t130 131t180 48.5t180 -48.5t129.5 -131t47.5 -180.5t-47.5 -180.5t-129.5 -131t-180 -48.5t-180 48.5zM539.5 108q60.5 36 96.5 100t36 142t-36 142t-96.5 100t-132.5 36t-133 -36.5t-97 -100t-36 -141.5t36 -141.5
t97 -100t133 -36.5t132.5 36z" />
    <glyph glyph-name="Oacute" unicode="&#xd3;" horiz-adv-x="813" 
d="M227 38.5q-82 48.5 -130 131t-48 180.5t48 180.5t130 131t180 48.5t180 -48.5t129.5 -131t47.5 -180.5t-47.5 -180.5t-129.5 -131t-180 -48.5t-180 48.5zM539.5 108q60.5 36 96.5 100t36 142t-36 142t-96.5 100t-132.5 36t-133 -36.5t-97 -100t-36 -141.5t36 -141.5
t97 -100t133 -36.5t132.5 36zM310 783l-18 54l202 80l30 -80z" />
    <glyph glyph-name="Obreve" unicode="&#x14e;" horiz-adv-x="813" 
d="M227 38.5q-82 48.5 -130 131t-48 180.5t48 180.5t130 131t180 48.5t180 -48.5t129.5 -131t47.5 -180.5t-47.5 -180.5t-129.5 -131t-180 -48.5t-180 48.5zM539.5 108q60.5 36 96.5 100t36 142t-36 142t-96.5 100t-132.5 36t-133 -36.5t-97 -100t-36 -141.5t36 -141.5
t97 -100t133 -36.5t132.5 36zM306.5 819q-35.5 33 -39.5 95h70q2 -34 17.5 -53t52.5 -19q61 0 66 72h71q-5 -61 -40 -94.5t-97 -33.5q-65 0 -100.5 33z" />
    <glyph glyph-name="Ocircumflex" unicode="&#xd4;" horiz-adv-x="813" 
d="M227 38.5q-82 48.5 -130 131t-48 180.5t48 180.5t130 131t180 48.5t180 -48.5t129.5 -131t47.5 -180.5t-47.5 -180.5t-129.5 -131t-180 -48.5t-180 48.5zM539.5 108q60.5 36 96.5 100t36 142t-36 142t-96.5 100t-132.5 36t-133 -36.5t-97 -100t-36 -141.5t36 -141.5
t97 -100t133 -36.5t132.5 36zM359 911h92l109 -125h-89l-66 76l-66 -76h-86z" />
    <glyph glyph-name="Odieresis" unicode="&#xd6;" horiz-adv-x="813" 
d="M227 38.5q-82 48.5 -130 131t-48 180.5t48 180.5t130 131t180 48.5t180 -48.5t129.5 -131t47.5 -180.5t-47.5 -180.5t-129.5 -131t-180 -48.5t-180 48.5zM539.5 108q60.5 36 96.5 100t36 142t-36 142t-96.5 100t-132.5 36t-133 -36.5t-97 -100t-36 -141.5t36 -141.5
t97 -100t133 -36.5t132.5 36zM281.5 815q-15.5 15 -15.5 36t15.5 36.5t35.5 15.5q22 0 38 -15.5t16 -36.5t-16 -36t-38 -15q-20 0 -35.5 15zM459 815q-15 15 -15 36t15 36.5t36 15.5q22 0 37.5 -15.5t15.5 -36.5t-15.5 -36t-37.5 -15q-21 0 -36 15z" />
    <glyph glyph-name="uni1ECC" unicode="&#x1ecc;" horiz-adv-x="813" 
d="M227 38.5q-82 48.5 -130 131t-48 180.5t48 180.5t130 131t180 48.5t180 -48.5t129.5 -131t47.5 -180.5t-47.5 -180.5t-129.5 -131t-180 -48.5t-180 48.5zM539.5 108q60.5 36 96.5 100t36 142t-36 142t-96.5 100t-132.5 36t-133 -36.5t-97 -100t-36 -141.5t36 -141.5
t97 -100t133 -36.5t132.5 36zM367 -195.5q-17 16.5 -17 40.5t17 40.5t40 16.5t40 -16.5t17 -40.5t-17 -40.5t-40 -16.5t-40 16.5z" />
    <glyph glyph-name="Ograve" unicode="&#xd2;" horiz-adv-x="813" 
d="M227 38.5q-82 48.5 -130 131t-48 180.5t48 180.5t130 131t180 48.5t180 -48.5t129.5 -131t47.5 -180.5t-47.5 -180.5t-129.5 -131t-180 -48.5t-180 48.5zM539.5 108q60.5 36 96.5 100t36 142t-36 142t-96.5 100t-132.5 36t-133 -36.5t-97 -100t-36 -141.5t36 -141.5
t97 -100t133 -36.5t132.5 36zM290 837l30 80l203 -80l-18 -54z" />
    <glyph glyph-name="Ohungarumlaut" unicode="&#x150;" horiz-adv-x="813" 
d="M227 38.5q-82 48.5 -130 131t-48 180.5t48 180.5t130 131t180 48.5t180 -48.5t129.5 -131t47.5 -180.5t-47.5 -180.5t-129.5 -131t-180 -48.5t-180 48.5zM539.5 108q60.5 36 96.5 100t36 142t-36 142t-96.5 100t-132.5 36t-133 -36.5t-97 -100t-36 -141.5t36 -141.5
t97 -100t133 -36.5t132.5 36zM259 805l108 106l52 -59l-124 -85zM429 804l107 106l52 -59l-124 -85z" />
    <glyph glyph-name="Omacron" unicode="&#x14c;" horiz-adv-x="813" 
d="M227 38.5q-82 48.5 -130 131t-48 180.5t48 180.5t130 131t180 48.5t180 -48.5t129.5 -131t47.5 -180.5t-47.5 -180.5t-129.5 -131t-180 -48.5t-180 48.5zM539.5 108q60.5 36 96.5 100t36 142t-36 142t-96.5 100t-132.5 36t-133 -36.5t-97 -100t-36 -141.5t36 -141.5
t97 -100t133 -36.5t132.5 36zM286 883h242v-69h-242v69z" />
    <glyph glyph-name="uni01EA" unicode="&#x1ea;" horiz-adv-x="813" 
d="M396 -54.5q-41 -32.5 -41 -63.5q0 -20 14.5 -31.5t37.5 -11.5q43 0 78 14v-69q-36 -14 -81 -14q-60 0 -92.5 24t-32.5 65q0 37 28 71t75 61q-92 6 -168.5 56t-120.5 130t-44 173q0 98 48 180.5t130 131t180 48.5t180 -48.5t129.5 -131t47.5 -180.5q0 -86 -37 -160.5
t-102.5 -125.5t-146.5 -67q-41 -19 -82 -51.5zM177 208.5q36 -63.5 97 -100t133 -36.5t132.5 36t96.5 100t36 142t-36 142t-96.5 100t-132.5 36t-133 -36.5t-97 -100t-36 -141.5t36 -141.5z" />
    <glyph glyph-name="Oslash" unicode="&#xd8;" horiz-adv-x="813" 
d="M736.5 488.5q27.5 -65.5 27.5 -138.5q0 -98 -47.5 -180.5t-129.5 -131t-180 -48.5q-57 0 -110.5 17.5t-97.5 49.5l-97 -115l-49 43l97 115q-48 50 -74.5 114t-26.5 136q0 98 48 180.5t130 131t180 48.5q112 0 203 -63l100 119l50 -43l-100 -119q49 -50 76.5 -115.5z
M206 166l349 416q-67 46 -148 46q-72 0 -133 -36.5t-97 -100t-36 -141.5q0 -106 65 -184zM539.5 108q60.5 36 96.5 100t36 142q0 54 -18 102t-50 86l-351 -416q69 -50 154 -50q72 0 132.5 36z" />
    <glyph glyph-name="Oslashacute" unicode="&#x1fe;" horiz-adv-x="813" 
d="M736.5 488.5q27.5 -65.5 27.5 -138.5q0 -98 -47.5 -180.5t-129.5 -131t-180 -48.5q-57 0 -110.5 17.5t-97.5 49.5l-97 -115l-49 43l97 115q-48 50 -74.5 114t-26.5 136q0 98 48 180.5t130 131t180 48.5q112 0 203 -63l100 119l50 -43l-100 -119q49 -50 76.5 -115.5z
M206 166l349 416q-67 46 -148 46q-72 0 -133 -36.5t-97 -100t-36 -141.5q0 -106 65 -184zM539.5 108q60.5 36 96.5 100t36 142q0 54 -18 102t-50 86l-351 -416q69 -50 154 -50q72 0 132.5 36zM304 783l-18 54l202 80l30 -80z" />
    <glyph glyph-name="Otilde" unicode="&#xd5;" horiz-adv-x="813" 
d="M227 38.5q-82 48.5 -130 131t-48 180.5t48 180.5t130 131t180 48.5t180 -48.5t129.5 -131t47.5 -180.5t-47.5 -180.5t-129.5 -131t-180 -48.5t-180 48.5zM539.5 108q60.5 36 96.5 100t36 142t-36 142t-96.5 100t-132.5 36t-133 -36.5t-97 -100t-36 -141.5t36 -141.5
t97 -100t133 -36.5t132.5 36zM423.5 796.5q-13.5 6.5 -29.5 17.5q-11 8 -18.5 12t-16.5 4q-15 0 -24.5 -10t-12.5 -30h-64q5 51 31 78.5t67 27.5q19 0 32 -6.5t29 -19.5q10 -9 17.5 -13.5t17.5 -4.5q15 0 25 12t12 32h67q-4 -51 -31.5 -78.5t-67.5 -27.5q-20 0 -33.5 6.5z
" />
    <glyph glyph-name="OE" unicode="&#x152;" horiz-adv-x="1188" 
d="M1133 80v-80h-465v135q-42 -68 -109.5 -106.5t-154.5 -38.5q-98 0 -179 49t-128.5 131.5t-47.5 179.5t47.5 179.5t128.5 131.5t179 49q87 0 154.5 -38.5t109.5 -106.5v135h455v-80h-367v-214h320v-79h-320v-247h377zM536.5 108.5q60.5 36.5 95.5 100.5t35 141t-35 141
t-95.5 100.5t-132.5 36.5t-132 -37t-95.5 -100.5t-35.5 -140.5t35.5 -140.5t95.5 -100.5t132 -37t132.5 36.5z" />
    <glyph glyph-name="P" unicode="P" horiz-adv-x="636" 
d="M474.5 676.5q54.5 -23.5 87.5 -70.5t33 -115q0 -67 -33 -114t-88 -70.5t-121 -23.5h-170v-283h-88v700h258q67 0 121.5 -23.5zM459 395q44 32 44 96q0 65 -44 97t-118 32h-158v-257h158q74 0 118 32z" />
    <glyph glyph-name="Thorn" unicode="&#xde;" horiz-adv-x="639" 
d="M183 700v-131h170q67 0 121.5 -23.5t87.5 -70.5t33 -115q0 -67 -33 -114.5t-88 -71t-121 -23.5h-170v-151h-88v700h88zM459 263.5q44 31.5 44 96.5t-44 96.5t-118 31.5h-158v-256h158q74 0 118 31.5z" />
    <glyph glyph-name="Q" unicode="Q" horiz-adv-x="813" 
d="M736.5 210.5q-27.5 -65.5 -77.5 -116.5l97 -104l-59 -56l-103 109q-84 -53 -187 -53q-98 0 -180 48.5t-130 131t-48 180.5t48 180.5t130 131t180 48.5t180 -48.5t129.5 -131t47.5 -180.5q0 -74 -27.5 -139.5zM535 106l-85 90l61 56l89 -95q34 38 53 87.5t19 105.5
q0 78 -36 142t-96.5 100t-132.5 36t-133 -36.5t-97 -100t-36 -141.5t36 -141.5t97 -100t133 -36.5q69 0 128 34z" />
    <glyph glyph-name="R" unicode="R" horiz-adv-x="664" 
d="M350 288h-167v-288h-88v700h264q61 0 114.5 -20.5t87 -66.5t33.5 -117q0 -73 -43 -122.5t-111 -69.5l184 -304h-104zM183 368h168q62 0 106.5 32.5t44.5 94.5q0 60 -40.5 92.5t-110.5 32.5h-168v-252z" />
    <glyph glyph-name="Racute" unicode="&#x154;" horiz-adv-x="664" 
d="M350 288h-167v-288h-88v700h264q61 0 114.5 -20.5t87 -66.5t33.5 -117q0 -73 -43 -122.5t-111 -69.5l184 -304h-104zM183 368h168q62 0 106.5 32.5t44.5 94.5q0 60 -40.5 92.5t-110.5 32.5h-168v-252zM235 783l-18 54l202 80l30 -80z" />
    <glyph glyph-name="Rcaron" unicode="&#x158;" horiz-adv-x="664" 
d="M350 288h-167v-288h-88v700h264q61 0 114.5 -20.5t87 -66.5t33.5 -117q0 -73 -43 -122.5t-111 -69.5l184 -304h-104zM183 368h168q62 0 106.5 32.5t44.5 94.5q0 60 -40.5 92.5t-110.5 32.5h-168v-252zM266 911l66 -74l65 74h88l-107 -125h-93l-106 125h87z" />
    <glyph glyph-name="uni0156" unicode="&#x156;" horiz-adv-x="664" 
d="M350 288h-167v-288h-88v700h264q61 0 114.5 -20.5t87 -66.5t33.5 -117q0 -73 -43 -122.5t-111 -69.5l184 -304h-104zM183 368h168q62 0 106.5 32.5t44.5 94.5q0 60 -40.5 92.5t-110.5 32.5h-168v-252zM383.5 -59q13.5 -13 13.5 -36q0 -32 -16.5 -67t-39.5 -62l-28 18
q26 37 34 73q-21 2 -33 14t-12 30t13 30.5t33 12.5q22 0 35.5 -13z" />
    <glyph glyph-name="S" unicode="S" horiz-adv-x="606" 
d="M156 24q-62 34 -100 84l58 60q35 -44 82.5 -71.5t107.5 -27.5q73 0 114 33.5t41 86.5q0 52 -39 80t-106 46l-57 15q-78 20 -126 63t-48 127q0 53 30 96.5t83.5 68.5t121.5 25q74 0 128.5 -25t85.5 -55l-48 -67q-28 27 -71 47.5t-95 20.5q-66 0 -104.5 -30.5t-38.5 -79.5
q0 -50 31.5 -75.5t89.5 -41.5l58 -15q55 -15 96.5 -35t70.5 -59.5t29 -102.5q0 -59 -32 -105t-88.5 -71.5t-126.5 -25.5q-85 0 -147 34z" />
    <glyph glyph-name="Sacute" unicode="&#x15a;" horiz-adv-x="606" 
d="M156 24q-62 34 -100 84l58 60q35 -44 82.5 -71.5t107.5 -27.5q73 0 114 33.5t41 86.5q0 52 -39 80t-106 46l-57 15q-78 20 -126 63t-48 127q0 53 30 96.5t83.5 68.5t121.5 25q74 0 128.5 -25t85.5 -55l-48 -67q-28 27 -71 47.5t-95 20.5q-66 0 -104.5 -30.5t-38.5 -79.5
q0 -50 31.5 -75.5t89.5 -41.5l58 -15q55 -15 96.5 -35t70.5 -59.5t29 -102.5q0 -59 -32 -105t-88.5 -71.5t-126.5 -25.5q-85 0 -147 34zM217 783l-18 54l202 80l30 -80z" />
    <glyph glyph-name="Scaron" unicode="&#x160;" horiz-adv-x="606" 
d="M156 24q-62 34 -100 84l58 60q35 -44 82.5 -71.5t107.5 -27.5q73 0 114 33.5t41 86.5q0 52 -39 80t-106 46l-57 15q-78 20 -126 63t-48 127q0 53 30 96.5t83.5 68.5t121.5 25q74 0 128.5 -25t85.5 -55l-48 -67q-28 27 -71 47.5t-95 20.5q-66 0 -104.5 -30.5t-38.5 -79.5
q0 -50 31.5 -75.5t89.5 -41.5l58 -15q55 -15 96.5 -35t70.5 -59.5t29 -102.5q0 -59 -32 -105t-88.5 -71.5t-126.5 -25.5q-85 0 -147 34zM248 911l66 -74l65 74h88l-107 -125h-93l-106 125h87z" />
    <glyph glyph-name="Scedilla" unicode="&#x15e;" horiz-adv-x="606" 
d="M489.5 54q-60.5 -55 -156.5 -63l-6 -47q113 -10 113 -83q0 -43 -36.5 -67t-99.5 -24q-24 0 -48.5 3.5t-39.5 9.5v54q43 -15 85 -15q73 0 73 37q0 22 -27.5 32.5t-88.5 10.5l18 89q-75 6 -130 38.5t-90 78.5l58 60q35 -44 82.5 -71.5t107.5 -27.5q73 0 114 33.5t41 86.5
q0 52 -39 80t-106 46l-57 15q-78 20 -126 63t-48 127q0 53 30 96.5t83.5 68.5t121.5 25q74 0 128.5 -25t85.5 -55l-48 -67q-28 27 -71 47.5t-95 20.5q-66 0 -104.5 -30.5t-38.5 -79.5q0 -50 31.5 -75.5t89.5 -41.5l58 -15q55 -15 96.5 -35t70.5 -59.5t29 -102.5
q0 -83 -60.5 -138z" />
    <glyph glyph-name="Scircumflex" unicode="&#x15c;" horiz-adv-x="606" 
d="M156 24q-62 34 -100 84l58 60q35 -44 82.5 -71.5t107.5 -27.5q73 0 114 33.5t41 86.5q0 52 -39 80t-106 46l-57 15q-78 20 -126 63t-48 127q0 53 30 96.5t83.5 68.5t121.5 25q74 0 128.5 -25t85.5 -55l-48 -67q-28 27 -71 47.5t-95 20.5q-66 0 -104.5 -30.5t-38.5 -79.5
q0 -50 31.5 -75.5t89.5 -41.5l58 -15q55 -15 96.5 -35t70.5 -59.5t29 -102.5q0 -59 -32 -105t-88.5 -71.5t-126.5 -25.5q-85 0 -147 34zM267 911h92l109 -125h-89l-66 76l-66 -76h-86z" />
    <glyph glyph-name="uni0218" unicode="&#x218;" horiz-adv-x="606" 
d="M156 24q-62 34 -100 84l58 60q35 -44 82.5 -71.5t107.5 -27.5q73 0 114 33.5t41 86.5q0 52 -39 80t-106 46l-57 15q-78 20 -126 63t-48 127q0 53 30 96.5t83.5 68.5t121.5 25q74 0 128.5 -25t85.5 -55l-48 -67q-28 27 -71 47.5t-95 20.5q-66 0 -104.5 -30.5t-38.5 -79.5
q0 -50 31.5 -75.5t89.5 -41.5l58 -15q55 -15 96.5 -35t70.5 -59.5t29 -102.5q0 -59 -32 -105t-88.5 -71.5t-126.5 -25.5q-85 0 -147 34zM341.5 -59q13.5 -13 13.5 -36q0 -32 -16.5 -67t-39.5 -62l-28 18q26 37 34 73q-21 2 -33 14t-12 30t13 30.5t33 12.5q22 0 35.5 -13z
" />
    <glyph glyph-name="uni1E9E" unicode="&#x1e9e;" horiz-adv-x="669" 
d="M288 3q-47 13 -74 29l27 74q62 -38 149 -38q77 0 118.5 37t41.5 92q0 81 -62 111t-178 32v53l164 182q-49 56 -136 56q-72 0 -119.5 -47t-47.5 -135v-449h-87v443q0 90 34 150t91.5 88.5t128.5 28.5q96 0 155 -40t88 -94l-163 -177q91 -9 157 -57t66 -148
q0 -55 -28.5 -101.5t-84.5 -74.5t-136 -28q-57 0 -104 13z" />
    <glyph glyph-name="uni018F" unicode="&#x18f;" horiz-adv-x="736" 
d="M196.5 36q-70.5 43 -109 120t-38.5 177q0 16 2 46h547q-6 74 -43 131.5t-99 89t-140 31.5q-57 0 -114.5 -19t-94.5 -44l-34 70q41 30 107.5 51t136.5 21q113 0 197 -48t128.5 -131t44.5 -186q0 -102 -41.5 -182t-116.5 -125t-170 -45q-92 0 -162.5 43zM476 102
q52 29 83.5 82t36.5 123h-460q0 -68 29 -121t79.5 -83t114.5 -30q65 0 117 29z" />
    <glyph glyph-name="T" unicode="T" horiz-adv-x="646" 
d="M279 620h-243v80h574v-80h-243v-620h-88v620z" />
    <glyph glyph-name="Tbar" unicode="&#x166;" horiz-adv-x="646" 
d="M610 620h-243v-240h122v-60h-122v-320h-88v320h-123v60h123v240h-243v80h574v-80z" />
    <glyph glyph-name="Tcaron" unicode="&#x164;" horiz-adv-x="646" 
d="M279 620h-243v80h574v-80h-243v-620h-88v620zM257 911l66 -74l65 74h88l-107 -125h-93l-106 125h87z" />
    <glyph glyph-name="uni0162" unicode="&#x162;" horiz-adv-x="646" 
d="M350 0l-7 -56q113 -10 113 -83q0 -43 -36.5 -67t-99.5 -24q-24 0 -48.5 3.5t-39.5 9.5v54q43 -15 85 -15q73 0 73 37q0 22 -27.5 32.5t-88.5 10.5l19 98h-14v620h-243v80h574v-80h-243v-620h-17z" />
    <glyph glyph-name="uni021A" unicode="&#x21a;" horiz-adv-x="646" 
d="M279 620h-243v80h574v-80h-243v-620h-88v620zM358.5 -59q13.5 -13 13.5 -36q0 -32 -16.5 -67t-39.5 -62l-28 18q26 37 34 73q-21 2 -33 14t-12 30t13 30.5t33 12.5q22 0 35.5 -13z" />
    <glyph glyph-name="U" unicode="U" horiz-adv-x="728" 
d="M216 24q-63 34 -97.5 94.5t-34.5 138.5v443h89v-447q0 -80 50 -131t141 -51q60 0 103.5 24t66 65t22.5 93v447h88v-443q0 -78 -34.5 -138.5t-97.5 -94.5t-148 -34t-148 34z" />
    <glyph glyph-name="Uacute" unicode="&#xda;" horiz-adv-x="728" 
d="M216 24q-63 34 -97.5 94.5t-34.5 138.5v443h89v-447q0 -80 50 -131t141 -51q60 0 103.5 24t66 65t22.5 93v447h88v-443q0 -78 -34.5 -138.5t-97.5 -94.5t-148 -34t-148 34zM267 783l-18 54l202 80l30 -80z" />
    <glyph glyph-name="Ubreve" unicode="&#x16c;" horiz-adv-x="728" 
d="M216 24q-63 34 -97.5 94.5t-34.5 138.5v443h89v-447q0 -80 50 -131t141 -51q60 0 103.5 24t66 65t22.5 93v447h88v-443q0 -78 -34.5 -138.5t-97.5 -94.5t-148 -34t-148 34zM263.5 819q-35.5 33 -39.5 95h70q2 -34 17.5 -53t52.5 -19q61 0 66 72h71q-5 -61 -40 -94.5
t-97 -33.5q-65 0 -100.5 33z" />
    <glyph glyph-name="Ucircumflex" unicode="&#xdb;" horiz-adv-x="728" 
d="M216 24q-63 34 -97.5 94.5t-34.5 138.5v443h89v-447q0 -80 50 -131t141 -51q60 0 103.5 24t66 65t22.5 93v447h88v-443q0 -78 -34.5 -138.5t-97.5 -94.5t-148 -34t-148 34zM317 911h92l109 -125h-89l-66 76l-66 -76h-86z" />
    <glyph glyph-name="Udieresis" unicode="&#xdc;" horiz-adv-x="728" 
d="M216 24q-63 34 -97.5 94.5t-34.5 138.5v443h89v-447q0 -80 50 -131t141 -51q60 0 103.5 24t66 65t22.5 93v447h88v-443q0 -78 -34.5 -138.5t-97.5 -94.5t-148 -34t-148 34zM238.5 815q-15.5 15 -15.5 36t15.5 36.5t35.5 15.5q22 0 38 -15.5t16 -36.5t-16 -36t-38 -15
q-20 0 -35.5 15zM416 815q-15 15 -15 36t15 36.5t36 15.5q22 0 37.5 -15.5t15.5 -36.5t-15.5 -36t-37.5 -15q-21 0 -36 15z" />
    <glyph glyph-name="uni1EE4" unicode="&#x1ee4;" horiz-adv-x="728" 
d="M216 24q-63 34 -97.5 94.5t-34.5 138.5v443h89v-447q0 -80 50 -131t141 -51q60 0 103.5 24t66 65t22.5 93v447h88v-443q0 -78 -34.5 -138.5t-97.5 -94.5t-148 -34t-148 34zM324 -195.5q-17 16.5 -17 40.5t17 40.5t40 16.5t40 -16.5t17 -40.5t-17 -40.5t-40 -16.5
t-40 16.5z" />
    <glyph glyph-name="Ugrave" unicode="&#xd9;" horiz-adv-x="728" 
d="M216 24q-63 34 -97.5 94.5t-34.5 138.5v443h89v-447q0 -80 50 -131t141 -51q60 0 103.5 24t66 65t22.5 93v447h88v-443q0 -78 -34.5 -138.5t-97.5 -94.5t-148 -34t-148 34zM247 837l30 80l203 -80l-18 -54z" />
    <glyph glyph-name="Uhungarumlaut" unicode="&#x170;" horiz-adv-x="728" 
d="M216 24q-63 34 -97.5 94.5t-34.5 138.5v443h89v-447q0 -80 50 -131t141 -51q60 0 103.5 24t66 65t22.5 93v447h88v-443q0 -78 -34.5 -138.5t-97.5 -94.5t-148 -34t-148 34zM216 805l108 106l52 -59l-124 -85zM386 804l107 106l52 -59l-124 -85z" />
    <glyph glyph-name="Umacron" unicode="&#x16a;" horiz-adv-x="728" 
d="M216 24q-63 34 -97.5 94.5t-34.5 138.5v443h89v-447q0 -80 50 -131t141 -51q60 0 103.5 24t66 65t22.5 93v447h88v-443q0 -78 -34.5 -138.5t-97.5 -94.5t-148 -34t-148 34zM243 883h242v-69h-242v69z" />
    <glyph glyph-name="Uogonek" unicode="&#x172;" horiz-adv-x="728" 
d="M644 700v-443q0 -100 -56 -170.5t-153 -89.5q-42 -20 -82.5 -52.5t-40.5 -62.5q0 -20 14.5 -31.5t37.5 -11.5q43 0 78 14v-69q-36 -14 -81 -14q-60 0 -92.5 24t-32.5 65q0 37 27.5 71t74.5 61q-77 5 -134.5 40t-88.5 93.5t-31 132.5v443h89v-447q0 -80 50 -131t141 -51
q60 0 103.5 24t66 65t22.5 93v447h88z" />
    <glyph glyph-name="Uring" unicode="&#x16e;" horiz-adv-x="728" 
d="M216 24q-63 34 -97.5 94.5t-34.5 138.5v443h89v-447q0 -80 50 -131t141 -51q60 0 103.5 24t66 65t22.5 93v447h88v-443q0 -78 -34.5 -138.5t-97.5 -94.5t-148 -34t-148 34zM451.5 970.5q36.5 -34.5 36.5 -83.5q0 -50 -36.5 -85t-87.5 -35t-87.5 35t-36.5 85
q0 49 36.5 83.5t87.5 34.5t87.5 -34.5zM318 931q-19 -18 -19 -44q0 -27 19 -45.5t46 -18.5t46 18.5t19 45.5q0 26 -19 44t-46 18t-46 -18z" />
    <glyph glyph-name="Utilde" unicode="&#x168;" horiz-adv-x="728" 
d="M216 24q-63 34 -97.5 94.5t-34.5 138.5v443h89v-447q0 -80 50 -131t141 -51q60 0 103.5 24t66 65t22.5 93v447h88v-443q0 -78 -34.5 -138.5t-97.5 -94.5t-148 -34t-148 34zM380.5 796.5q-13.5 6.5 -29.5 17.5q-11 8 -18.5 12t-16.5 4q-15 0 -24.5 -10t-12.5 -30h-64
q5 51 31 78.5t67 27.5q19 0 32 -6.5t29 -19.5q10 -9 17.5 -13.5t17.5 -4.5q15 0 25 12t12 32h67q-4 -51 -31.5 -78.5t-67.5 -27.5q-20 0 -33.5 6.5z" />
    <glyph glyph-name="V" unicode="V" horiz-adv-x="691" 
d="M667 700l-266 -700h-111l-266 700h95l226 -616l227 616h95z" />
    <glyph glyph-name="W" unicode="W" horiz-adv-x="1117" 
d="M1077 700l-211 -700h-105l-202 586l-204 -586h-104l-211 700h93l171 -595l206 595h97l205 -595l172 595h93z" />
    <glyph glyph-name="Wacute" unicode="&#x1e82;" horiz-adv-x="1117" 
d="M1077 700l-211 -700h-105l-202 586l-204 -586h-104l-211 700h93l171 -595l206 595h97l205 -595l172 595h93zM461 783l-18 54l202 80l30 -80z" />
    <glyph glyph-name="Wcircumflex" unicode="&#x174;" horiz-adv-x="1117" 
d="M1077 700l-211 -700h-105l-202 586l-204 -586h-104l-211 700h93l171 -595l206 595h97l205 -595l172 595h93zM511 911h92l109 -125h-89l-66 76l-66 -76h-86z" />
    <glyph glyph-name="Wdieresis" unicode="&#x1e84;" horiz-adv-x="1117" 
d="M1077 700l-211 -700h-105l-202 586l-204 -586h-104l-211 700h93l171 -595l206 595h97l205 -595l172 595h93zM432.5 815q-15.5 15 -15.5 36t15.5 36.5t35.5 15.5q22 0 38 -15.5t16 -36.5t-16 -36t-38 -15q-20 0 -35.5 15zM610 815q-15 15 -15 36t15 36.5t36 15.5
q22 0 37.5 -15.5t15.5 -36.5t-15.5 -36t-37.5 -15q-21 0 -36 15z" />
    <glyph glyph-name="Wgrave" unicode="&#x1e80;" horiz-adv-x="1117" 
d="M1077 700l-211 -700h-105l-202 586l-204 -586h-104l-211 700h93l171 -595l206 595h97l205 -595l172 595h93zM442 837l30 80l203 -80l-18 -54z" />
    <glyph glyph-name="X" unicode="X" horiz-adv-x="677" 
d="M642 0h-104l-202 308l-197 -308h-105l239 360l-225 340h100l188 -288l193 288h100l-230 -340z" />
    <glyph glyph-name="Y" unicode="Y" horiz-adv-x="676" 
d="M659 700l-277 -375v-325h-87v325l-278 375h104l217 -294l218 294h103z" />
    <glyph glyph-name="Yacute" unicode="&#xdd;" horiz-adv-x="676" 
d="M659 700l-277 -375v-325h-87v325l-278 375h104l217 -294l218 294h103zM241 783l-18 54l202 80l30 -80z" />
    <glyph glyph-name="Ycircumflex" unicode="&#x176;" horiz-adv-x="676" 
d="M659 700l-277 -375v-325h-87v325l-278 375h104l217 -294l218 294h103zM291 911h92l109 -125h-89l-66 76l-66 -76h-86z" />
    <glyph glyph-name="Ydieresis" unicode="&#x178;" horiz-adv-x="676" 
d="M659 700l-277 -375v-325h-87v325l-278 375h104l217 -294l218 294h103zM212.5 815q-15.5 15 -15.5 36t15.5 36.5t35.5 15.5q22 0 38 -15.5t16 -36.5t-16 -36t-38 -15q-20 0 -35.5 15zM390 815q-15 15 -15 36t15 36.5t36 15.5q22 0 37.5 -15.5t15.5 -36.5t-15.5 -36
t-37.5 -15q-21 0 -36 15z" />
    <glyph glyph-name="Ygrave" unicode="&#x1ef2;" horiz-adv-x="676" 
d="M659 700l-277 -375v-325h-87v325l-278 375h104l217 -294l218 294h103zM221 837l30 80l203 -80l-18 -54z" />
    <glyph glyph-name="uni0232" unicode="&#x232;" horiz-adv-x="676" 
d="M659 700l-277 -375v-325h-87v325l-278 375h104l217 -294l218 294h103zM217 883h242v-69h-242v69z" />
    <glyph glyph-name="uni1EF8" unicode="&#x1ef8;" horiz-adv-x="676" 
d="M659 700l-277 -375v-325h-87v325l-278 375h104l217 -294l218 294h103zM354.5 796.5q-13.5 6.5 -29.5 17.5q-11 8 -18.5 12t-16.5 4q-15 0 -24.5 -10t-12.5 -30h-64q5 51 31 78.5t67 27.5q19 0 32 -6.5t29 -19.5q10 -9 17.5 -13.5t17.5 -4.5q15 0 25 12t12 32h67
q-4 -51 -31.5 -78.5t-67.5 -27.5q-20 0 -33.5 6.5z" />
    <glyph glyph-name="Z" unicode="Z" horiz-adv-x="623" 
d="M57 69l404 551h-399v80h509v-69l-404 -551h408v-80h-518v69z" />
    <glyph glyph-name="Zacute" unicode="&#x179;" horiz-adv-x="623" 
d="M57 69l404 551h-399v80h509v-69l-404 -551h408v-80h-518v69zM218 783l-18 54l202 80l30 -80z" />
    <glyph glyph-name="Zcaron" unicode="&#x17d;" horiz-adv-x="623" 
d="M57 69l404 551h-399v80h509v-69l-404 -551h408v-80h-518v69zM249 911l66 -74l65 74h88l-107 -125h-93l-106 125h87z" />
    <glyph glyph-name="Zdotaccent" unicode="&#x17b;" horiz-adv-x="623" 
d="M57 69l404 551h-399v80h509v-69l-404 -551h408v-80h-518v69zM272 806q-18 17 -18 42q0 24 18 41t43 17t42.5 -17t17.5 -41q0 -25 -17.5 -42t-42.5 -17t-43 17z" />
    <glyph glyph-name="T.alt" horiz-adv-x="646" 
d="M36 700h574v-80h-574v80zM367 0h-88v548h88v-548z" />
    <glyph glyph-name="a" unicode="a" horiz-adv-x="630" 
d="M166.5 23q-54.5 33 -88 92.5t-33.5 134.5t33.5 134.5t88 92.5t115.5 33q67 0 114.5 -32.5t66.5 -73.5l15 96h70v-500h-69l-16 94q-19 -40 -66.5 -72t-114.5 -32q-61 0 -115.5 33zM384 89q39 24 61 66t22 95t-22 95t-61 66t-86 24q-42 0 -80 -21.5t-61.5 -63.5t-23.5 -100
t23.5 -100t61.5 -63.5t80 -21.5q47 0 86 24z" />
    <glyph glyph-name="aacute" unicode="&#xe1;" horiz-adv-x="630" 
d="M166.5 23q-54.5 33 -88 92.5t-33.5 134.5t33.5 134.5t88 92.5t115.5 33q67 0 114.5 -32.5t66.5 -73.5l15 96h70v-500h-69l-16 94q-19 -40 -66.5 -72t-114.5 -32q-61 0 -115.5 33zM384 89q39 24 61 66t22 95t-22 95t-61 66t-86 24q-42 0 -80 -21.5t-61.5 -63.5t-23.5 -100
t23.5 -100t61.5 -63.5t80 -21.5q47 0 86 24zM205 583l-18 54l202 80l30 -80z" />
    <glyph glyph-name="abreve" unicode="&#x103;" horiz-adv-x="630" 
d="M166.5 23q-54.5 33 -88 92.5t-33.5 134.5t33.5 134.5t88 92.5t115.5 33q67 0 114.5 -32.5t66.5 -73.5l15 96h70v-500h-69l-16 94q-19 -40 -66.5 -72t-114.5 -32q-61 0 -115.5 33zM384 89q39 24 61 66t22 95t-22 95t-61 66t-86 24q-42 0 -80 -21.5t-61.5 -63.5t-23.5 -100
t23.5 -100t61.5 -63.5t80 -21.5q47 0 86 24zM201.5 619q-35.5 33 -39.5 95h70q2 -34 17.5 -53t52.5 -19q61 0 66 72h71q-5 -61 -40 -94.5t-97 -33.5q-65 0 -100.5 33z" />
    <glyph glyph-name="acircumflex" unicode="&#xe2;" horiz-adv-x="630" 
d="M166.5 23q-54.5 33 -88 92.5t-33.5 134.5t33.5 134.5t88 92.5t115.5 33q67 0 114.5 -32.5t66.5 -73.5l15 96h70v-500h-69l-16 94q-19 -40 -66.5 -72t-114.5 -32q-61 0 -115.5 33zM384 89q39 24 61 66t22 95t-22 95t-61 66t-86 24q-42 0 -80 -21.5t-61.5 -63.5t-23.5 -100
t23.5 -100t61.5 -63.5t80 -21.5q47 0 86 24zM255 711h92l109 -125h-89l-66 76l-66 -76h-86z" />
    <glyph glyph-name="adieresis" unicode="&#xe4;" horiz-adv-x="630" 
d="M166.5 23q-54.5 33 -88 92.5t-33.5 134.5t33.5 134.5t88 92.5t115.5 33q67 0 114.5 -32.5t66.5 -73.5l15 96h70v-500h-69l-16 94q-19 -40 -66.5 -72t-114.5 -32q-61 0 -115.5 33zM384 89q39 24 61 66t22 95t-22 95t-61 66t-86 24q-42 0 -80 -21.5t-61.5 -63.5t-23.5 -100
t23.5 -100t61.5 -63.5t80 -21.5q47 0 86 24zM176.5 615q-15.5 15 -15.5 36t15.5 36.5t35.5 15.5q22 0 38 -15.5t16 -36.5t-16 -36t-38 -15q-20 0 -35.5 15zM354 615q-15 15 -15 36t15 36.5t36 15.5q22 0 37.5 -15.5t15.5 -36.5t-15.5 -36t-37.5 -15q-21 0 -36 15z" />
    <glyph glyph-name="uni1EA1" unicode="&#x1ea1;" horiz-adv-x="630" 
d="M166.5 23q-54.5 33 -88 92.5t-33.5 134.5t33.5 134.5t88 92.5t115.5 33q67 0 114.5 -32.5t66.5 -73.5l15 96h70v-500h-69l-16 94q-19 -40 -66.5 -72t-114.5 -32q-61 0 -115.5 33zM384 89q39 24 61 66t22 95t-22 95t-61 66t-86 24q-42 0 -80 -21.5t-61.5 -63.5t-23.5 -100
t23.5 -100t61.5 -63.5t80 -21.5q47 0 86 24zM260 -195.5q-17 16.5 -17 40.5t17 40.5t40 16.5t40 -16.5t17 -40.5t-17 -40.5t-40 -16.5t-40 16.5z" />
    <glyph glyph-name="agrave" unicode="&#xe0;" horiz-adv-x="630" 
d="M166.5 23q-54.5 33 -88 92.5t-33.5 134.5t33.5 134.5t88 92.5t115.5 33q67 0 114.5 -32.5t66.5 -73.5l15 96h70v-500h-69l-16 94q-19 -40 -66.5 -72t-114.5 -32q-61 0 -115.5 33zM384 89q39 24 61 66t22 95t-22 95t-61 66t-86 24q-42 0 -80 -21.5t-61.5 -63.5t-23.5 -100
t23.5 -100t61.5 -63.5t80 -21.5q47 0 86 24zM186 637l30 80l203 -80l-18 -54z" />
    <glyph glyph-name="amacron" unicode="&#x101;" horiz-adv-x="630" 
d="M166.5 23q-54.5 33 -88 92.5t-33.5 134.5t33.5 134.5t88 92.5t115.5 33q67 0 114.5 -32.5t66.5 -73.5l15 96h70v-500h-69l-16 94q-19 -40 -66.5 -72t-114.5 -32q-61 0 -115.5 33zM384 89q39 24 61 66t22 95t-22 95t-61 66t-86 24q-42 0 -80 -21.5t-61.5 -63.5t-23.5 -100
t23.5 -100t61.5 -63.5t80 -21.5q47 0 86 24zM182 683h242v-69h-242v69z" />
    <glyph glyph-name="aogonek" unicode="&#x105;" horiz-adv-x="630" 
d="M463 -51q-45 -35 -45 -67q0 -20 14.5 -31.5t37.5 -11.5q43 0 78 14v-69q-36 -14 -81 -14q-60 0 -92.5 24t-32.5 65q0 44 37.5 82.5t98.5 66.5l-15 86q-19 -40 -66.5 -72t-114.5 -32q-61 0 -115.5 33t-88 92.5t-33.5 134.5t33.5 134.5t88 92.5t115.5 33q67 0 114.5 -32.5
t66.5 -73.5l15 96h70v-500q-40 -16 -85 -51zM384 89q39 24 61 66t22 95t-22 95t-61 66t-86 24q-42 0 -80 -21.5t-61.5 -63.5t-23.5 -100t23.5 -100t61.5 -63.5t80 -21.5q47 0 86 24z" />
    <glyph glyph-name="aring" unicode="&#xe5;" horiz-adv-x="630" 
d="M166.5 23q-54.5 33 -88 92.5t-33.5 134.5t33.5 134.5t88 92.5t115.5 33q67 0 114.5 -32.5t66.5 -73.5l15 96h70v-500h-69l-16 94q-19 -40 -66.5 -72t-114.5 -32q-61 0 -115.5 33zM384 89q39 24 61 66t22 95t-22 95t-61 66t-86 24q-42 0 -80 -21.5t-61.5 -63.5t-23.5 -100
t23.5 -100t61.5 -63.5t80 -21.5q47 0 86 24zM390.5 770.5q36.5 -34.5 36.5 -83.5q0 -50 -36.5 -85t-87.5 -35t-87.5 35t-36.5 85q0 49 36.5 83.5t87.5 34.5t87.5 -34.5zM257 731q-19 -18 -19 -44q0 -27 19 -45.5t46 -18.5t46 18.5t19 45.5q0 26 -19 44t-46 18t-46 -18z" />
    <glyph glyph-name="aringacute" unicode="&#x1fb;" horiz-adv-x="630" 
d="M166.5 23q-54.5 33 -88 92.5t-33.5 134.5t33.5 134.5t88 92.5t115.5 33q67 0 114.5 -32.5t66.5 -73.5l15 96h70v-500h-69l-16 94q-19 -40 -66.5 -72t-114.5 -32q-61 0 -115.5 33zM384 89q39 24 61 66t22 95t-22 95t-61 66t-86 24q-42 0 -80 -21.5t-61.5 -63.5t-23.5 -100
t23.5 -100t61.5 -63.5t80 -21.5q47 0 86 24zM390.5 770.5q36.5 -34.5 36.5 -83.5q0 -50 -36.5 -85t-87.5 -35t-87.5 35t-36.5 85q0 49 36.5 83.5t87.5 34.5t87.5 -34.5zM257 731q-19 -18 -19 -44q0 -27 19 -45.5t46 -18.5t46 18.5t19 45.5q0 26 -19 44t-46 18t-46 -18z
M205 854l-18 54l202 80l30 -80z" />
    <glyph glyph-name="atilde" unicode="&#xe3;" horiz-adv-x="630" 
d="M166.5 23q-54.5 33 -88 92.5t-33.5 134.5t33.5 134.5t88 92.5t115.5 33q67 0 114.5 -32.5t66.5 -73.5l15 96h70v-500h-69l-16 94q-19 -40 -66.5 -72t-114.5 -32q-61 0 -115.5 33zM384 89q39 24 61 66t22 95t-22 95t-61 66t-86 24q-42 0 -80 -21.5t-61.5 -63.5t-23.5 -100
t23.5 -100t61.5 -63.5t80 -21.5q47 0 86 24zM318.5 596.5q-13.5 6.5 -29.5 17.5q-11 8 -18.5 12t-16.5 4q-15 0 -24.5 -10t-12.5 -30h-64q5 51 31 78.5t67 27.5q19 0 32 -6.5t29 -19.5q10 -9 17.5 -13.5t17.5 -4.5q15 0 25 12t12 32h67q-4 -51 -31.5 -78.5t-67.5 -27.5
q-20 0 -33.5 6.5z" />
    <glyph glyph-name="ae" unicode="&#xe6;" horiz-adv-x="878" 
d="M99.5 32.5q-50.5 41.5 -50.5 110.5q0 78 62 115t155 37h118v10q0 63 -38.5 97.5t-106.5 34.5q-43 0 -77.5 -16t-59.5 -38l-39 62q29 25 76 45t103 20q131 0 184 -109q23 48 69.5 78.5t114.5 30.5q64 0 115.5 -29.5t80.5 -84.5t29 -128q0 -25 -2 -34h-373q5 -74 50 -122.5
t116 -48.5q50 0 80.5 17.5t52.5 40.5l51 -59q-32 -30 -75 -51t-111 -21q-70 0 -123 34t-76 82q-19 -48 -68 -81.5t-126 -33.5q-81 0 -131.5 41.5zM709 399q-38 41 -99 41q-67 0 -105 -43.5t-44 -101.5h289q-3 63 -41 104zM344.5 96.5q39.5 38.5 39.5 107.5v30h-114
q-61 0 -98 -21.5t-37 -67.5q0 -42 29 -64.5t78 -22.5q63 0 102.5 38.5z" />
    <glyph glyph-name="aeacute" unicode="&#x1fd;" horiz-adv-x="878" 
d="M99.5 32.5q-50.5 41.5 -50.5 110.5q0 78 62 115t155 37h118v10q0 63 -38.5 97.5t-106.5 34.5q-43 0 -77.5 -16t-59.5 -38l-39 62q29 25 76 45t103 20q131 0 184 -109q23 48 69.5 78.5t114.5 30.5q64 0 115.5 -29.5t80.5 -84.5t29 -128q0 -25 -2 -34h-373q5 -74 50 -122.5
t116 -48.5q50 0 80.5 17.5t52.5 40.5l51 -59q-32 -30 -75 -51t-111 -21q-70 0 -123 34t-76 82q-19 -48 -68 -81.5t-126 -33.5q-81 0 -131.5 41.5zM709 399q-38 41 -99 41q-67 0 -105 -43.5t-44 -101.5h289q-3 63 -41 104zM344.5 96.5q39.5 38.5 39.5 107.5v30h-114
q-61 0 -98 -21.5t-37 -67.5q0 -42 29 -64.5t78 -22.5q63 0 102.5 38.5zM346 583l-18 54l202 80l30 -80z" />
    <glyph glyph-name="b" unicode="b" horiz-adv-x="630" 
d="M463.5 477q54.5 -33 88 -92.5t33.5 -134.5t-33.5 -134.5t-88 -92.5t-115.5 -33q-67 0 -114.5 32t-66.5 72l-16 -94h-69v720h86v-314q19 41 66.5 72.5t113.5 31.5q61 0 115.5 -33zM412 86.5q38 21.5 61.5 63.5t23.5 100t-23.5 100t-61.5 63.5t-80 21.5q-47 0 -86 -24
t-61 -66t-22 -95t22 -95t61 -66t86 -24q42 0 80 21.5z" />
    <glyph glyph-name="c" unicode="c" horiz-adv-x="532" 
d="M175 23.5q-60 33.5 -95 93t-35 133.5t35 133.5t95 93t132 33.5q68 0 117 -27.5t77 -64.5l-59 -53q-19 27 -53.5 48t-81.5 21q-49 0 -89 -23t-62.5 -65t-22.5 -96t22.5 -96t62.5 -65t89 -23q46 0 82.5 21.5t54.5 47.5l60 -55q-30 -36 -81 -63t-116 -27q-72 0 -132 33.5z
" />
    <glyph glyph-name="cacute" unicode="&#x107;" horiz-adv-x="532" 
d="M175 23.5q-60 33.5 -95 93t-35 133.5t35 133.5t95 93t132 33.5q68 0 117 -27.5t77 -64.5l-59 -53q-19 27 -53.5 48t-81.5 21q-49 0 -89 -23t-62.5 -65t-22.5 -96t22.5 -96t62.5 -65t89 -23q46 0 82.5 21.5t54.5 47.5l60 -55q-30 -36 -81 -63t-116 -27q-72 0 -132 33.5z
M205 583l-18 54l202 80l30 -80z" />
    <glyph glyph-name="ccaron" unicode="&#x10d;" horiz-adv-x="532" 
d="M175 23.5q-60 33.5 -95 93t-35 133.5t35 133.5t95 93t132 33.5q68 0 117 -27.5t77 -64.5l-59 -53q-19 27 -53.5 48t-81.5 21q-49 0 -89 -23t-62.5 -65t-22.5 -96t22.5 -96t62.5 -65t89 -23q46 0 82.5 21.5t54.5 47.5l60 -55q-30 -36 -81 -63t-116 -27q-72 0 -132 33.5z
M236 711l66 -74l65 74h88l-107 -125h-93l-106 125h87z" />
    <glyph glyph-name="ccedilla" unicode="&#xe7;" horiz-adv-x="532" 
d="M432.5 22q-44.5 -26 -102.5 -31l-6 -47q113 -10 113 -83q0 -43 -36.5 -67t-99.5 -24q-24 0 -48.5 3.5t-39.5 9.5v54q43 -15 85 -15q73 0 73 37q0 22 -27.5 32.5t-88.5 10.5l18 90q-65 8 -117 43t-81.5 91t-29.5 124q0 74 35 133.5t95 93t132 33.5q68 0 117 -27.5
t77 -64.5l-59 -53q-19 27 -53.5 48t-81.5 21q-49 0 -89 -23t-62.5 -65t-22.5 -96t22.5 -96t62.5 -65t89 -23q46 0 82.5 21.5t54.5 47.5l60 -55q-27 -32 -71.5 -58z" />
    <glyph glyph-name="ccircumflex" unicode="&#x109;" horiz-adv-x="532" 
d="M175 23.5q-60 33.5 -95 93t-35 133.5t35 133.5t95 93t132 33.5q68 0 117 -27.5t77 -64.5l-59 -53q-19 27 -53.5 48t-81.5 21q-49 0 -89 -23t-62.5 -65t-22.5 -96t22.5 -96t62.5 -65t89 -23q46 0 82.5 21.5t54.5 47.5l60 -55q-30 -36 -81 -63t-116 -27q-72 0 -132 33.5z
M255 711h92l109 -125h-89l-66 76l-66 -76h-86z" />
    <glyph glyph-name="cdotaccent" unicode="&#x10b;" horiz-adv-x="532" 
d="M175 23.5q-60 33.5 -95 93t-35 133.5t35 133.5t95 93t132 33.5q68 0 117 -27.5t77 -64.5l-59 -53q-19 27 -53.5 48t-81.5 21q-49 0 -89 -23t-62.5 -65t-22.5 -96t22.5 -96t62.5 -65t89 -23q46 0 82.5 21.5t54.5 47.5l60 -55q-30 -36 -81 -63t-116 -27q-72 0 -132 33.5z
M259 606q-18 17 -18 42q0 24 18 41t43 17t42.5 -17t17.5 -41q0 -25 -17.5 -42t-42.5 -17t-43 17z" />
    <glyph glyph-name="d" unicode="d" horiz-adv-x="630" 
d="M548 720v-720h-69l-16 94q-19 -40 -66.5 -72t-114.5 -32q-61 0 -115.5 33t-88 92.5t-33.5 134.5t33.5 134.5t88 92.5t115.5 33q66 0 113.5 -31.5t66.5 -72.5v314h86zM384 89q39 24 61 66t22 95t-22 95t-61 66t-86 24q-42 0 -80 -21.5t-61.5 -63.5t-23.5 -100t23.5 -100
t61.5 -63.5t80 -21.5q47 0 86 24z" />
    <glyph glyph-name="eth" unicode="&#xf0;" horiz-adv-x="599" 
d="M554 270q0 -82 -33.5 -145.5t-91.5 -99t-129 -35.5q-73 0 -131 34t-91 92t-33 128t33.5 127.5t90.5 90.5t123 33q46 0 84 -19t65 -51q-29 84 -107 169l-52 -49l-37 38l52 49q-41 37 -74 61l48 58q44 -33 81 -67l64 60l35 -39l-61 -58q164 -172 164 -377zM387 91.5
q38 23.5 60 64t22 89.5q0 50 -22 90.5t-60.5 63.5t-85.5 23t-85.5 -23.5t-60.5 -64.5t-22 -91q0 -49 21.5 -89t59.5 -63t87 -23q48 0 86 23.5z" />
    <glyph glyph-name="dcaron" unicode="&#x10f;" horiz-adv-x="675" 
d="M462 720h86v-720h-69l-16 94q-19 -40 -66.5 -72t-114.5 -32q-61 0 -115.5 33t-88 92.5t-33.5 134.5t33.5 134.5t88 92.5t115.5 33q66 0 113.5 -31.5t66.5 -72.5v314zM614 720h82l-35 -190h-63zM384 89q39 24 61 66t22 95t-22 95t-61 66t-86 24q-42 0 -80 -21.5
t-61.5 -63.5t-23.5 -100t23.5 -100t61.5 -63.5t80 -21.5q47 0 86 24z" />
    <glyph glyph-name="dcroat" unicode="&#x111;" horiz-adv-x="630" 
d="M596 584h-48v-584h-69l-16 94q-19 -40 -66.5 -72t-114.5 -32q-61 0 -115.5 33t-88 92.5t-33.5 134.5t33.5 134.5t88 92.5t115.5 33q66 0 113.5 -31.5t66.5 -72.5v178h-199v60h199v76h86v-76h48v-60zM384 89q39 24 61 66t22 95t-22 95t-61 66t-86 24q-42 0 -80 -21.5
t-61.5 -63.5t-23.5 -100t23.5 -100t61.5 -63.5t80 -21.5q47 0 86 24z" />
    <glyph glyph-name="e" unicode="e" horiz-adv-x="566" 
d="M521 226h-392q6 -78 53.5 -121t121.5 -43q47 0 85.5 20.5t60.5 45.5l50 -58q-31 -32 -82 -56t-114 -24q-75 0 -134 32t-92 91.5t-33 139.5q0 77 31 135.5t86 90t124 31.5q67 0 121 -30t85 -85.5t31 -129.5q0 -28 -2 -39zM394 400q-39 40 -108 40q-67 0 -108.5 -41
t-47.5 -111h307q-4 72 -43 112z" />
    <glyph glyph-name="eacute" unicode="&#xe9;" horiz-adv-x="566" 
d="M521 226h-392q6 -78 53.5 -121t121.5 -43q47 0 85.5 20.5t60.5 45.5l50 -58q-31 -32 -82 -56t-114 -24q-75 0 -134 32t-92 91.5t-33 139.5q0 77 31 135.5t86 90t124 31.5q67 0 121 -30t85 -85.5t31 -129.5q0 -28 -2 -39zM394 400q-39 40 -108 40q-67 0 -108.5 -41
t-47.5 -111h307q-4 72 -43 112zM190 583l-18 54l202 80l30 -80z" />
    <glyph glyph-name="ebreve" unicode="&#x115;" horiz-adv-x="566" 
d="M521 226h-392q6 -78 53.5 -121t121.5 -43q47 0 85.5 20.5t60.5 45.5l50 -58q-31 -32 -82 -56t-114 -24q-75 0 -134 32t-92 91.5t-33 139.5q0 77 31 135.5t86 90t124 31.5q67 0 121 -30t85 -85.5t31 -129.5q0 -28 -2 -39zM394 400q-39 40 -108 40q-67 0 -108.5 -41
t-47.5 -111h307q-4 72 -43 112zM186.5 619q-35.5 33 -39.5 95h70q2 -34 17.5 -53t52.5 -19q61 0 66 72h71q-5 -61 -40 -94.5t-97 -33.5q-65 0 -100.5 33z" />
    <glyph glyph-name="ecaron" unicode="&#x11b;" horiz-adv-x="566" 
d="M521 226h-392q6 -78 53.5 -121t121.5 -43q47 0 85.5 20.5t60.5 45.5l50 -58q-31 -32 -82 -56t-114 -24q-75 0 -134 32t-92 91.5t-33 139.5q0 77 31 135.5t86 90t124 31.5q67 0 121 -30t85 -85.5t31 -129.5q0 -28 -2 -39zM394 400q-39 40 -108 40q-67 0 -108.5 -41
t-47.5 -111h307q-4 72 -43 112zM221 711l66 -74l65 74h88l-107 -125h-93l-106 125h87z" />
    <glyph glyph-name="ecircumflex" unicode="&#xea;" horiz-adv-x="566" 
d="M521 226h-392q6 -78 53.5 -121t121.5 -43q47 0 85.5 20.5t60.5 45.5l50 -58q-31 -32 -82 -56t-114 -24q-75 0 -134 32t-92 91.5t-33 139.5q0 77 31 135.5t86 90t124 31.5q67 0 121 -30t85 -85.5t31 -129.5q0 -28 -2 -39zM394 400q-39 40 -108 40q-67 0 -108.5 -41
t-47.5 -111h307q-4 72 -43 112zM240 711h92l109 -125h-89l-66 76l-66 -76h-86z" />
    <glyph glyph-name="edieresis" unicode="&#xeb;" horiz-adv-x="566" 
d="M521 226h-392q6 -78 53.5 -121t121.5 -43q47 0 85.5 20.5t60.5 45.5l50 -58q-31 -32 -82 -56t-114 -24q-75 0 -134 32t-92 91.5t-33 139.5q0 77 31 135.5t86 90t124 31.5q67 0 121 -30t85 -85.5t31 -129.5q0 -28 -2 -39zM394 400q-39 40 -108 40q-67 0 -108.5 -41
t-47.5 -111h307q-4 72 -43 112zM161.5 615q-15.5 15 -15.5 36t15.5 36.5t35.5 15.5q22 0 38 -15.5t16 -36.5t-16 -36t-38 -15q-20 0 -35.5 15zM339 615q-15 15 -15 36t15 36.5t36 15.5q22 0 37.5 -15.5t15.5 -36.5t-15.5 -36t-37.5 -15q-21 0 -36 15z" />
    <glyph glyph-name="edotaccent" unicode="&#x117;" horiz-adv-x="566" 
d="M521 226h-392q6 -78 53.5 -121t121.5 -43q47 0 85.5 20.5t60.5 45.5l50 -58q-31 -32 -82 -56t-114 -24q-75 0 -134 32t-92 91.5t-33 139.5q0 77 31 135.5t86 90t124 31.5q67 0 121 -30t85 -85.5t31 -129.5q0 -28 -2 -39zM394 400q-39 40 -108 40q-67 0 -108.5 -41
t-47.5 -111h307q-4 72 -43 112zM245 606q-18 17 -18 42q0 24 18 41t43 17t42.5 -17t17.5 -41q0 -25 -17.5 -42t-42.5 -17t-43 17z" />
    <glyph glyph-name="uni1EB9" unicode="&#x1eb9;" horiz-adv-x="566" 
d="M521 226h-392q6 -78 53.5 -121t121.5 -43q47 0 85.5 20.5t60.5 45.5l50 -58q-31 -32 -82 -56t-114 -24q-75 0 -134 32t-92 91.5t-33 139.5q0 77 31 135.5t86 90t124 31.5q67 0 121 -30t85 -85.5t31 -129.5q0 -28 -2 -39zM394 400q-39 40 -108 40q-67 0 -108.5 -41
t-47.5 -111h307q-4 72 -43 112zM260 -195.5q-17 16.5 -17 40.5t17 40.5t40 16.5t40 -16.5t17 -40.5t-17 -40.5t-40 -16.5t-40 16.5z" />
    <glyph glyph-name="egrave" unicode="&#xe8;" horiz-adv-x="566" 
d="M521 226h-392q6 -78 53.5 -121t121.5 -43q47 0 85.5 20.5t60.5 45.5l50 -58q-31 -32 -82 -56t-114 -24q-75 0 -134 32t-92 91.5t-33 139.5q0 77 31 135.5t86 90t124 31.5q67 0 121 -30t85 -85.5t31 -129.5q0 -28 -2 -39zM394 400q-39 40 -108 40q-67 0 -108.5 -41
t-47.5 -111h307q-4 72 -43 112zM170 637l30 80l203 -80l-18 -54z" />
    <glyph glyph-name="emacron" unicode="&#x113;" horiz-adv-x="566" 
d="M521 226h-392q6 -78 53.5 -121t121.5 -43q47 0 85.5 20.5t60.5 45.5l50 -58q-31 -32 -82 -56t-114 -24q-75 0 -134 32t-92 91.5t-33 139.5q0 77 31 135.5t86 90t124 31.5q67 0 121 -30t85 -85.5t31 -129.5q0 -28 -2 -39zM394 400q-39 40 -108 40q-67 0 -108.5 -41
t-47.5 -111h307q-4 72 -43 112zM166 683h242v-69h-242v69z" />
    <glyph glyph-name="eogonek" unicode="&#x119;" horiz-adv-x="566" 
d="M521 226h-392q6 -78 53.5 -121t121.5 -43q47 0 85.5 20.5t60.5 45.5l50 -58q-22 -23 -57.5 -43.5t-78.5 -30.5q-41 -18 -81.5 -50.5t-40.5 -63.5q0 -20 14.5 -31.5t37.5 -11.5q43 0 78 14v-69q-36 -14 -81 -14q-60 0 -92.5 24t-32.5 65q0 37 28 71.5t76 61.5
q-101 11 -163 80.5t-62 180.5q0 77 31 135.5t86 90t124 31.5q67 0 121 -30t85 -85.5t31 -129.5q0 -28 -2 -39zM437 288q-4 72 -43 112t-108 40q-67 0 -108.5 -41t-47.5 -111h307z" />
    <glyph glyph-name="uni1EBD" unicode="&#x1ebd;" horiz-adv-x="566" 
d="M521 226h-392q6 -78 53.5 -121t121.5 -43q47 0 85.5 20.5t60.5 45.5l50 -58q-31 -32 -82 -56t-114 -24q-75 0 -134 32t-92 91.5t-33 139.5q0 77 31 135.5t86 90t124 31.5q67 0 121 -30t85 -85.5t31 -129.5q0 -28 -2 -39zM394 400q-39 40 -108 40q-67 0 -108.5 -41
t-47.5 -111h307q-4 72 -43 112zM303.5 596.5q-13.5 6.5 -29.5 17.5q-11 8 -18.5 12t-16.5 4q-15 0 -24.5 -10t-12.5 -30h-64q5 51 31 78.5t67 27.5q19 0 32 -6.5t29 -19.5q10 -9 17.5 -13.5t17.5 -4.5q15 0 25 12t12 32h67q-4 -51 -31.5 -78.5t-67.5 -27.5q-20 0 -33.5 6.5z
" />
    <glyph glyph-name="uni0259" unicode="&#x259;" horiz-adv-x="566" 
d="M45 274h392q-5 78 -53 121t-122 43q-47 0 -85.5 -20.5t-60.5 -45.5l-50 58q32 32 83 56t113 24q75 0 134 -32t92 -91.5t33 -139.5q0 -77 -31 -135.5t-86 -90t-124 -31.5q-67 0 -121 30t-85 85.5t-31 129.5q0 28 2 39zM172 100q39 -40 108 -40q67 0 108.5 41t47.5 111
h-307q4 -72 43 -112z" />
    <glyph glyph-name="f" unicode="f" horiz-adv-x="381" 
d="M11 428v72h118v79q0 68 42.5 109.5t106.5 41.5q29 0 54 -6.5t38 -13.5l-20 -72q-35 15 -62 15q-37 0 -55 -23.5t-18 -59.5v-70h154v-72h-154v-428h-86v428h-118z" />
    <glyph glyph-name="g" unicode="g" horiz-adv-x="569" 
d="M130.5 -202.5q-55.5 27.5 -91.5 64.5l50 60q27 -29 71 -53t100 -24q68 0 108.5 28.5t40.5 75.5q0 46 -39.5 71.5t-117.5 37.5q-91 14 -153.5 70t-62.5 155q0 62 30.5 114t84.5 82.5t123 30.5q18 0 43 -3t41 -7h177v-55l-95 -13q26 -20 47.5 -58t21.5 -91
q0 -68 -41.5 -119t-97.5 -71q55 -17 91 -53t36 -90q0 -51 -29 -92t-82.5 -64.5t-125.5 -23.5q-74 0 -129.5 27.5zM347.5 153q34.5 18 55.5 51.5t21 78.5q0 71 -43.5 112t-107.5 41q-65 0 -107.5 -41.5t-42.5 -111.5t43 -109t107 -39q40 0 74.5 18z" />
    <glyph glyph-name="gbreve" unicode="&#x11f;" horiz-adv-x="569" 
d="M130.5 -202.5q-55.5 27.5 -91.5 64.5l50 60q27 -29 71 -53t100 -24q68 0 108.5 28.5t40.5 75.5q0 46 -39.5 71.5t-117.5 37.5q-91 14 -153.5 70t-62.5 155q0 62 30.5 114t84.5 82.5t123 30.5q18 0 43 -3t41 -7h177v-55l-95 -13q26 -20 47.5 -58t21.5 -91
q0 -68 -41.5 -119t-97.5 -71q55 -17 91 -53t36 -90q0 -51 -29 -92t-82.5 -64.5t-125.5 -23.5q-74 0 -129.5 27.5zM347.5 153q34.5 18 55.5 51.5t21 78.5q0 71 -43.5 112t-107.5 41q-65 0 -107.5 -41.5t-42.5 -111.5t43 -109t107 -39q40 0 74.5 18zM184.5 619
q-35.5 33 -39.5 95h70q2 -34 17.5 -53t52.5 -19q61 0 66 72h71q-5 -61 -40 -94.5t-97 -33.5q-65 0 -100.5 33z" />
    <glyph glyph-name="gcaron" unicode="&#x1e7;" horiz-adv-x="569" 
d="M130.5 -202.5q-55.5 27.5 -91.5 64.5l50 60q27 -29 71 -53t100 -24q68 0 108.5 28.5t40.5 75.5q0 46 -39.5 71.5t-117.5 37.5q-91 14 -153.5 70t-62.5 155q0 62 30.5 114t84.5 82.5t123 30.5q18 0 43 -3t41 -7h177v-55l-95 -13q26 -20 47.5 -58t21.5 -91
q0 -68 -41.5 -119t-97.5 -71q55 -17 91 -53t36 -90q0 -51 -29 -92t-82.5 -64.5t-125.5 -23.5q-74 0 -129.5 27.5zM347.5 153q34.5 18 55.5 51.5t21 78.5q0 71 -43.5 112t-107.5 41q-65 0 -107.5 -41.5t-42.5 -111.5t43 -109t107 -39q40 0 74.5 18zM218 711l66 -74l65 74h88
l-107 -125h-93l-106 125h87z" />
    <glyph glyph-name="gcircumflex" unicode="&#x11d;" horiz-adv-x="569" 
d="M130.5 -202.5q-55.5 27.5 -91.5 64.5l50 60q27 -29 71 -53t100 -24q68 0 108.5 28.5t40.5 75.5q0 46 -39.5 71.5t-117.5 37.5q-91 14 -153.5 70t-62.5 155q0 62 30.5 114t84.5 82.5t123 30.5q18 0 43 -3t41 -7h177v-55l-95 -13q26 -20 47.5 -58t21.5 -91
q0 -68 -41.5 -119t-97.5 -71q55 -17 91 -53t36 -90q0 -51 -29 -92t-82.5 -64.5t-125.5 -23.5q-74 0 -129.5 27.5zM347.5 153q34.5 18 55.5 51.5t21 78.5q0 71 -43.5 112t-107.5 41q-65 0 -107.5 -41.5t-42.5 -111.5t43 -109t107 -39q40 0 74.5 18zM237 711h92l109 -125h-89
l-66 76l-66 -76h-86z" />
    <glyph glyph-name="uni0123" unicode="&#x123;" horiz-adv-x="569" 
d="M130.5 -202.5q-55.5 27.5 -91.5 64.5l50 60q27 -29 71 -53t100 -24q68 0 108.5 28.5t40.5 75.5q0 46 -39.5 71.5t-117.5 37.5q-91 14 -153.5 70t-62.5 155q0 62 30.5 114t84.5 82.5t123 30.5q18 0 43 -3t41 -7h177v-55l-95 -13q26 -20 47.5 -58t21.5 -91
q0 -68 -41.5 -119t-97.5 -71q55 -17 91 -53t36 -90q0 -51 -29 -92t-82.5 -64.5t-125.5 -23.5q-74 0 -129.5 27.5zM347.5 153q34.5 18 55.5 51.5t21 78.5q0 71 -43.5 112t-107.5 41q-65 0 -107.5 -41.5t-42.5 -111.5t43 -109t107 -39q40 0 74.5 18zM246 606q-15 16 -15 43
q0 28 23 60t55 61l26 -24q-35 -41 -42 -62q19 -2 31 -14t12 -31q0 -20 -14.5 -34.5t-37.5 -14.5t-38 16z" />
    <glyph glyph-name="gdotaccent" unicode="&#x121;" horiz-adv-x="569" 
d="M130.5 -202.5q-55.5 27.5 -91.5 64.5l50 60q27 -29 71 -53t100 -24q68 0 108.5 28.5t40.5 75.5q0 46 -39.5 71.5t-117.5 37.5q-91 14 -153.5 70t-62.5 155q0 62 30.5 114t84.5 82.5t123 30.5q18 0 43 -3t41 -7h177v-55l-95 -13q26 -20 47.5 -58t21.5 -91
q0 -68 -41.5 -119t-97.5 -71q55 -17 91 -53t36 -90q0 -51 -29 -92t-82.5 -64.5t-125.5 -23.5q-74 0 -129.5 27.5zM347.5 153q34.5 18 55.5 51.5t21 78.5q0 71 -43.5 112t-107.5 41q-65 0 -107.5 -41.5t-42.5 -111.5t43 -109t107 -39q40 0 74.5 18zM242 606q-18 17 -18 42
q0 24 18 41t43 17t42.5 -17t17.5 -41q0 -25 -17.5 -42t-42.5 -17t-43 17z" />
    <glyph glyph-name="h" unicode="h" horiz-adv-x="598" 
d="M469 458q51 -52 51 -142v-316h-85v301q0 65 -33.5 99.5t-87.5 34.5q-67 0 -106.5 -46t-39.5 -115v-274h-86v720h86v-313q18 42 59.5 72.5t105.5 30.5q85 0 136 -52z" />
    <glyph glyph-name="hbar" unicode="&#x127;" horiz-adv-x="598" 
d="M469 458q51 -52 51 -142v-316h-85v301q0 65 -33.5 99.5t-87.5 34.5q-67 0 -106.5 -46t-39.5 -115v-274h-86v584h-43v60h43v76h86v-76h204v-60h-204v-177q18 42 59.5 72.5t105.5 30.5q85 0 136 -52z" />
    <glyph glyph-name="hcircumflex" unicode="&#x125;" horiz-adv-x="598" 
d="M469 458q51 -52 51 -142v-316h-85v301q0 65 -33.5 99.5t-87.5 34.5q-67 0 -106.5 -46t-39.5 -115v-274h-86v720h86v-313q18 42 59.5 72.5t105.5 30.5q85 0 136 -52zM77 931h92l109 -125h-89l-66 76l-66 -76h-86z" />
    <glyph glyph-name="i" unicode="i" horiz-adv-x="250" 
d="M82 500h86v-500h-86v500zM82 606q-18 17 -18 42q0 24 18 41t43 17t42.5 -17t17.5 -41q0 -25 -17.5 -42t-42.5 -17t-43 17z" />
    <glyph glyph-name="dotlessi" unicode="&#x131;" horiz-adv-x="250" 
d="M82 500h86v-500h-86v500z" />
    <glyph glyph-name="iacute" unicode="&#xed;" horiz-adv-x="250" 
d="M82 500h86v-500h-86v500zM28 583l-18 54l202 80l30 -80z" />
    <glyph glyph-name="ibreve" unicode="&#x12d;" horiz-adv-x="250" 
d="M82 500h86v-500h-86v500zM24.5 619q-35.5 33 -39.5 95h70q2 -34 17.5 -53t52.5 -19q61 0 66 72h71q-5 -61 -40 -94.5t-97 -33.5q-65 0 -100.5 33z" />
    <glyph glyph-name="icircumflex" unicode="&#xee;" horiz-adv-x="250" 
d="M82 500h86v-500h-86v500zM78 711h92l109 -125h-89l-66 76l-66 -76h-86z" />
    <glyph glyph-name="idieresis" unicode="&#xef;" horiz-adv-x="250" 
d="M82 500h86v-500h-86v500zM-0.5 615q-15.5 15 -15.5 36t15.5 36.5t35.5 15.5q22 0 38 -15.5t16 -36.5t-16 -36t-38 -15q-20 0 -35.5 15zM177 615q-15 15 -15 36t15 36.5t36 15.5q22 0 37.5 -15.5t15.5 -36.5t-15.5 -36t-37.5 -15q-21 0 -36 15z" />
    <glyph glyph-name="uni1ECB" unicode="&#x1ecb;" horiz-adv-x="250" 
d="M82 500h86v-500h-86v500zM82 606q-18 17 -18 42q0 24 18 41t43 17t42.5 -17t17.5 -41q0 -25 -17.5 -42t-42.5 -17t-43 17zM85 -195.5q-17 16.5 -17 40.5t17 40.5t40 16.5t40 -16.5t17 -40.5t-17 -40.5t-40 -16.5t-40 16.5z" />
    <glyph glyph-name="igrave" unicode="&#xec;" horiz-adv-x="250" 
d="M82 500h86v-500h-86v500zM8 637l30 80l203 -80l-18 -54z" />
    <glyph glyph-name="imacron" unicode="&#x12b;" horiz-adv-x="250" 
d="M82 500h86v-500h-86v500zM4 683h242v-69h-242v69z" />
    <glyph glyph-name="iogonek" unicode="&#x12f;" horiz-adv-x="250" 
d="M82 606q-18 17 -18 42q0 24 18 41t43 17t42.5 -17t17.5 -41q0 -25 -17.5 -42t-42.5 -17t-43 17zM82 500h86v-500q-40 -16 -85 -51t-45 -67q0 -20 14.5 -31.5t37.5 -11.5q43 0 78 14v-69q-36 -14 -81 -14q-60 0 -92.5 24t-32.5 65t32.5 77.5t87.5 63.5v500z" />
    <glyph glyph-name="itilde" unicode="&#x129;" horiz-adv-x="250" 
d="M82 500h86v-500h-86v500zM141.5 596.5q-13.5 6.5 -29.5 17.5q-11 8 -18.5 12t-16.5 4q-15 0 -24.5 -10t-12.5 -30h-64q5 51 31 78.5t67 27.5q19 0 32 -6.5t29 -19.5q10 -9 17.5 -13.5t17.5 -4.5q15 0 25 12t12 32h67q-4 -51 -31.5 -78.5t-67.5 -27.5q-20 0 -33.5 6.5z
" />
    <glyph glyph-name="j" unicode="j" horiz-adv-x="259" 
d="M157 -158q-20 -35 -54 -53.5t-75 -18.5q-46 0 -86 21l22 66q26 -12 53 -12q36 0 55 23t19 62v570h86v-575q0 -48 -20 -83zM91 606q-18 17 -18 42q0 24 18 41t43 17t42.5 -17t17.5 -41q0 -25 -17.5 -42t-42.5 -17t-43 17z" />
    <glyph glyph-name="uni0237" unicode="&#x237;" horiz-adv-x="259" 
d="M157 -158q-20 -35 -54 -53.5t-75 -18.5q-46 0 -86 21l22 66q26 -12 53 -12q36 0 55 23t19 62v570h86v-575q0 -48 -20 -83z" />
    <glyph glyph-name="jcircumflex" unicode="&#x135;" horiz-adv-x="259" 
d="M157 -158q-20 -35 -54 -53.5t-75 -18.5q-46 0 -86 21l22 66q26 -12 53 -12q36 0 55 23t19 62v570h86v-575q0 -48 -20 -83zM86 711h92l109 -125h-89l-66 76l-66 -76h-86z" />
    <glyph glyph-name="k" unicode="k" horiz-adv-x="532" 
d="M417 0l-151 231h-98v-231h-86v720h86v-417h98l137 197h100l-167 -236l180 -264h-99z" />
    <glyph glyph-name="uni0137" unicode="&#x137;" horiz-adv-x="532" 
d="M417 0l-151 231h-98v-231h-86v720h86v-417h98l137 197h100l-167 -236l180 -264h-99zM318.5 -59q13.5 -13 13.5 -36q0 -32 -16.5 -67t-39.5 -62l-28 18q26 37 34 73q-21 2 -33 14t-12 30t13 30.5t33 12.5q22 0 35.5 -13z" />
    <glyph glyph-name="kgreenlandic" unicode="&#x138;" horiz-adv-x="532" 
d="M417 0l-151 231h-98v-231h-86v500h86v-197h98l137 197h100l-167 -236l180 -264h-99z" />
    <glyph glyph-name="l" unicode="l" horiz-adv-x="276" 
d="M102.5 22q-27.5 32 -27.5 85v613h86v-601q0 -24 10.5 -38t31.5 -14q14 0 29 5l14 -72q-28 -10 -56 -10q-60 0 -87.5 32z" />
    <glyph glyph-name="lacute" unicode="&#x13a;" horiz-adv-x="276" 
d="M102.5 22q-27.5 32 -27.5 85v613h86v-601q0 -24 10.5 -38t31.5 -14q14 0 29 5l14 -72q-28 -10 -56 -10q-60 0 -87.5 32zM22 803l-18 54l202 80l30 -80z" />
    <glyph glyph-name="lcaron" unicode="&#x13e;" horiz-adv-x="307" 
d="M102.5 22q-27.5 32 -27.5 85v613h86v-601q0 -24 10.5 -38t31.5 -14q14 0 29 5l14 -72q-28 -10 -56 -10q-60 0 -87.5 32zM227 720h82l-35 -190h-63z" />
    <glyph glyph-name="uni013C" unicode="&#x13c;" horiz-adv-x="276" 
d="M102.5 22q-27.5 32 -27.5 85v613h86v-601q0 -24 10.5 -38t31.5 -14q14 0 29 5l14 -72q-28 -10 -56 -10q-60 0 -87.5 32zM200.5 -59q13.5 -13 13.5 -36q0 -32 -16.5 -67t-39.5 -62l-28 18q26 37 34 73q-21 2 -33 14t-12 30t13 30.5t33 12.5q22 0 35.5 -13z" />
    <glyph glyph-name="ldot" unicode="&#x140;" horiz-adv-x="356" 
d="M102.5 22q-27.5 32 -27.5 85v613h86v-601q0 -24 10.5 -38t31.5 -14q14 0 29 5l14 -72q-28 -10 -56 -10q-60 0 -87.5 32zM235.5 318q-19.5 19 -19.5 46q0 26 19.5 44.5t47.5 18.5q27 0 46.5 -18.5t19.5 -44.5q0 -27 -19.5 -46t-46.5 -19q-28 0 -47.5 19z" />
    <glyph glyph-name="lslash" unicode="&#x142;" horiz-adv-x="279" 
d="M250 0q-28 -10 -56 -10q-60 0 -87.5 32t-27.5 85v225l-55 -22v67l55 22v321h85v-287l66 27v-67l-66 -27v-247q0 -24 10.5 -38t32.5 -14q14 0 29 5z" />
    <glyph glyph-name="m" unicode="m" horiz-adv-x="931" 
d="M151 500l15 -96q17 43 56.5 74.5t101.5 31.5q63 0 106 -30t62 -80q19 47 61.5 78.5t108.5 31.5q85 0 138 -48t53 -138v-324h-86v305q0 65 -31.5 97.5t-89.5 32.5q-65 0 -100.5 -42.5t-35.5 -108.5v-284h-85v302q0 62 -31.5 97.5t-89.5 35.5q-63 0 -99.5 -47t-36.5 -119
v-269h-86v500h69z" />
    <glyph glyph-name="n" unicode="n" horiz-adv-x="598" 
d="M151 500l15 -98q16 43 58.5 75.5t108.5 32.5q85 0 136 -52t51 -142v-316h-85v301q0 65 -33.5 99.5t-87.5 34.5q-67 0 -106.5 -46t-39.5 -115v-274h-86v500h69z" />
    <glyph glyph-name="nacute" unicode="&#x144;" horiz-adv-x="598" 
d="M151 500l15 -98q16 43 58.5 75.5t108.5 32.5q85 0 136 -52t51 -142v-316h-85v301q0 65 -33.5 99.5t-87.5 34.5q-67 0 -106.5 -46t-39.5 -115v-274h-86v500h69zM227 583l-18 54l202 80l30 -80z" />
    <glyph glyph-name="napostrophe" unicode="&#x149;" horiz-adv-x="622" 
d="M81.5 687.5q14.5 -15.5 14.5 -43.5q0 -33 -20 -74.5t-44 -67.5l-32 22q31 44 39 85q-18 2 -31 14t-13 31q0 21 14.5 35t35.5 14q22 0 36.5 -15.5zM190 402q16 43 58.5 75.5t108.5 32.5q85 0 136 -52t51 -142v-316h-85v301q0 65 -33 99.5t-87 34.5q-68 0 -107.5 -46
t-39.5 -115v-274h-85v500h68z" />
    <glyph glyph-name="ncaron" unicode="&#x148;" horiz-adv-x="598" 
d="M151 500l15 -98q16 43 58.5 75.5t108.5 32.5q85 0 136 -52t51 -142v-316h-85v301q0 65 -33.5 99.5t-87.5 34.5q-67 0 -106.5 -46t-39.5 -115v-274h-86v500h69zM258 711l66 -74l65 74h88l-107 -125h-93l-106 125h87z" />
    <glyph glyph-name="uni0146" unicode="&#x146;" horiz-adv-x="598" 
d="M151 500l15 -98q16 43 58.5 75.5t108.5 32.5q85 0 136 -52t51 -142v-316h-85v301q0 65 -33.5 99.5t-87.5 34.5q-67 0 -106.5 -46t-39.5 -115v-274h-86v500h69zM341.5 -59q13.5 -13 13.5 -36q0 -32 -16.5 -67t-39.5 -62l-28 18q26 37 34 73q-21 2 -33 14t-12 30t13 30.5
t33 12.5q22 0 35.5 -13z" />
    <glyph glyph-name="eng" unicode="&#x14b;" horiz-adv-x="598" 
d="M469 458q51 -52 51 -142v-391q0 -70 -43.5 -112.5t-112.5 -42.5q-30 0 -57.5 7t-44.5 15l20 70q11 -7 30.5 -12t38.5 -5q44 0 64 24.5t20 63.5v368q0 65 -33.5 99.5t-87.5 34.5q-67 0 -106.5 -46t-39.5 -115v-274h-86v500h69l15 -98q16 43 58.5 75.5t108.5 32.5
q85 0 136 -52z" />
    <glyph glyph-name="uni0272" unicode="&#x272;" horiz-adv-x="598" 
d="M469 458q51 -52 51 -142v-316h-85v301q0 65 -33.5 99.5t-87.5 34.5q-67 0 -106.5 -46t-39.5 -115v-349q0 -70 -44 -112.5t-113 -42.5q-30 0 -57 7t-45 15l20 70q12 -7 31.5 -12t37.5 -5q44 0 64 24.5t20 63.5v567h69l15 -98q16 43 58.5 75.5t108.5 32.5q85 0 136 -52z
" />
    <glyph glyph-name="ntilde" unicode="&#xf1;" horiz-adv-x="598" 
d="M151 500l15 -98q16 43 58.5 75.5t108.5 32.5q85 0 136 -52t51 -142v-316h-85v301q0 65 -33.5 99.5t-87.5 34.5q-67 0 -106.5 -46t-39.5 -115v-274h-86v500h69zM340.5 596.5q-13.5 6.5 -29.5 17.5q-11 8 -18.5 12t-16.5 4q-15 0 -24.5 -10t-12.5 -30h-64q5 51 31 78.5
t67 27.5q19 0 32 -6.5t29 -19.5q10 -9 17.5 -13.5t17.5 -4.5q15 0 25 12t12 32h67q-4 -51 -31.5 -78.5t-67.5 -27.5q-20 0 -33.5 6.5z" />
    <glyph glyph-name="o" unicode="o" horiz-adv-x="611" 
d="M175.5 23q-59.5 33 -95 92.5t-35.5 134.5t35.5 134.5t95 92.5t129.5 33q71 0 131 -33t95 -92t35 -135t-35 -135t-95 -92t-131 -33q-70 0 -129.5 33zM392.5 89.5q39.5 23.5 62.5 65.5t23 95t-23 95t-62.5 65.5t-87.5 23.5t-87 -23.5t-62 -65.5t-23 -95t23 -95t62 -65.5
t87 -23.5t87.5 23.5z" />
    <glyph glyph-name="oacute" unicode="&#xf3;" horiz-adv-x="611" 
d="M175.5 23q-59.5 33 -95 92.5t-35.5 134.5t35.5 134.5t95 92.5t129.5 33q71 0 131 -33t95 -92t35 -135t-35 -135t-95 -92t-131 -33q-70 0 -129.5 33zM392.5 89.5q39.5 23.5 62.5 65.5t23 95t-23 95t-62.5 65.5t-87.5 23.5t-87 -23.5t-62 -65.5t-23 -95t23 -95t62 -65.5
t87 -23.5t87.5 23.5zM208 583l-18 54l202 80l30 -80z" />
    <glyph glyph-name="obreve" unicode="&#x14f;" horiz-adv-x="611" 
d="M175.5 23q-59.5 33 -95 92.5t-35.5 134.5t35.5 134.5t95 92.5t129.5 33q71 0 131 -33t95 -92t35 -135t-35 -135t-95 -92t-131 -33q-70 0 -129.5 33zM392.5 89.5q39.5 23.5 62.5 65.5t23 95t-23 95t-62.5 65.5t-87.5 23.5t-87 -23.5t-62 -65.5t-23 -95t23 -95t62 -65.5
t87 -23.5t87.5 23.5zM204.5 619q-35.5 33 -39.5 95h70q2 -34 17.5 -53t52.5 -19q61 0 66 72h71q-5 -61 -40 -94.5t-97 -33.5q-65 0 -100.5 33z" />
    <glyph glyph-name="ocircumflex" unicode="&#xf4;" horiz-adv-x="611" 
d="M175.5 23q-59.5 33 -95 92.5t-35.5 134.5t35.5 134.5t95 92.5t129.5 33q71 0 131 -33t95 -92t35 -135t-35 -135t-95 -92t-131 -33q-70 0 -129.5 33zM392.5 89.5q39.5 23.5 62.5 65.5t23 95t-23 95t-62.5 65.5t-87.5 23.5t-87 -23.5t-62 -65.5t-23 -95t23 -95t62 -65.5
t87 -23.5t87.5 23.5zM258 711h92l109 -125h-89l-66 76l-66 -76h-86z" />
    <glyph glyph-name="odieresis" unicode="&#xf6;" horiz-adv-x="611" 
d="M175.5 23q-59.5 33 -95 92.5t-35.5 134.5t35.5 134.5t95 92.5t129.5 33q71 0 131 -33t95 -92t35 -135t-35 -135t-95 -92t-131 -33q-70 0 -129.5 33zM392.5 89.5q39.5 23.5 62.5 65.5t23 95t-23 95t-62.5 65.5t-87.5 23.5t-87 -23.5t-62 -65.5t-23 -95t23 -95t62 -65.5
t87 -23.5t87.5 23.5zM179.5 615q-15.5 15 -15.5 36t15.5 36.5t35.5 15.5q22 0 38 -15.5t16 -36.5t-16 -36t-38 -15q-20 0 -35.5 15zM357 615q-15 15 -15 36t15 36.5t36 15.5q22 0 37.5 -15.5t15.5 -36.5t-15.5 -36t-37.5 -15q-21 0 -36 15z" />
    <glyph glyph-name="uni1ECD" unicode="&#x1ecd;" horiz-adv-x="611" 
d="M175.5 23q-59.5 33 -95 92.5t-35.5 134.5t35.5 134.5t95 92.5t129.5 33q71 0 131 -33t95 -92t35 -135t-35 -135t-95 -92t-131 -33q-70 0 -129.5 33zM392.5 89.5q39.5 23.5 62.5 65.5t23 95t-23 95t-62.5 65.5t-87.5 23.5t-87 -23.5t-62 -65.5t-23 -95t23 -95t62 -65.5
t87 -23.5t87.5 23.5zM265 -195.5q-17 16.5 -17 40.5t17 40.5t40 16.5t40 -16.5t17 -40.5t-17 -40.5t-40 -16.5t-40 16.5z" />
    <glyph glyph-name="ograve" unicode="&#xf2;" horiz-adv-x="611" 
d="M175.5 23q-59.5 33 -95 92.5t-35.5 134.5t35.5 134.5t95 92.5t129.5 33q71 0 131 -33t95 -92t35 -135t-35 -135t-95 -92t-131 -33q-70 0 -129.5 33zM392.5 89.5q39.5 23.5 62.5 65.5t23 95t-23 95t-62.5 65.5t-87.5 23.5t-87 -23.5t-62 -65.5t-23 -95t23 -95t62 -65.5
t87 -23.5t87.5 23.5zM188 637l30 80l203 -80l-18 -54z" />
    <glyph glyph-name="ohungarumlaut" unicode="&#x151;" horiz-adv-x="611" 
d="M175.5 23q-59.5 33 -95 92.5t-35.5 134.5t35.5 134.5t95 92.5t129.5 33q71 0 131 -33t95 -92t35 -135t-35 -135t-95 -92t-131 -33q-70 0 -129.5 33zM392.5 89.5q39.5 23.5 62.5 65.5t23 95t-23 95t-62.5 65.5t-87.5 23.5t-87 -23.5t-62 -65.5t-23 -95t23 -95t62 -65.5
t87 -23.5t87.5 23.5zM157 605l108 106l52 -59l-124 -85zM327 604l107 106l52 -59l-124 -85z" />
    <glyph glyph-name="omacron" unicode="&#x14d;" horiz-adv-x="611" 
d="M175.5 23q-59.5 33 -95 92.5t-35.5 134.5t35.5 134.5t95 92.5t129.5 33q71 0 131 -33t95 -92t35 -135t-35 -135t-95 -92t-131 -33q-70 0 -129.5 33zM392.5 89.5q39.5 23.5 62.5 65.5t23 95t-23 95t-62.5 65.5t-87.5 23.5t-87 -23.5t-62 -65.5t-23 -95t23 -95t62 -65.5
t87 -23.5t87.5 23.5zM184 683h242v-69h-242v69z" />
    <glyph glyph-name="uni01EB" unicode="&#x1eb;" horiz-adv-x="611" 
d="M277 -57q-38 -32 -38 -61q0 -20 14.5 -31.5t37.5 -11.5q43 0 78 14v-69q-36 -14 -81 -14q-60 0 -92.5 24t-32.5 65q0 38 28.5 72.5t76.5 60.5q-62 9 -113 43.5t-80.5 90t-29.5 124.5q0 75 35.5 134.5t95 92.5t129.5 33q71 0 131 -33t95 -92t35 -135q0 -66 -27.5 -120
t-75 -89t-106.5 -46q-42 -20 -80 -52zM156 155q23 -42 62 -65.5t87 -23.5t87.5 23.5t62.5 65.5t23 95t-23 95t-62.5 65.5t-87.5 23.5t-87 -23.5t-62 -65.5t-23 -95t23 -95z" />
    <glyph glyph-name="oslash" unicode="&#xf8;" horiz-adv-x="622" 
d="M503 428q32 -35 50 -80t18 -98q0 -75 -35.5 -134.5t-95.5 -92.5t-130 -33q-81 0 -146 42l-72 -84l-43 38l71 83q-34 35 -52.5 81t-18.5 100q0 75 35.5 134.5t95.5 92.5t130 33q81 0 149 -44l71 83l44 -38zM174 133l233 272q-45 29 -97 29q-48 0 -87.5 -23.5t-62.5 -65.5
t-23 -95q0 -67 37 -117zM448 364l-232 -271q43 -27 94 -27q48 0 87.5 23.5t62.5 65.5t23 95q0 65 -35 114z" />
    <glyph glyph-name="oslashacute" unicode="&#x1ff;" horiz-adv-x="622" 
d="M503 428q32 -35 50 -80t18 -98q0 -75 -35.5 -134.5t-95.5 -92.5t-130 -33q-81 0 -146 42l-72 -84l-43 38l71 83q-34 35 -52.5 81t-18.5 100q0 75 35.5 134.5t95.5 92.5t130 33q81 0 149 -44l71 83l44 -38zM174 133l233 272q-45 29 -97 29q-48 0 -87.5 -23.5t-62.5 -65.5
t-23 -95q0 -67 37 -117zM448 364l-232 -271q43 -27 94 -27q48 0 87.5 23.5t62.5 65.5t23 95q0 65 -35 114zM209 583l-18 54l202 80l30 -80z" />
    <glyph glyph-name="otilde" unicode="&#xf5;" horiz-adv-x="611" 
d="M175.5 23q-59.5 33 -95 92.5t-35.5 134.5t35.5 134.5t95 92.5t129.5 33q71 0 131 -33t95 -92t35 -135t-35 -135t-95 -92t-131 -33q-70 0 -129.5 33zM392.5 89.5q39.5 23.5 62.5 65.5t23 95t-23 95t-62.5 65.5t-87.5 23.5t-87 -23.5t-62 -65.5t-23 -95t23 -95t62 -65.5
t87 -23.5t87.5 23.5zM321.5 596.5q-13.5 6.5 -29.5 17.5q-11 8 -18.5 12t-16.5 4q-15 0 -24.5 -10t-12.5 -30h-64q5 51 31 78.5t67 27.5q19 0 32 -6.5t29 -19.5q10 -9 17.5 -13.5t17.5 -4.5q15 0 25 12t12 32h67q-4 -51 -31.5 -78.5t-67.5 -27.5q-20 0 -33.5 6.5z" />
    <glyph glyph-name="oe" unicode="&#x153;" horiz-adv-x="996" 
d="M951 226h-392q5 -78 53 -121t122 -43q47 0 85.5 20.5t60.5 45.5l50 -58q-32 -32 -83 -56t-113 -24q-75 0 -134 31.5t-91 89.5q-30 -57 -84.5 -89t-122.5 -32q-69 0 -128 33t-94 92.5t-35 134.5t35 134t94 92.5t128 33.5q67 0 120.5 -31.5t84.5 -87.5q31 57 85.5 88
t123.5 31q67 0 121 -30t85 -85.5t31 -129.5q0 -17 -2 -39zM867 288q-4 72 -43 112t-108 40q-67 0 -108.5 -41t-47.5 -111h307zM388.5 89.5q38.5 23.5 61.5 65.5t23 95q0 52 -22.5 94t-61.5 66t-85 24q-47 0 -86.5 -23.5t-62 -65.5t-22.5 -95q0 -54 23 -96t62 -65t86 -23
q46 0 84.5 23.5z" />
    <glyph glyph-name="p" unicode="p" horiz-adv-x="630" 
d="M463.5 477q54.5 -33 88 -92.5t33.5 -134.5t-33.5 -134.5t-88 -92.5t-115.5 -33q-66 0 -113.5 31.5t-66.5 72.5v-314h-86v720h69l16 -94q19 40 66.5 72t114.5 32q61 0 115.5 -33zM412 86.5q38 21.5 61.5 63.5t23.5 100t-23.5 100t-61.5 63.5t-80 21.5q-47 0 -86 -24
t-61 -66t-22 -95t22 -95t61 -66t86 -24q42 0 80 21.5z" />
    <glyph glyph-name="thorn" unicode="&#xfe;" horiz-adv-x="630" 
d="M463.5 477q54.5 -33 88 -92.5t33.5 -134.5t-33.5 -134.5t-88 -92.5t-115.5 -33q-66 0 -113.5 31.5t-66.5 72.5v-314h-86v940h86v-312q20 39 67 70.5t113 31.5q61 0 115.5 -33zM412 86.5q38 21.5 61.5 63.5t23.5 100t-23.5 100t-61.5 63.5t-80 21.5q-47 0 -86 -24t-61 -66
t-22 -95t22 -95t61 -66t86 -24q42 0 80 21.5z" />
    <glyph glyph-name="q" unicode="q" horiz-adv-x="630" 
d="M548 500v-720h-86v314q-19 -41 -66.5 -72.5t-113.5 -31.5q-61 0 -115.5 33t-88 92.5t-33.5 134.5t33.5 134.5t88 92.5t115.5 33q67 0 114.5 -32t66.5 -72l16 94h69zM384 89q39 24 61 66t22 95t-22 95t-61 66t-86 24q-42 0 -80 -21.5t-61.5 -63.5t-23.5 -100t23.5 -100
t61.5 -63.5t80 -21.5q47 0 86 24z" />
    <glyph glyph-name="r" unicode="r" horiz-adv-x="356" 
d="M151 500l15 -94q16 47 48 75.5t80 28.5q23 0 36 -4l-7 -85q-20 4 -36 4q-31 0 -58.5 -18t-44.5 -51t-17 -75v-281h-85v500h69z" />
    <glyph glyph-name="racute" unicode="&#x155;" horiz-adv-x="356" 
d="M151 500l15 -94q16 47 48 75.5t80 28.5q23 0 36 -4l-7 -85q-20 4 -36 4q-31 0 -58.5 -18t-44.5 -51t-17 -75v-281h-85v500h69zM115 583l-18 54l202 80l30 -80z" />
    <glyph glyph-name="rcaron" unicode="&#x159;" horiz-adv-x="356" 
d="M151 500l15 -94q16 47 48 75.5t80 28.5q23 0 36 -4l-7 -85q-20 4 -36 4q-31 0 -58.5 -18t-44.5 -51t-17 -75v-281h-85v500h69zM146 711l66 -74l65 74h88l-107 -125h-93l-106 125h87z" />
    <glyph glyph-name="uni0157" unicode="&#x157;" horiz-adv-x="356" 
d="M151 500l15 -94q16 47 48 75.5t80 28.5q23 0 36 -4l-7 -85q-20 4 -36 4q-31 0 -58.5 -18t-44.5 -51t-17 -75v-281h-85v500h69zM159.5 -59q13.5 -13 13.5 -36q0 -32 -16.5 -67t-39.5 -62l-28 18q26 37 34 73q-21 2 -33 14t-12 30t13 30.5t33 12.5q22 0 35.5 -13z" />
    <glyph glyph-name="s" unicode="s" horiz-adv-x="441" 
d="M115.5 12.5q-47.5 22.5 -75.5 50.5l44 60q26 -25 62 -44.5t75 -19.5q48 0 73 21.5t25 55.5q0 38 -23 54t-66 27l-46 13q-62 16 -96 47.5t-34 92.5q0 38 22.5 70t63 51t93.5 19q51 0 94 -16t67 -34l-35 -63q-23 17 -56 30.5t-70 13.5q-42 0 -68 -19t-26 -48
q0 -33 19 -48.5t58 -25.5l54 -14q65 -17 100 -50t35 -95q0 -41 -23 -76t-65 -55t-96 -20q-58 0 -105.5 22.5z" />
    <glyph glyph-name="sacute" unicode="&#x15b;" horiz-adv-x="441" 
d="M115.5 12.5q-47.5 22.5 -75.5 50.5l44 60q26 -25 62 -44.5t75 -19.5q48 0 73 21.5t25 55.5q0 38 -23 54t-66 27l-46 13q-62 16 -96 47.5t-34 92.5q0 38 22.5 70t63 51t93.5 19q51 0 94 -16t67 -34l-35 -63q-23 17 -56 30.5t-70 13.5q-42 0 -68 -19t-26 -48
q0 -33 19 -48.5t58 -25.5l54 -14q65 -17 100 -50t35 -95q0 -41 -23 -76t-65 -55t-96 -20q-58 0 -105.5 22.5zM137 582l-18 54l202 80l30 -80z" />
    <glyph glyph-name="scaron" unicode="&#x161;" horiz-adv-x="441" 
d="M115.5 12.5q-47.5 22.5 -75.5 50.5l44 60q26 -25 62 -44.5t75 -19.5q48 0 73 21.5t25 55.5q0 38 -23 54t-66 27l-46 13q-62 16 -96 47.5t-34 92.5q0 38 22.5 70t63 51t93.5 19q51 0 94 -16t67 -34l-35 -63q-23 17 -56 30.5t-70 13.5q-42 0 -68 -19t-26 -48
q0 -33 19 -48.5t58 -25.5l54 -14q65 -17 100 -50t35 -95q0 -41 -23 -76t-65 -55t-96 -20q-58 0 -105.5 22.5zM167 710l66 -74l65 74h88l-107 -125h-93l-106 125h87z" />
    <glyph glyph-name="scedilla" unicode="&#x15f;" horiz-adv-x="441" 
d="M361.5 41q-43.5 -42 -113.5 -50l-6 -47q113 -10 113 -83q0 -43 -36.5 -67t-99.5 -24q-24 0 -48.5 3.5t-39.5 9.5v54q43 -15 85 -15q73 0 73 37q0 22 -27.5 32.5t-88.5 10.5l18 90q-48 5 -87.5 26t-63.5 45l44 60q26 -25 62 -44.5t75 -19.5q48 0 73 21.5t25 55.5
q0 38 -23 54t-66 27l-46 13q-62 16 -96 47.5t-34 92.5q0 38 22.5 70t63 51t93.5 19q51 0 94 -16t67 -34l-35 -63q-23 17 -56 30.5t-70 13.5q-42 0 -68 -19t-26 -48q0 -33 19 -48.5t58 -25.5l54 -14q65 -17 100 -50t35 -95q0 -58 -43.5 -100z" />
    <glyph glyph-name="scircumflex" unicode="&#x15d;" horiz-adv-x="441" 
d="M115.5 12.5q-47.5 22.5 -75.5 50.5l44 60q26 -25 62 -44.5t75 -19.5q48 0 73 21.5t25 55.5q0 38 -23 54t-66 27l-46 13q-62 16 -96 47.5t-34 92.5q0 38 22.5 70t63 51t93.5 19q51 0 94 -16t67 -34l-35 -63q-23 17 -56 30.5t-70 13.5q-42 0 -68 -19t-26 -48
q0 -33 19 -48.5t58 -25.5l54 -14q65 -17 100 -50t35 -95q0 -41 -23 -76t-65 -55t-96 -20q-58 0 -105.5 22.5zM186 710h92l109 -125h-89l-66 76l-66 -76h-86z" />
    <glyph glyph-name="uni0219" unicode="&#x219;" horiz-adv-x="441" 
d="M115.5 12.5q-47.5 22.5 -75.5 50.5l44 60q26 -25 62 -44.5t75 -19.5q48 0 73 21.5t25 55.5q0 38 -23 54t-66 27l-46 13q-62 16 -96 47.5t-34 92.5q0 38 22.5 70t63 51t93.5 19q51 0 94 -16t67 -34l-35 -63q-23 17 -56 30.5t-70 13.5q-42 0 -68 -19t-26 -48
q0 -33 19 -48.5t58 -25.5l54 -14q65 -17 100 -50t35 -95q0 -41 -23 -76t-65 -55t-96 -20q-58 0 -105.5 22.5zM256.5 -59q13.5 -13 13.5 -36q0 -32 -16.5 -67t-39.5 -62l-28 18q26 37 34 73q-21 2 -33 14t-12 30t13 30.5t33 12.5q22 0 35.5 -13z" />
    <glyph glyph-name="germandbls" unicode="&#xdf;" horiz-adv-x="583" 
d="M107 624.5q25 48.5 74 77t118 28.5q62 0 111.5 -24t77 -66.5t27.5 -96.5q0 -44 -19.5 -79t-49 -57.5t-59.5 -31.5q36 -9 71 -32.5t58 -61.5t23 -86q0 -62 -30.5 -108.5t-82.5 -71.5t-115 -25q-59 0 -107 17l16 70q35 -14 80 -14q65 0 107.5 37t42.5 97q0 46 -24 77
t-60.5 46.5t-73.5 15.5h-47v73h41q34 0 66.5 15.5t53.5 44.5t21 68q0 56 -37 88.5t-91 32.5q-61 0 -96.5 -41.5t-35.5 -108.5v-508h-85v517q0 59 25 107.5z" />
    <glyph glyph-name="t" unicode="t" horiz-adv-x="451" 
d="M179 35.5q-45 45.5 -45 129.5v263h-124v72h126v155h84v-155h203v-72h-203v-251q0 -54 24.5 -82.5t66.5 -28.5q41 0 90 28l31 -67q-18 -13 -53 -25t-75 -12q-80 0 -125 45.5z" />
    <glyph glyph-name="tbar" unicode="&#x167;" horiz-adv-x="482" 
d="M451 27q-20 -13 -54.5 -25t-74.5 -12q-79 0 -124 45.5t-45 129.5v82h-124v65h124v116h-124v72h125v155h84v-155h204v-72h-204v-116h199v-65h-199v-70q0 -54 24.5 -82.5t67.5 -28.5q41 0 90 28z" />
    <glyph glyph-name="tcaron" unicode="&#x165;" horiz-adv-x="451" 
d="M324 720h81l-35 -170h-58zM179 35.5q-45 45.5 -45 129.5v263h-124v72h126v155h84v-155h203v-72h-203v-251q0 -54 24.5 -82.5t66.5 -28.5q41 0 90 28l31 -67q-18 -13 -53 -25t-75 -12q-80 0 -125 45.5z" />
    <glyph glyph-name="uni0163" unicode="&#x163;" horiz-adv-x="451" 
d="M421 -139q0 -43 -36.5 -67t-99.5 -24q-24 0 -48.5 3.5t-39.5 9.5v54q43 -15 85 -15q73 0 73 37q0 22 -27.5 32.5t-88.5 10.5l18 93q-59 12 -91 55.5t-32 114.5v263h-124v72h126v155h84v-155h203v-72h-203v-251q0 -54 24.5 -82.5t66.5 -28.5q41 0 90 28l31 -67
q-17 -12 -49 -23.5t-69 -13.5l-6 -46q113 -10 113 -83z" />
    <glyph glyph-name="uni021B" unicode="&#x21b;" horiz-adv-x="451" 
d="M179 35.5q-45 45.5 -45 129.5v263h-124v72h126v155h84v-155h203v-72h-203v-251q0 -54 24.5 -82.5t66.5 -28.5q41 0 90 28l31 -67q-18 -13 -53 -25t-75 -12q-80 0 -125 45.5zM322.5 -59q13.5 -13 13.5 -36q0 -32 -16.5 -67t-39.5 -62l-28 18q26 37 34 73q-21 2 -33 14
t-12 30t13 30.5t33 12.5q22 0 35.5 -13z" />
    <glyph glyph-name="u" unicode="u" horiz-adv-x="581" 
d="M129.5 47.5q-60.5 57.5 -60.5 155.5v297h85v-298q0 -63 38.5 -99.5t98.5 -36.5t98 36t38 100v298h85v-297q0 -98 -60.5 -155.5t-160.5 -57.5q-101 0 -161.5 57.5z" />
    <glyph glyph-name="uacute" unicode="&#xfa;" horiz-adv-x="581" 
d="M129.5 47.5q-60.5 57.5 -60.5 155.5v297h85v-298q0 -63 38.5 -99.5t98.5 -36.5t98 36t38 100v298h85v-297q0 -98 -60.5 -155.5t-160.5 -57.5q-101 0 -161.5 57.5zM193 583l-18 54l202 80l30 -80z" />
    <glyph glyph-name="ubreve" unicode="&#x16d;" horiz-adv-x="581" 
d="M129.5 47.5q-60.5 57.5 -60.5 155.5v297h85v-298q0 -63 38.5 -99.5t98.5 -36.5t98 36t38 100v298h85v-297q0 -98 -60.5 -155.5t-160.5 -57.5q-101 0 -161.5 57.5zM189.5 619q-35.5 33 -39.5 95h70q2 -34 17.5 -53t52.5 -19q61 0 66 72h71q-5 -61 -40 -94.5t-97 -33.5
q-65 0 -100.5 33z" />
    <glyph glyph-name="ucircumflex" unicode="&#xfb;" horiz-adv-x="581" 
d="M129.5 47.5q-60.5 57.5 -60.5 155.5v297h85v-298q0 -63 38.5 -99.5t98.5 -36.5t98 36t38 100v298h85v-297q0 -98 -60.5 -155.5t-160.5 -57.5q-101 0 -161.5 57.5zM243 711h92l109 -125h-89l-66 76l-66 -76h-86z" />
    <glyph glyph-name="udieresis" unicode="&#xfc;" horiz-adv-x="581" 
d="M129.5 47.5q-60.5 57.5 -60.5 155.5v297h85v-298q0 -63 38.5 -99.5t98.5 -36.5t98 36t38 100v298h85v-297q0 -98 -60.5 -155.5t-160.5 -57.5q-101 0 -161.5 57.5zM164.5 615q-15.5 15 -15.5 36t15.5 36.5t35.5 15.5q22 0 38 -15.5t16 -36.5t-16 -36t-38 -15
q-20 0 -35.5 15zM342 615q-15 15 -15 36t15 36.5t36 15.5q22 0 37.5 -15.5t15.5 -36.5t-15.5 -36t-37.5 -15q-21 0 -36 15z" />
    <glyph glyph-name="uni1EE5" unicode="&#x1ee5;" horiz-adv-x="581" 
d="M129.5 47.5q-60.5 57.5 -60.5 155.5v297h85v-298q0 -63 38.5 -99.5t98.5 -36.5t98 36t38 100v298h85v-297q0 -98 -60.5 -155.5t-160.5 -57.5q-101 0 -161.5 57.5zM250 -195.5q-17 16.5 -17 40.5t17 40.5t40 16.5t40 -16.5t17 -40.5t-17 -40.5t-40 -16.5t-40 16.5z" />
    <glyph glyph-name="ugrave" unicode="&#xf9;" horiz-adv-x="581" 
d="M129.5 47.5q-60.5 57.5 -60.5 155.5v297h85v-298q0 -63 38.5 -99.5t98.5 -36.5t98 36t38 100v298h85v-297q0 -98 -60.5 -155.5t-160.5 -57.5q-101 0 -161.5 57.5zM173 637l30 80l203 -80l-18 -54z" />
    <glyph glyph-name="uhungarumlaut" unicode="&#x171;" horiz-adv-x="581" 
d="M129.5 47.5q-60.5 57.5 -60.5 155.5v297h85v-298q0 -63 38.5 -99.5t98.5 -36.5t98 36t38 100v298h85v-297q0 -98 -60.5 -155.5t-160.5 -57.5q-101 0 -161.5 57.5zM143 605l108 106l52 -59l-124 -85zM313 604l107 106l52 -59l-124 -85z" />
    <glyph glyph-name="umacron" unicode="&#x16b;" horiz-adv-x="581" 
d="M129.5 47.5q-60.5 57.5 -60.5 155.5v297h85v-298q0 -63 38.5 -99.5t98.5 -36.5t98 36t38 100v298h85v-297q0 -98 -60.5 -155.5t-160.5 -57.5q-101 0 -161.5 57.5zM169 683h242v-69h-242v69z" />
    <glyph glyph-name="uogonek" unicode="&#x173;" horiz-adv-x="581" 
d="M512 500v-297q0 -82 -42.5 -136t-116.5 -70q-42 -20 -82 -52t-40 -63q0 -20 14.5 -31.5t37.5 -11.5q43 0 78 14v-69q-36 -14 -81 -14q-60 0 -92.5 24t-32.5 65q0 38 28 72t76 61q-87 9 -138.5 65t-51.5 146v297h85v-298q0 -63 38.5 -99.5t98.5 -36.5t98 36t38 100v298h85
z" />
    <glyph glyph-name="uring" unicode="&#x16f;" horiz-adv-x="581" 
d="M129.5 47.5q-60.5 57.5 -60.5 155.5v297h85v-298q0 -63 38.5 -99.5t98.5 -36.5t98 36t38 100v298h85v-297q0 -98 -60.5 -155.5t-160.5 -57.5q-101 0 -161.5 57.5zM378.5 770.5q36.5 -34.5 36.5 -83.5q0 -50 -36.5 -85t-87.5 -35t-87.5 35t-36.5 85q0 49 36.5 83.5
t87.5 34.5t87.5 -34.5zM245 731q-19 -18 -19 -44q0 -27 19 -45.5t46 -18.5t46 18.5t19 45.5q0 26 -19 44t-46 18t-46 -18z" />
    <glyph glyph-name="utilde" unicode="&#x169;" horiz-adv-x="581" 
d="M129.5 47.5q-60.5 57.5 -60.5 155.5v297h85v-298q0 -63 38.5 -99.5t98.5 -36.5t98 36t38 100v298h85v-297q0 -98 -60.5 -155.5t-160.5 -57.5q-101 0 -161.5 57.5zM306.5 596.5q-13.5 6.5 -29.5 17.5q-11 8 -18.5 12t-16.5 4q-15 0 -24.5 -10t-12.5 -30h-64q5 51 31 78.5
t67 27.5q19 0 32 -6.5t29 -19.5q10 -9 17.5 -13.5t17.5 -4.5q15 0 25 12t12 32h67q-4 -51 -31.5 -78.5t-67.5 -27.5q-20 0 -33.5 6.5z" />
    <glyph glyph-name="v" unicode="v" horiz-adv-x="520" 
d="M16 500h92l153 -412l151 412h92l-198 -500h-93z" />
    <glyph glyph-name="w" unicode="w" horiz-adv-x="877" 
d="M22 500h91l137 -406l145 406h86l145 -407l139 407h89l-184 -500h-87l-144 400l-147 -400h-86z" />
    <glyph glyph-name="wacute" unicode="&#x1e83;" horiz-adv-x="877" 
d="M22 500h91l137 -406l145 406h86l145 -407l139 407h89l-184 -500h-87l-144 400l-147 -400h-86zM341 583l-18 54l202 80l30 -80z" />
    <glyph glyph-name="wcircumflex" unicode="&#x175;" horiz-adv-x="877" 
d="M22 500h91l137 -406l145 406h86l145 -407l139 407h89l-184 -500h-87l-144 400l-147 -400h-86zM391 711h92l109 -125h-89l-66 76l-66 -76h-86z" />
    <glyph glyph-name="wdieresis" unicode="&#x1e85;" horiz-adv-x="877" 
d="M22 500h91l137 -406l145 406h86l145 -407l139 407h89l-184 -500h-87l-144 400l-147 -400h-86zM312.5 615q-15.5 15 -15.5 36t15.5 36.5t35.5 15.5q22 0 38 -15.5t16 -36.5t-16 -36t-38 -15q-20 0 -35.5 15zM490 615q-15 15 -15 36t15 36.5t36 15.5q22 0 37.5 -15.5
t15.5 -36.5t-15.5 -36t-37.5 -15q-21 0 -36 15z" />
    <glyph glyph-name="wgrave" unicode="&#x1e81;" horiz-adv-x="877" 
d="M22 500h91l137 -406l145 406h86l145 -407l139 407h89l-184 -500h-87l-144 400l-147 -400h-86zM321 637l30 80l203 -80l-18 -54z" />
    <glyph glyph-name="x" unicode="x" horiz-adv-x="523" 
d="M200 257l-165 243h99l127 -200l129 200h99l-165 -243l174 -257h-100l-137 214l-136 -214h-99z" />
    <glyph glyph-name="y" unicode="y" horiz-adv-x="591" 
d="M508 -21q0 -63 -30.5 -110.5t-84 -73t-120.5 -25.5q-110 0 -201 68l43 65q69 -57 158 -57q59 0 104.5 33t45.5 103v101q-18 -35 -60.5 -56.5t-96.5 -21.5q-91 0 -144 51t-53 147v297h85v-291q0 -63 34 -96t93 -33q60 0 101 33.5t41 86.5v300h85v-521z" />
    <glyph glyph-name="yacute" unicode="&#xfd;" horiz-adv-x="591" 
d="M508 -21q0 -63 -30.5 -110.5t-84 -73t-120.5 -25.5q-110 0 -201 68l43 65q69 -57 158 -57q59 0 104.5 33t45.5 103v101q-18 -35 -60.5 -56.5t-96.5 -21.5q-91 0 -144 51t-53 147v297h85v-291q0 -63 34 -96t93 -33q60 0 101 33.5t41 86.5v300h85v-521zM194 583l-18 54
l202 80l30 -80z" />
    <glyph glyph-name="ycircumflex" unicode="&#x177;" horiz-adv-x="591" 
d="M508 -21q0 -63 -30.5 -110.5t-84 -73t-120.5 -25.5q-110 0 -201 68l43 65q69 -57 158 -57q59 0 104.5 33t45.5 103v101q-18 -35 -60.5 -56.5t-96.5 -21.5q-91 0 -144 51t-53 147v297h85v-291q0 -63 34 -96t93 -33q60 0 101 33.5t41 86.5v300h85v-521zM243 711h92
l109 -125h-89l-66 76l-66 -76h-86z" />
    <glyph glyph-name="ydieresis" unicode="&#xff;" horiz-adv-x="591" 
d="M508 -21q0 -63 -30.5 -110.5t-84 -73t-120.5 -25.5q-110 0 -201 68l43 65q69 -57 158 -57q59 0 104.5 33t45.5 103v101q-18 -35 -60.5 -56.5t-96.5 -21.5q-91 0 -144 51t-53 147v297h85v-291q0 -63 34 -96t93 -33q60 0 101 33.5t41 86.5v300h85v-521zM165.5 615
q-15.5 15 -15.5 36t15.5 36.5t35.5 15.5q22 0 38 -15.5t16 -36.5t-16 -36t-38 -15q-20 0 -35.5 15zM343 615q-15 15 -15 36t15 36.5t36 15.5q22 0 37.5 -15.5t15.5 -36.5t-15.5 -36t-37.5 -15q-21 0 -36 15z" />
    <glyph glyph-name="ygrave" unicode="&#x1ef3;" horiz-adv-x="591" 
d="M508 -21q0 -63 -30.5 -110.5t-84 -73t-120.5 -25.5q-110 0 -201 68l43 65q69 -57 158 -57q59 0 104.5 33t45.5 103v101q-18 -35 -60.5 -56.5t-96.5 -21.5q-91 0 -144 51t-53 147v297h85v-291q0 -63 34 -96t93 -33q60 0 101 33.5t41 86.5v300h85v-521zM174 637l30 80
l203 -80l-18 -54z" />
    <glyph glyph-name="uni0233" unicode="&#x233;" horiz-adv-x="591" 
d="M508 -21q0 -63 -30.5 -110.5t-84 -73t-120.5 -25.5q-110 0 -201 68l43 65q69 -57 158 -57q59 0 104.5 33t45.5 103v101q-18 -35 -60.5 -56.5t-96.5 -21.5q-91 0 -144 51t-53 147v297h85v-291q0 -63 34 -96t93 -33q60 0 101 33.5t41 86.5v300h85v-521zM170 683h242v-69
h-242v69z" />
    <glyph glyph-name="uni1EF9" unicode="&#x1ef9;" horiz-adv-x="591" 
d="M508 -21q0 -63 -30.5 -110.5t-84 -73t-120.5 -25.5q-110 0 -201 68l43 65q69 -57 158 -57q59 0 104.5 33t45.5 103v101q-18 -35 -60.5 -56.5t-96.5 -21.5q-91 0 -144 51t-53 147v297h85v-291q0 -63 34 -96t93 -33q60 0 101 33.5t41 86.5v300h85v-521zM306.5 596.5
q-13.5 6.5 -29.5 17.5q-11 8 -18.5 12t-16.5 4q-15 0 -24.5 -10t-12.5 -30h-64q5 51 31 78.5t67 27.5q19 0 32 -6.5t29 -19.5q10 -9 17.5 -13.5t17.5 -4.5q15 0 25 12t12 32h67q-4 -51 -31.5 -78.5t-67.5 -27.5q-20 0 -33.5 6.5z" />
    <glyph glyph-name="z" unicode="z" horiz-adv-x="497" 
d="M48 56l290 372h-279v72h389v-56l-288 -372h289v-72h-401v56z" />
    <glyph glyph-name="zacute" unicode="&#x17a;" horiz-adv-x="497" 
d="M48 56l290 372h-279v72h389v-56l-288 -372h289v-72h-401v56zM153 583l-18 54l202 80l30 -80z" />
    <glyph glyph-name="zcaron" unicode="&#x17e;" horiz-adv-x="497" 
d="M48 56l290 372h-279v72h389v-56l-288 -372h289v-72h-401v56zM184 711l66 -74l65 74h88l-107 -125h-93l-106 125h87z" />
    <glyph glyph-name="zdotaccent" unicode="&#x17c;" horiz-adv-x="497" 
d="M48 56l290 372h-279v72h389v-56l-288 -372h289v-72h-401v56zM208 606q-18 17 -18 42q0 24 18 41t43 17t42.5 -17t17.5 -41q0 -25 -17.5 -42t-42.5 -17t-43 17z" />
    <glyph glyph-name="i.TRK" horiz-adv-x="250" 
d="M82 500h86v-500h-86v500zM82 606q-18 17 -18 42q0 24 18 41t43 17t42.5 -17t17.5 -41q0 -25 -17.5 -42t-42.5 -17t-43 17z" />
    <glyph glyph-name="germandbls.calt" horiz-adv-x="669" 
d="M288 3q-47 13 -74 29l27 74q62 -38 149 -38q77 0 118.5 37t41.5 92q0 81 -62 111t-178 32v53l164 182q-49 56 -136 56q-72 0 -119.5 -47t-47.5 -135v-449h-87v443q0 90 34 150t91.5 88.5t128.5 28.5q96 0 155 -40t88 -94l-163 -177q91 -9 157 -57t66 -148
q0 -55 -28.5 -101.5t-84.5 -74.5t-136 -28q-57 0 -104 13z" />
    <glyph glyph-name="g.ss01" horiz-adv-x="630" 
d="M548 500v-512q0 -65 -32.5 -114.5t-89 -76.5t-125.5 -27q-115 0 -198 67l41 63q32 -25 69 -40t88 -15q39 0 76 15.5t61 48.5t24 83v100q-20 -39 -67 -70.5t-113 -31.5q-61 0 -115.5 33t-88 92.5t-33.5 134.5t33.5 134.5t88 92.5t115.5 33q67 0 114.5 -32.5t66.5 -73.5
l15 96h70zM384 89q39 24 61 66t22 95t-22 95t-61 66t-86 24q-42 0 -80 -21.5t-61.5 -63.5t-23.5 -100t23.5 -100t61.5 -63.5t80 -21.5q47 0 86 24z" />
    <glyph glyph-name="gbreve.ss01" horiz-adv-x="630" 
d="M548 500v-512q0 -65 -32.5 -114.5t-89 -76.5t-125.5 -27q-115 0 -198 67l41 63q32 -25 69 -40t88 -15q39 0 76 15.5t61 48.5t24 83v100q-20 -39 -67 -70.5t-113 -31.5q-61 0 -115.5 33t-88 92.5t-33.5 134.5t33.5 134.5t88 92.5t115.5 33q67 0 114.5 -32.5t66.5 -73.5
l15 96h70zM384 89q39 24 61 66t22 95t-22 95t-61 66t-86 24q-42 0 -80 -21.5t-61.5 -63.5t-23.5 -100t23.5 -100t61.5 -63.5t80 -21.5q47 0 86 24zM210.5 619q-35.5 33 -39.5 95h70q2 -34 17.5 -53t52.5 -19q61 0 66 72h71q-5 -61 -40 -94.5t-97 -33.5q-65 0 -100.5 33z" />
    <glyph glyph-name="gcaron.ss01" horiz-adv-x="630" 
d="M548 500v-512q0 -65 -32.5 -114.5t-89 -76.5t-125.5 -27q-115 0 -198 67l41 63q32 -25 69 -40t88 -15q39 0 76 15.5t61 48.5t24 83v100q-20 -39 -67 -70.5t-113 -31.5q-61 0 -115.5 33t-88 92.5t-33.5 134.5t33.5 134.5t88 92.5t115.5 33q67 0 114.5 -32.5t66.5 -73.5
l15 96h70zM384 89q39 24 61 66t22 95t-22 95t-61 66t-86 24q-42 0 -80 -21.5t-61.5 -63.5t-23.5 -100t23.5 -100t61.5 -63.5t80 -21.5q47 0 86 24zM244 711l66 -74l65 74h88l-107 -125h-93l-106 125h87z" />
    <glyph glyph-name="gcircumflex.ss01" horiz-adv-x="630" 
d="M548 500v-512q0 -65 -32.5 -114.5t-89 -76.5t-125.5 -27q-115 0 -198 67l41 63q32 -25 69 -40t88 -15q39 0 76 15.5t61 48.5t24 83v100q-20 -39 -67 -70.5t-113 -31.5q-61 0 -115.5 33t-88 92.5t-33.5 134.5t33.5 134.5t88 92.5t115.5 33q67 0 114.5 -32.5t66.5 -73.5
l15 96h70zM384 89q39 24 61 66t22 95t-22 95t-61 66t-86 24q-42 0 -80 -21.5t-61.5 -63.5t-23.5 -100t23.5 -100t61.5 -63.5t80 -21.5q47 0 86 24zM263 711h92l109 -125h-89l-66 76l-66 -76h-86z" />
    <glyph glyph-name="uni0123.ss01" horiz-adv-x="630" 
d="M548 500v-512q0 -65 -32.5 -114.5t-89 -76.5t-125.5 -27q-115 0 -198 67l41 63q32 -25 69 -40t88 -15q39 0 76 15.5t61 48.5t24 83v100q-20 -39 -67 -70.5t-113 -31.5q-61 0 -115.5 33t-88 92.5t-33.5 134.5t33.5 134.5t88 92.5t115.5 33q67 0 114.5 -32.5t66.5 -73.5
l15 96h70zM384 89q39 24 61 66t22 95t-22 95t-61 66t-86 24q-42 0 -80 -21.5t-61.5 -63.5t-23.5 -100t23.5 -100t61.5 -63.5t80 -21.5q47 0 86 24zM272 606q-15 16 -15 43q0 28 23 60t55 61l26 -24q-35 -41 -42 -62q19 -2 31 -14t12 -31q0 -20 -14.5 -34.5t-37.5 -14.5
t-38 16z" />
    <glyph glyph-name="gdotaccent.ss01" horiz-adv-x="630" 
d="M548 500v-512q0 -65 -32.5 -114.5t-89 -76.5t-125.5 -27q-115 0 -198 67l41 63q32 -25 69 -40t88 -15q39 0 76 15.5t61 48.5t24 83v100q-20 -39 -67 -70.5t-113 -31.5q-61 0 -115.5 33t-88 92.5t-33.5 134.5t33.5 134.5t88 92.5t115.5 33q67 0 114.5 -32.5t66.5 -73.5
l15 96h70zM384 89q39 24 61 66t22 95t-22 95t-61 66t-86 24q-42 0 -80 -21.5t-61.5 -63.5t-23.5 -100t23.5 -100t61.5 -63.5t80 -21.5q47 0 86 24zM268 606q-18 17 -18 42q0 24 18 41t43 17t42.5 -17t17.5 -41q0 -25 -17.5 -42t-42.5 -17t-43 17z" />
    <glyph glyph-name="ae.ss02" horiz-adv-x="995" 
d="M167 23q-55 33 -88.5 92.5t-33.5 134.5t33.5 134.5t88.5 92.5t116 33q69 0 117 -32t65 -74l11 96h59l9 -94q24 47 72.5 75.5t110.5 28.5q60 0 111.5 -29t82.5 -83.5t31 -128.5q0 -19 -2 -43h-403q8 -78 60 -121t130 -43q47 0 86 18.5t60 44.5l50 -56q-33 -35 -82.5 -57
t-106.5 -22q-68 0 -121.5 30t-77.5 78l-8 -98h-61l-11 99q-17 -45 -65 -77t-117 -32q-61 0 -116 33zM823 400q-39 40 -108 40q-68 0 -114 -42t-52 -114h317q-4 76 -43 116zM422 117q47 52 47 133q0 53 -21.5 95t-60 66t-86.5 24q-45 0 -83.5 -22t-61.5 -64t-23 -99t23.5 -99
t62 -64t81.5 -22q75 0 122 52z" />
    <glyph glyph-name="aeacute.ss02" horiz-adv-x="995" 
d="M167 23q-55 33 -88.5 92.5t-33.5 134.5t33.5 134.5t88.5 92.5t116 33q69 0 117 -32t65 -74l11 96h59l9 -94q24 47 72.5 75.5t110.5 28.5q60 0 111.5 -29t82.5 -83.5t31 -128.5q0 -19 -2 -43h-403q8 -78 60 -121t130 -43q47 0 86 18.5t60 44.5l50 -56q-33 -35 -82.5 -57
t-106.5 -22q-68 0 -121.5 30t-77.5 78l-8 -98h-61l-11 99q-17 -45 -65 -77t-117 -32q-61 0 -116 33zM823 400q-39 40 -108 40q-68 0 -114 -42t-52 -114h317q-4 76 -43 116zM422 117q47 52 47 133q0 53 -21.5 95t-60 66t-86.5 24q-45 0 -83.5 -22t-61.5 -64t-23 -99t23.5 -99
t62 -64t81.5 -22q75 0 122 52zM405 583l-18 54l202 80l30 -80z" />
    <glyph glyph-name="a.ss03" horiz-adv-x="546" 
d="M96 30.5q-47 40.5 -47 104.5q0 75 61.5 111.5t151.5 36.5h125v31q0 59 -36 90.5t-102 31.5q-47 0 -84.5 -16t-60.5 -36l-39 61q29 25 77.5 45t112.5 20q100 0 157.5 -48.5t57.5 -138.5v-323h-68l-13 80q-20 -33 -61.5 -61.5t-105.5 -28.5q-79 0 -126 40.5zM346 96
q41 37 41 98v29h-116q-58 0 -96.5 -21t-38.5 -65q0 -37 29 -57.5t76 -20.5q64 0 105 37z" />
    <glyph glyph-name="aacute.ss03" horiz-adv-x="546" 
d="M96 30.5q-47 40.5 -47 104.5q0 75 61.5 111.5t151.5 36.5h125v31q0 59 -36 90.5t-102 31.5q-47 0 -84.5 -16t-60.5 -36l-39 61q29 25 77.5 45t112.5 20q100 0 157.5 -48.5t57.5 -138.5v-323h-68l-13 80q-20 -33 -61.5 -61.5t-105.5 -28.5q-79 0 -126 40.5zM346 96
q41 37 41 98v29h-116q-58 0 -96.5 -21t-38.5 -65q0 -37 29 -57.5t76 -20.5q64 0 105 37zM168 583l-18 54l202 80l30 -80z" />
    <glyph glyph-name="abreve.ss03" horiz-adv-x="546" 
d="M96 30.5q-47 40.5 -47 104.5q0 75 61.5 111.5t151.5 36.5h125v31q0 59 -36 90.5t-102 31.5q-47 0 -84.5 -16t-60.5 -36l-39 61q29 25 77.5 45t112.5 20q100 0 157.5 -48.5t57.5 -138.5v-323h-68l-13 80q-20 -33 -61.5 -61.5t-105.5 -28.5q-79 0 -126 40.5zM346 96
q41 37 41 98v29h-116q-58 0 -96.5 -21t-38.5 -65q0 -37 29 -57.5t76 -20.5q64 0 105 37zM164.5 619q-35.5 33 -39.5 95h70q2 -34 17.5 -53t52.5 -19q61 0 66 72h71q-5 -61 -40 -94.5t-97 -33.5q-65 0 -100.5 33z" />
    <glyph glyph-name="acircumflex.ss03" horiz-adv-x="546" 
d="M96 30.5q-47 40.5 -47 104.5q0 75 61.5 111.5t151.5 36.5h125v31q0 59 -36 90.5t-102 31.5q-47 0 -84.5 -16t-60.5 -36l-39 61q29 25 77.5 45t112.5 20q100 0 157.5 -48.5t57.5 -138.5v-323h-68l-13 80q-20 -33 -61.5 -61.5t-105.5 -28.5q-79 0 -126 40.5zM346 96
q41 37 41 98v29h-116q-58 0 -96.5 -21t-38.5 -65q0 -37 29 -57.5t76 -20.5q64 0 105 37zM218 711h92l109 -125h-89l-66 76l-66 -76h-86z" />
    <glyph glyph-name="adieresis.ss03" horiz-adv-x="546" 
d="M96 30.5q-47 40.5 -47 104.5q0 75 61.5 111.5t151.5 36.5h125v31q0 59 -36 90.5t-102 31.5q-47 0 -84.5 -16t-60.5 -36l-39 61q29 25 77.5 45t112.5 20q100 0 157.5 -48.5t57.5 -138.5v-323h-68l-13 80q-20 -33 -61.5 -61.5t-105.5 -28.5q-79 0 -126 40.5zM346 96
q41 37 41 98v29h-116q-58 0 -96.5 -21t-38.5 -65q0 -37 29 -57.5t76 -20.5q64 0 105 37zM139.5 615q-15.5 15 -15.5 36t15.5 36.5t35.5 15.5q22 0 38 -15.5t16 -36.5t-16 -36t-38 -15q-20 0 -35.5 15zM317 615q-15 15 -15 36t15 36.5t36 15.5q22 0 37.5 -15.5t15.5 -36.5
t-15.5 -36t-37.5 -15q-21 0 -36 15z" />
    <glyph glyph-name="uni1EA1.ss03" horiz-adv-x="546" 
d="M96 30.5q-47 40.5 -47 104.5q0 75 61.5 111.5t151.5 36.5h125v31q0 59 -36 90.5t-102 31.5q-47 0 -84.5 -16t-60.5 -36l-39 61q29 25 77.5 45t112.5 20q100 0 157.5 -48.5t57.5 -138.5v-323h-68l-13 80q-20 -33 -61.5 -61.5t-105.5 -28.5q-79 0 -126 40.5zM346 96
q41 37 41 98v29h-116q-58 0 -96.5 -21t-38.5 -65q0 -37 29 -57.5t76 -20.5q64 0 105 37zM224 -195.5q-17 16.5 -17 40.5t17 40.5t40 16.5t40 -16.5t17 -40.5t-17 -40.5t-40 -16.5t-40 16.5z" />
    <glyph glyph-name="agrave.ss03" horiz-adv-x="546" 
d="M96 30.5q-47 40.5 -47 104.5q0 75 61.5 111.5t151.5 36.5h125v31q0 59 -36 90.5t-102 31.5q-47 0 -84.5 -16t-60.5 -36l-39 61q29 25 77.5 45t112.5 20q100 0 157.5 -48.5t57.5 -138.5v-323h-68l-13 80q-20 -33 -61.5 -61.5t-105.5 -28.5q-79 0 -126 40.5zM346 96
q41 37 41 98v29h-116q-58 0 -96.5 -21t-38.5 -65q0 -37 29 -57.5t76 -20.5q64 0 105 37zM149 637l30 80l203 -80l-18 -54z" />
    <glyph glyph-name="amacron.ss03" horiz-adv-x="546" 
d="M96 30.5q-47 40.5 -47 104.5q0 75 61.5 111.5t151.5 36.5h125v31q0 59 -36 90.5t-102 31.5q-47 0 -84.5 -16t-60.5 -36l-39 61q29 25 77.5 45t112.5 20q100 0 157.5 -48.5t57.5 -138.5v-323h-68l-13 80q-20 -33 -61.5 -61.5t-105.5 -28.5q-79 0 -126 40.5zM346 96
q41 37 41 98v29h-116q-58 0 -96.5 -21t-38.5 -65q0 -37 29 -57.5t76 -20.5q64 0 105 37zM145 683h242v-69h-242v69z" />
    <glyph glyph-name="aogonek.ss03" horiz-adv-x="546" 
d="M385 -51q-45 -35 -45 -67q0 -20 14.5 -31.5t37.5 -11.5q43 0 78 14v-69q-36 -14 -81 -14q-60 0 -92.5 24t-32.5 65q0 44 38 83t99 66l-12 72q-20 -33 -61.5 -61.5t-105.5 -28.5q-79 0 -126 40.5t-47 104.5q0 75 61.5 111.5t151.5 36.5h125v31q0 59 -36 90.5t-102 31.5
q-47 0 -84.5 -16t-60.5 -36l-39 61q29 25 77.5 45t112.5 20q100 0 157.5 -48.5t57.5 -138.5v-323q-40 -16 -85 -51zM387 223h-116q-58 0 -96.5 -21t-38.5 -65q0 -37 29 -57.5t76 -20.5q64 0 105 37t41 98v29z" />
    <glyph glyph-name="aring.ss03" horiz-adv-x="546" 
d="M96 30.5q-47 40.5 -47 104.5q0 75 61.5 111.5t151.5 36.5h125v31q0 59 -36 90.5t-102 31.5q-47 0 -84.5 -16t-60.5 -36l-39 61q29 25 77.5 45t112.5 20q100 0 157.5 -48.5t57.5 -138.5v-323h-68l-13 80q-20 -33 -61.5 -61.5t-105.5 -28.5q-79 0 -126 40.5zM346 96
q41 37 41 98v29h-116q-58 0 -96.5 -21t-38.5 -65q0 -37 29 -57.5t76 -20.5q64 0 105 37zM353.5 770.5q36.5 -34.5 36.5 -83.5q0 -50 -36.5 -85t-87.5 -35t-87.5 35t-36.5 85q0 49 36.5 83.5t87.5 34.5t87.5 -34.5zM220 731q-19 -18 -19 -44q0 -27 19 -45.5t46 -18.5t46 18.5
t19 45.5q0 26 -19 44t-46 18t-46 -18z" />
    <glyph glyph-name="aringacute.ss03" horiz-adv-x="546" 
d="M96 30.5q-47 40.5 -47 104.5q0 75 61.5 111.5t151.5 36.5h125v31q0 59 -36 90.5t-102 31.5q-47 0 -84.5 -16t-60.5 -36l-39 61q29 25 77.5 45t112.5 20q100 0 157.5 -48.5t57.5 -138.5v-323h-68l-13 80q-20 -33 -61.5 -61.5t-105.5 -28.5q-79 0 -126 40.5zM346 96
q41 37 41 98v29h-116q-58 0 -96.5 -21t-38.5 -65q0 -37 29 -57.5t76 -20.5q64 0 105 37zM353.5 770.5q36.5 -34.5 36.5 -83.5q0 -50 -36.5 -85t-87.5 -35t-87.5 35t-36.5 85q0 49 36.5 83.5t87.5 34.5t87.5 -34.5zM220 731q-19 -18 -19 -44q0 -27 19 -45.5t46 -18.5t46 18.5
t19 45.5q0 26 -19 44t-46 18t-46 -18zM168 854l-18 54l202 80l30 -80z" />
    <glyph glyph-name="atilde.ss03" horiz-adv-x="546" 
d="M96 30.5q-47 40.5 -47 104.5q0 75 61.5 111.5t151.5 36.5h125v31q0 59 -36 90.5t-102 31.5q-47 0 -84.5 -16t-60.5 -36l-39 61q29 25 77.5 45t112.5 20q100 0 157.5 -48.5t57.5 -138.5v-323h-68l-13 80q-20 -33 -61.5 -61.5t-105.5 -28.5q-79 0 -126 40.5zM346 96
q41 37 41 98v29h-116q-58 0 -96.5 -21t-38.5 -65q0 -37 29 -57.5t76 -20.5q64 0 105 37zM281.5 596.5q-13.5 6.5 -29.5 17.5q-11 8 -18.5 12t-16.5 4q-15 0 -24.5 -10t-12.5 -30h-64q5 51 31 78.5t67 27.5q19 0 32 -6.5t29 -19.5q10 -9 17.5 -13.5t17.5 -4.5q15 0 25 12
t12 32h67q-4 -51 -31.5 -78.5t-67.5 -27.5q-20 0 -33.5 6.5z" />
    <glyph glyph-name="ordfeminine" unicode="&#xaa;" horiz-adv-x="624" 
d="M166.5 223q-54.5 33 -88 92.5t-33.5 134.5t33.5 134.5t88 92.5t115.5 33q67 0 114.5 -32.5t66.5 -73.5l15 96h70v-500h-69l-16 94q-19 -40 -66.5 -72t-114.5 -32q-61 0 -115.5 33zM384 289q39 24 61 66t22 95t-22 95t-61 66t-86 24q-42 0 -80 -21.5t-61.5 -63.5
t-23.5 -100t23.5 -100t61.5 -63.5t80 -21.5q47 0 86 24z" />
    <glyph glyph-name="ordmasculine" unicode="&#xba;" horiz-adv-x="604" 
d="M175.5 223q-59.5 33 -95 92.5t-35.5 134.5t35.5 134.5t95 92.5t129.5 33q71 0 131 -33t95 -92t35 -135t-35 -135t-95 -92t-131 -33q-70 0 -129.5 33zM392.5 289.5q39.5 23.5 62.5 65.5t23 95t-23 95t-62.5 65.5t-87.5 23.5t-87 -23.5t-62 -65.5t-23 -95t23 -95t62 -65.5
t87 -23.5t87.5 23.5z" />
    <glyph glyph-name="uni0394" unicode="&#x394;" horiz-adv-x="711" 
d="M687 0h-663l276 700h111zM561 83l-205 533l-205 -533h410z" />
    <glyph glyph-name="uni03A9" unicode="&#x3a9;" horiz-adv-x="890" 
d="M275 82q-81 36 -130.5 116t-49.5 171q0 90 46.5 168.5t126.5 125.5t177 47t177.5 -46.5t126.5 -125t46 -169.5t-49 -171t-130 -116h128v-82h-247v82q99 38 154 115t55 171q0 69 -34.5 129t-94.5 96t-132 36t-131.5 -35.5t-94 -95.5t-34.5 -129q0 -95 55 -172t154 -115
v-82h-247v82h128z" />
    <glyph glyph-name="uni03BC" unicode="&#x3bc;" horiz-adv-x="603" 
d="M520 500v-500h-68l-16 98q-16 -42 -58 -75t-108 -33q-57 0 -102 25v-235h-86v720h86v-301q0 -65 33 -99.5t87 -34.5q68 0 107.5 46t39.5 115v274h85z" />
    <glyph glyph-name="pi" unicode="&#x3c0;" horiz-adv-x="661" 
d="M617 71v-75q-21 -6 -64 -6q-62 0 -100 35t-38 109v287h-187v-421h-85v421h-98v79h566v-79h-110v-273q0 -38 15 -59t50 -22q32 0 51 4z" />
    <glyph glyph-name="zero" unicode="0" horiz-adv-x="619" 
d="M174 32.5q-58 42.5 -90 124t-32 193.5t32 193.5t90 124t136 42.5t135.5 -42.5t89 -123.5t31.5 -194t-31.5 -194t-89 -123.5t-135.5 -42.5t-136 42.5zM432 141q45 73 45 209t-45 209t-122 73q-78 0 -123 -73t-45 -209t45 -209t123 -73q77 0 122 73z" />
    <glyph glyph-name="one" unicode="1" horiz-adv-x="480" 
d="M263 598l-194 -84v84l251 106h28v-704h-85v598z" />
    <glyph glyph-name="two" unicode="2" horiz-adv-x="563" 
d="M176 181q117 97 177 172.5t60 152.5q0 61 -37.5 93.5t-95.5 32.5q-62 0 -101.5 -40.5t-53.5 -97.5l-82 24q10 45 39 88.5t79 73.5t119 30q101 0 161.5 -53t60.5 -151q0 -92 -66 -179t-175 -173l-99 -79h353v-75h-468v76z" />
    <glyph glyph-name="three" unicode="3" horiz-adv-x="591" 
d="M157.5 19.5q-52.5 29.5 -80 74.5t-33.5 91l83 19q7 -53 46.5 -95.5t111.5 -42.5q46 0 82 19t56 52t20 73q0 48 -24 79.5t-60 46t-74 14.5q-27 0 -59 -7l-29 58l207 224h-327v75h443v-59l-210 -224q56 -2 106.5 -25.5t82 -70.5t31.5 -113q0 -60 -29.5 -109.5t-85 -79
t-130.5 -29.5t-127.5 29.5z" />
    <glyph glyph-name="four" unicode="4" horiz-adv-x="605" 
d="M578 267v-73h-98v-194h-85v194h-355v65l244 441h96l-245 -433h260v150h85v-150h98z" />
    <glyph glyph-name="five" unicode="5" horiz-adv-x="580" 
d="M414.5 429.5q51.5 -25.5 83.5 -77.5t32 -126q0 -72 -33.5 -125.5t-89.5 -82t-124 -28.5q-66 0 -115.5 24.5t-78 61t-36.5 73.5l81 25q12 -40 51 -73.5t98 -33.5q69 0 113.5 42t44.5 117q0 51 -20.5 86.5t-54 53t-72.5 17.5q-47 0 -81.5 -20t-56.5 -48l-83 35l33 350h377
v-75h-303l-22 -226q17 21 56 38.5t91 17.5q58 0 109.5 -25.5z" />
    <glyph glyph-name="six" unicode="6" horiz-adv-x="599" 
d="M121.5 77.5q-70.5 87.5 -70.5 249.5q0 117 33.5 203.5t95.5 133t145 46.5q78 0 136 -36.5t82 -96.5l-66 -42q-18 44 -60 71.5t-90 27.5q-96 0 -144.5 -84.5t-48.5 -224.5q24 53 75 83t115 30q62 0 113.5 -27t81.5 -77t30 -114q0 -66 -32 -118.5t-86 -82t-116 -29.5
q-123 0 -193.5 87.5zM385.5 83q34.5 20 55 55t20.5 79q0 67 -43 107.5t-107 40.5q-41 0 -76.5 -19.5t-57 -52.5t-21.5 -72q0 -44 21 -80t56.5 -57t76.5 -21t75.5 20z" />
    <glyph glyph-name="seven" unicode="7" horiz-adv-x="561" 
d="M426 620h-374v80h471v-67l-312 -633h-98z" />
    <glyph glyph-name="eight" unicode="8" horiz-adv-x="608" 
d="M176 16q-55 26 -85 72t-30 104q0 74 42.5 115t97.5 60q-26 8 -54 29t-48 54t-20 76q0 53 28 95t79 65.5t118 23.5t118 -23.5t79 -65.5t28 -95q0 -43 -19.5 -76t-48 -54t-54.5 -29q55 -19 97.5 -60t42.5 -115q0 -58 -30 -104t-85 -72t-128 -26t-128 26zM368.5 414.5
q32.5 14.5 53.5 42.5t21 64q0 50 -38 83t-101 33q-62 0 -100 -33t-38 -83q0 -36 21 -64t53.5 -42.5t63.5 -14.5q32 0 64.5 14.5zM416.5 100.5q43.5 37.5 43.5 94.5q0 43 -22.5 73t-58.5 44.5t-75 14.5t-74.5 -14.5t-58 -44.5t-22.5 -73q0 -57 43 -94.5t112 -37.5t112.5 37.5
z" />
    <glyph glyph-name="nine" unicode="9" horiz-adv-x="599" 
d="M477.5 622.5q70.5 -87.5 70.5 -249.5q0 -119 -32 -205t-93 -132t-146 -46q-78 0 -136 37t-82 98l66 41q19 -45 60.5 -72.5t89.5 -27.5q97 0 144 83.5t47 227.5q-23 -54 -75 -84.5t-116 -30.5q-62 0 -113.5 27t-81.5 77t-30 114q0 66 32 118.5t86 82t116 29.5
q123 0 193.5 -87.5zM213.5 617q-34.5 -20 -55 -55t-20.5 -79q0 -66 43 -107t107 -41q41 0 77 19.5t57.5 52.5t21.5 72q0 44 -21 80.5t-57 57t-77 20.5t-75.5 -20z" />
    <glyph glyph-name="zero.tf" horiz-adv-x="600" 
d="M158 32.5q-58 42.5 -90 124t-32 193.5t32 193.5t90 124t136 42.5t135.5 -42.5t89 -123.5t31.5 -194t-31.5 -194t-89 -123.5t-135.5 -42.5t-136 42.5zM416 141q45 73 45 209t-45 209t-122 73q-78 0 -123 -73t-45 -209t45 -209t123 -73q77 0 122 73z" />
    <glyph glyph-name="one.tf" horiz-adv-x="600" 
d="M356 79h188v-79h-464v79h191v519l-194 -84v84l251 106h28v-625z" />
    <glyph glyph-name="two.tf" horiz-adv-x="600" 
d="M194 181q117 97 177 172.5t60 152.5q0 61 -37.5 93.5t-95.5 32.5q-62 0 -101.5 -40.5t-53.5 -97.5l-82 24q10 45 39 88.5t79 73.5t119 30q101 0 161.5 -53t60.5 -151q0 -92 -66 -179t-175 -173l-99 -79h353v-75h-468v76z" />
    <glyph glyph-name="three.tf" horiz-adv-x="600" 
d="M160.5 19.5q-52.5 29.5 -80 74.5t-33.5 91l83 19q7 -53 46.5 -95.5t111.5 -42.5q46 0 82 19t56 52t20 73q0 48 -24 79.5t-60 46t-74 14.5q-27 0 -59 -7l-29 58l207 224h-327v75h443v-59l-210 -224q56 -2 106.5 -25.5t82 -70.5t31.5 -113q0 -60 -29.5 -109.5t-85 -79
t-130.5 -29.5t-127.5 29.5z" />
    <glyph glyph-name="four.tf" horiz-adv-x="600" 
d="M564 267v-73h-98v-194h-85v194h-355v65l244 441h96l-245 -433h260v150h85v-150h98z" />
    <glyph glyph-name="five.tf" horiz-adv-x="600" 
d="M423.5 429.5q51.5 -25.5 83.5 -77.5t32 -126q0 -72 -33.5 -125.5t-89.5 -82t-124 -28.5q-66 0 -115.5 24.5t-78 61t-36.5 73.5l81 25q12 -40 51 -73.5t98 -33.5q69 0 113.5 42t44.5 117q0 51 -20.5 86.5t-54 53t-72.5 17.5q-47 0 -81.5 -20t-56.5 -48l-83 35l33 350h377
v-75h-303l-22 -226q17 21 56 38.5t91 17.5q58 0 109.5 -25.5z" />
    <glyph glyph-name="six.tf" horiz-adv-x="600" 
d="M118.5 77.5q-70.5 87.5 -70.5 249.5q0 117 33.5 203.5t95.5 133t145 46.5q78 0 136 -36.5t82 -96.5l-66 -42q-18 44 -60 71.5t-90 27.5q-96 0 -144.5 -84.5t-48.5 -224.5q24 53 75 83t115 30q62 0 113.5 -27t81.5 -77t30 -114q0 -66 -32 -118.5t-86 -82t-116 -29.5
q-123 0 -193.5 87.5zM382.5 83q34.5 20 55 55t20.5 79q0 67 -43 107.5t-107 40.5q-41 0 -76.5 -19.5t-57 -52.5t-21.5 -72q0 -44 21 -80t56.5 -57t76.5 -21t75.5 20z" />
    <glyph glyph-name="seven.tf" horiz-adv-x="600" 
d="M436 620h-374v80h471v-67l-312 -633h-98z" />
    <glyph glyph-name="eight.tf" horiz-adv-x="600" 
d="M172 16q-55 26 -85 72t-30 104q0 74 42.5 115t97.5 60q-26 8 -54 29t-48 54t-20 76q0 53 28 95t79 65.5t118 23.5t118 -23.5t79 -65.5t28 -95q0 -43 -19.5 -76t-48 -54t-54.5 -29q55 -19 97.5 -60t42.5 -115q0 -58 -30 -104t-85 -72t-128 -26t-128 26zM364.5 414.5
q32.5 14.5 53.5 42.5t21 64q0 50 -38 83t-101 33q-62 0 -100 -33t-38 -83q0 -36 21 -64t53.5 -42.5t63.5 -14.5q32 0 64.5 14.5zM412.5 100.5q43.5 37.5 43.5 94.5q0 43 -22.5 73t-58.5 44.5t-75 14.5t-74.5 -14.5t-58 -44.5t-22.5 -73q0 -57 43 -94.5t112 -37.5t112.5 37.5
z" />
    <glyph glyph-name="nine.tf" horiz-adv-x="600" 
d="M478.5 622.5q70.5 -87.5 70.5 -249.5q0 -119 -32 -205t-93 -132t-146 -46q-78 0 -136 37t-82 98l66 41q19 -45 60.5 -72.5t89.5 -27.5q97 0 144 83.5t47 227.5q-23 -54 -75 -84.5t-116 -30.5q-62 0 -113.5 27t-81.5 77t-30 114q0 66 32 118.5t86 82t116 29.5
q123 0 193.5 -87.5zM214.5 617q-34.5 -20 -55 -55t-20.5 -79q0 -66 43 -107t107 -41q41 0 77 19.5t57.5 52.5t21.5 72q0 44 -21 80.5t-57 57t-77 20.5t-75.5 -20z" />
    <glyph glyph-name="uni2080" unicode="&#x2080;" 
d="M64.5 -77q-40.5 57 -40.5 158t40.5 158t113.5 57q74 0 114.5 -57t40.5 -158t-40.5 -158t-114.5 -57q-73 0 -113.5 57zM242.5 -33q22.5 40 22.5 114t-22.5 114.5t-64.5 40.5q-41 0 -63 -40.5t-22 -114.5q0 -73 22 -113.5t63 -40.5q42 0 64.5 40z" />
    <glyph glyph-name="uni2081" unicode="&#x2081;" 
d="M49 -65h112v284l-109 -43v60l155 60h18v-361h92v-59h-268v59z" />
    <glyph glyph-name="uni2082" unicode="&#x2082;" 
d="M153.5 30q41.5 36 67.5 73t26 74q0 30 -18.5 46.5t-51.5 16.5q-35 0 -55 -23.5t-26 -53.5l-63 16q6 45 43.5 81t102.5 36q60 0 97.5 -32t37.5 -85q0 -64 -52 -122t-143 -123h203v-58h-286v61q76 57 117.5 93z" />
    <glyph glyph-name="uni2083" unicode="&#x2083;" 
d="M64.5 -98q-37.5 36 -42.5 82l64 16q3 -28 24.5 -51t59.5 -23q36 0 57.5 20.5t21.5 53.5q0 37 -23.5 57t-55.5 20q-13 0 -34 -7l-27 48l113 114h-179v59h267v-49l-117 -121q50 -2 87 -35t37 -87q0 -37 -18.5 -67t-52 -48t-76.5 -18q-68 0 -105.5 36z" />
    <glyph glyph-name="uni2084" unicode="&#x2084;" 
d="M338 38v-55h-54v-107h-64v107h-205v48l129 260h69l-125 -253h132v82h64v-82h54z" />
    <glyph glyph-name="uni2085" unicode="&#x2085;" 
d="M277.5 111.5q40.5 -35.5 40.5 -101.5t-43 -105t-106 -39q-46 0 -77 17.5t-46.5 40.5t-18.5 41l63 15q4 -16 23.5 -34.5t55.5 -18.5t58 21.5t22 62.5q0 37 -22 58.5t-57 21.5q-24 0 -42.5 -10t-29.5 -23l-59 24l17 209h234v-60h-177l-10 -110q8 10 29 18t50 8
q55 0 95.5 -35.5z" />
    <glyph glyph-name="uni2086" unicode="&#x2086;" 
d="M65 -80.5q-44 53.5 -44 151.5q0 68 21.5 119t60 78.5t87.5 27.5q47 0 81.5 -19t52.5 -53l-47 -36q-12 23 -35.5 35.5t-49.5 12.5q-50 0 -79 -43.5t-29 -113.5q15 28 43.5 43t63.5 15q57 0 96.5 -36.5t39.5 -96.5q0 -40 -20 -71.5t-52.5 -49t-70.5 -17.5q-75 0 -119 53.5z
M235 -54q23 22 23 57q0 36 -22.5 57t-55.5 21t-56.5 -21.5t-23.5 -55.5t24 -57t56 -23t55 22z" />
    <glyph glyph-name="uni2087" unicode="&#x2087;" 
d="M267 233h-212v58h282v-46l-174 -369h-70z" />
    <glyph glyph-name="uni2088" unicode="&#x2088;" 
d="M67.5 -99.5q-40.5 34.5 -40.5 89.5q0 41 23 65t58 38q-29 11 -50 35.5t-21 57.5q0 47 37.5 78.5t99.5 31.5q63 0 100.5 -31t37.5 -79q0 -33 -21 -58t-50 -35q81 -30 81 -103q0 -55 -40.5 -89.5t-107.5 -34.5q-66 0 -106.5 34.5zM224.5 136q21.5 17 21.5 46q0 25 -20.5 41
t-51.5 16q-30 0 -50.5 -16t-20.5 -41q0 -28 21.5 -45.5t49.5 -17.5q29 0 50.5 17zM233.5 -58q22.5 19 22.5 50q0 34 -24 53t-58 19q-33 0 -57 -19.5t-24 -52.5q0 -31 22.5 -50t58.5 -19q37 0 59.5 19z" />
    <glyph glyph-name="uni2089" unicode="&#x2089;" 
d="M282 242.5q44 -53.5 44 -151.5q0 -68 -21.5 -119t-60 -78.5t-87.5 -27.5q-47 0 -81 19.5t-52 53.5l45 37q13 -24 36 -36.5t49 -12.5q50 0 79.5 43.5t29.5 113.5q-15 -28 -44 -43.5t-64 -15.5q-57 0 -96 37t-39 97q0 40 20 71t52.5 48.5t70.5 17.5q75 0 119 -53.5z
M112 216q-23 -22 -23 -56q0 -36 22.5 -57.5t55.5 -21.5q32 0 56 22t24 55q0 34 -24 57t-56 23t-55 -22z" />
    <glyph glyph-name="zero.dnom" 
d="M64.5 47q-40.5 57 -40.5 158t40.5 158t113.5 57q74 0 114.5 -57t40.5 -158t-40.5 -158t-114.5 -57q-73 0 -113.5 57zM242.5 91q22.5 40 22.5 114t-22.5 114.5t-64.5 40.5q-41 0 -63 -40.5t-22 -114.5q0 -73 22 -113.5t63 -40.5q42 0 64.5 40z" />
    <glyph glyph-name="one.dnom" 
d="M49 59h112v284l-109 -43v60l155 60h18v-361h92v-59h-268v59z" />
    <glyph glyph-name="two.dnom" 
d="M153.5 154q41.5 36 67.5 73t26 74q0 30 -18.5 46.5t-51.5 16.5q-35 0 -55 -23.5t-26 -53.5l-63 16q6 45 43.5 81t102.5 36q60 0 97.5 -32t37.5 -85q0 -64 -52 -122t-143 -123h203v-58h-286v61q76 57 117.5 93z" />
    <glyph glyph-name="three.dnom" 
d="M64.5 26q-37.5 36 -42.5 82l64 16q3 -28 24.5 -51t59.5 -23q36 0 57.5 20.5t21.5 53.5q0 37 -23.5 57t-55.5 20q-13 0 -34 -7l-27 48l113 114h-179v59h267v-49l-117 -121q50 -2 87 -35t37 -87q0 -37 -18.5 -67t-52 -48t-76.5 -18q-68 0 -105.5 36z" />
    <glyph glyph-name="four.dnom" 
d="M338 162v-55h-54v-107h-64v107h-205v48l129 260h69l-125 -253h132v82h64v-82h54z" />
    <glyph glyph-name="five.dnom" 
d="M277.5 235.5q40.5 -35.5 40.5 -101.5t-43 -105t-106 -39q-46 0 -77 17.5t-46.5 40.5t-18.5 41l63 15q4 -16 23.5 -34.5t55.5 -18.5t58 21.5t22 62.5q0 37 -22 58.5t-57 21.5q-24 0 -42.5 -10t-29.5 -23l-59 24l17 209h234v-60h-177l-10 -110q8 10 29 18t50 8
q55 0 95.5 -35.5z" />
    <glyph glyph-name="six.dnom" 
d="M65 43.5q-44 53.5 -44 151.5q0 68 21.5 119t60 78.5t87.5 27.5q47 0 81.5 -19t52.5 -53l-47 -36q-12 23 -35.5 35.5t-49.5 12.5q-50 0 -79 -43.5t-29 -113.5q15 28 43.5 43t63.5 15q57 0 96.5 -36.5t39.5 -96.5q0 -40 -20 -71.5t-52.5 -49t-70.5 -17.5q-75 0 -119 53.5z
M235 70q23 22 23 57q0 36 -22.5 57t-55.5 21t-56.5 -21.5t-23.5 -55.5t24 -57t56 -23t55 22z" />
    <glyph glyph-name="seven.dnom" 
d="M267 357h-212v58h282v-46l-174 -369h-70z" />
    <glyph glyph-name="eight.dnom" 
d="M67.5 24.5q-40.5 34.5 -40.5 89.5q0 41 23 65t58 38q-29 11 -50 35.5t-21 57.5q0 47 37.5 78.5t99.5 31.5q63 0 100.5 -31t37.5 -79q0 -33 -21 -58t-50 -35q81 -30 81 -103q0 -55 -40.5 -89.5t-107.5 -34.5q-66 0 -106.5 34.5zM224.5 260q21.5 17 21.5 46q0 25 -20.5 41
t-51.5 16q-30 0 -50.5 -16t-20.5 -41q0 -28 21.5 -45.5t49.5 -17.5q29 0 50.5 17zM233.5 66q22.5 19 22.5 50q0 34 -24 53t-58 19q-33 0 -57 -19.5t-24 -52.5q0 -31 22.5 -50t58.5 -19q37 0 59.5 19z" />
    <glyph glyph-name="nine.dnom" 
d="M282 366.5q44 -53.5 44 -151.5q0 -68 -21.5 -119t-60 -78.5t-87.5 -27.5q-47 0 -81 19.5t-52 53.5l45 37q13 -24 36 -36.5t49 -12.5q50 0 79.5 43.5t29.5 113.5q-15 -28 -44 -43.5t-64 -15.5q-57 0 -96 37t-39 97q0 40 20 71t52.5 48.5t70.5 17.5q75 0 119 -53.5z
M112 340q-23 -22 -23 -56q0 -36 22.5 -57.5t55.5 -21.5q32 0 56 22t24 55q0 34 -24 57t-56 23t-55 -22z" />
    <glyph glyph-name="zero.numr" 
d="M64.5 319q-40.5 57 -40.5 158t40.5 158t113.5 57q74 0 114.5 -57t40.5 -158t-40.5 -158t-114.5 -57q-73 0 -113.5 57zM242.5 363q22.5 40 22.5 114t-22.5 114.5t-64.5 40.5q-41 0 -63 -40.5t-22 -114.5q0 -73 22 -113.5t63 -40.5q42 0 64.5 40z" />
    <glyph glyph-name="one.numr" 
d="M49 331h112v284l-109 -43v60l155 60h18v-361h92v-59h-268v59z" />
    <glyph glyph-name="two.numr" 
d="M153.5 426q41.5 36 67.5 73t26 74q0 30 -18.5 46.5t-51.5 16.5q-35 0 -55 -23.5t-26 -53.5l-63 16q6 45 43.5 81t102.5 36q60 0 97.5 -32t37.5 -85q0 -64 -52 -122t-143 -123h203v-58h-286v61q76 57 117.5 93z" />
    <glyph glyph-name="three.numr" 
d="M64.5 298q-37.5 36 -42.5 82l64 16q3 -28 24.5 -51t59.5 -23q36 0 57.5 20.5t21.5 53.5q0 37 -23.5 57t-55.5 20q-13 0 -34 -7l-27 48l113 114h-179v59h267v-49l-117 -121q50 -2 87 -35t37 -87q0 -37 -18.5 -67t-52 -48t-76.5 -18q-68 0 -105.5 36z" />
    <glyph glyph-name="four.numr" 
d="M338 434v-55h-54v-107h-64v107h-205v48l129 260h69l-125 -253h132v82h64v-82h54z" />
    <glyph glyph-name="five.numr" 
d="M277.5 507.5q40.5 -35.5 40.5 -101.5t-43 -105t-106 -39q-46 0 -77 17.5t-46.5 40.5t-18.5 41l63 15q4 -16 23.5 -34.5t55.5 -18.5t58 21.5t22 62.5q0 37 -22 58.5t-57 21.5q-24 0 -42.5 -10t-29.5 -23l-59 24l17 209h234v-60h-177l-10 -110q8 10 29 18t50 8
q55 0 95.5 -35.5z" />
    <glyph glyph-name="six.numr" 
d="M65 315.5q-44 53.5 -44 151.5q0 68 21.5 119t60 78.5t87.5 27.5q47 0 81.5 -19t52.5 -53l-47 -36q-12 23 -35.5 35.5t-49.5 12.5q-50 0 -79 -43.5t-29 -113.5q15 28 43.5 43t63.5 15q57 0 96.5 -36.5t39.5 -96.5q0 -40 -20 -71.5t-52.5 -49t-70.5 -17.5q-75 0 -119 53.5z
M235 342q23 22 23 57q0 36 -22.5 57t-55.5 21t-56.5 -21.5t-23.5 -55.5t24 -57t56 -23t55 22z" />
    <glyph glyph-name="seven.numr" 
d="M267 630h-212v58h282v-46l-174 -369h-70z" />
    <glyph glyph-name="eight.numr" 
d="M67.5 296.5q-40.5 34.5 -40.5 89.5q0 41 23 65t58 38q-29 11 -50 35.5t-21 57.5q0 47 37.5 78.5t99.5 31.5q63 0 100.5 -31t37.5 -79q0 -33 -21 -58t-50 -35q81 -30 81 -103q0 -55 -40.5 -89.5t-107.5 -34.5q-66 0 -106.5 34.5zM224.5 532q21.5 17 21.5 46q0 25 -20.5 41
t-51.5 16q-30 0 -50.5 -16t-20.5 -41q0 -28 21.5 -45.5t49.5 -17.5q29 0 50.5 17zM233.5 338q22.5 19 22.5 50q0 34 -24 53t-58 19q-33 0 -57 -19.5t-24 -52.5q0 -31 22.5 -50t58.5 -19q37 0 59.5 19z" />
    <glyph glyph-name="nine.numr" 
d="M282 638.5q44 -53.5 44 -151.5q0 -68 -21.5 -119t-60 -78.5t-87.5 -27.5q-47 0 -81 19.5t-52 53.5l45 37q13 -24 36 -36.5t49 -12.5q50 0 79.5 43.5t29.5 113.5q-15 -28 -44 -43.5t-64 -15.5q-57 0 -96 37t-39 97q0 40 20 71t52.5 48.5t70.5 17.5q75 0 119 -53.5z
M112 612q-23 -22 -23 -56q0 -36 22.5 -57.5t55.5 -21.5q32 0 56 22t24 55q0 34 -24 57t-56 23t-55 -22z" />
    <glyph glyph-name="uni2070" unicode="&#x2070;" 
d="M64.5 419q-40.5 57 -40.5 158t40.5 158t113.5 57q74 0 114.5 -57t40.5 -158t-40.5 -158t-114.5 -57q-73 0 -113.5 57zM242.5 463q22.5 40 22.5 114t-22.5 114.5t-64.5 40.5q-41 0 -63 -40.5t-22 -114.5q0 -73 22 -113.5t63 -40.5q42 0 64.5 40z" />
    <glyph glyph-name="uni00B9" unicode="&#xb9;" 
d="M49 431h112v284l-109 -43v60l155 60h18v-361h92v-59h-268v59z" />
    <glyph glyph-name="uni00B2" unicode="&#xb2;" 
d="M153.5 526q41.5 36 67.5 73t26 74q0 30 -18.5 46.5t-51.5 16.5q-35 0 -55 -23.5t-26 -53.5l-63 16q6 45 43.5 81t102.5 36q60 0 97.5 -32t37.5 -85q0 -64 -52 -122t-143 -123h203v-58h-286v61q76 57 117.5 93z" />
    <glyph glyph-name="uni00B3" unicode="&#xb3;" 
d="M64.5 398q-37.5 36 -42.5 82l64 16q3 -28 24.5 -51t59.5 -23q36 0 57.5 20.5t21.5 53.5q0 37 -23.5 57t-55.5 20q-13 0 -34 -7l-27 48l113 114h-179v59h267v-49l-117 -121q50 -2 87 -35t37 -87q0 -37 -18.5 -67t-52 -48t-76.5 -18q-68 0 -105.5 36z" />
    <glyph glyph-name="uni2074" unicode="&#x2074;" 
d="M338 534v-55h-54v-107h-64v107h-205v48l129 260h69l-125 -253h132v82h64v-82h54z" />
    <glyph glyph-name="uni2075" unicode="&#x2075;" 
d="M277.5 607.5q40.5 -35.5 40.5 -101.5t-43 -105t-106 -39q-46 0 -77 17.5t-46.5 40.5t-18.5 41l63 15q4 -16 23.5 -34.5t55.5 -18.5t58 21.5t22 62.5q0 37 -22 58.5t-57 21.5q-24 0 -42.5 -10t-29.5 -23l-59 24l17 209h234v-60h-177l-10 -110q8 10 29 18t50 8
q55 0 95.5 -35.5z" />
    <glyph glyph-name="uni2076" unicode="&#x2076;" 
d="M65 415.5q-44 53.5 -44 151.5q0 68 21.5 119t60 78.5t87.5 27.5q47 0 81.5 -19t52.5 -53l-47 -36q-12 23 -35.5 35.5t-49.5 12.5q-50 0 -79 -43.5t-29 -113.5q15 28 43.5 43t63.5 15q57 0 96.5 -36.5t39.5 -96.5q0 -40 -20 -71.5t-52.5 -49t-70.5 -17.5q-75 0 -119 53.5z
M235 442q23 22 23 57q0 36 -22.5 57t-55.5 21t-56.5 -21.5t-23.5 -55.5t24 -57t56 -23t55 22z" />
    <glyph glyph-name="uni2077" unicode="&#x2077;" 
d="M267 729h-212v58h282v-46l-174 -369h-70z" />
    <glyph glyph-name="uni2078" unicode="&#x2078;" 
d="M67.5 396.5q-40.5 34.5 -40.5 89.5q0 41 23 65t58 38q-29 11 -50 35.5t-21 57.5q0 47 37.5 78.5t99.5 31.5q63 0 100.5 -31t37.5 -79q0 -33 -21 -58t-50 -35q81 -30 81 -103q0 -55 -40.5 -89.5t-107.5 -34.5q-66 0 -106.5 34.5zM224.5 632q21.5 17 21.5 46q0 25 -20.5 41
t-51.5 16q-30 0 -50.5 -16t-20.5 -41q0 -28 21.5 -45.5t49.5 -17.5q29 0 50.5 17zM233.5 438q22.5 19 22.5 50q0 34 -24 53t-58 19q-33 0 -57 -19.5t-24 -52.5q0 -31 22.5 -50t58.5 -19q37 0 59.5 19z" />
    <glyph glyph-name="uni2079" unicode="&#x2079;" 
d="M282 738.5q44 -53.5 44 -151.5q0 -68 -21.5 -119t-60 -78.5t-87.5 -27.5q-47 0 -81 19.5t-52 53.5l45 37q13 -24 36 -36.5t49 -12.5q50 0 79.5 43.5t29.5 113.5q-15 -28 -44 -43.5t-64 -15.5q-57 0 -96 37t-39 97q0 40 20 71t52.5 48.5t70.5 17.5q75 0 119 -53.5z
M112 712q-23 -22 -23 -56q0 -36 22.5 -57.5t55.5 -21.5q32 0 56 22t24 55q0 34 -24 57t-56 23t-55 -22z" />
    <glyph glyph-name="fraction" unicode="&#x2044;" horiz-adv-x="190" 
d="M250 690h68l-358 -690h-68z" />
    <glyph glyph-name="onehalf" unicode="&#xbd;" horiz-adv-x="890" 
d="M49 331h112v284l-109 -43v60l155 60h18v-361h92v-59h-268v59zM600 690h68l-358 -690h-68zM693.5 154q41.5 36 67.5 73t26 74q0 30 -18.5 46.5t-51.5 16.5q-35 0 -55 -23.5t-26 -53.5l-63 16q6 45 43.5 81t102.5 36q60 0 97.5 -32t37.5 -85q0 -64 -52 -122t-143 -123h203
v-58h-286v61q76 57 117.5 93z" />
    <glyph glyph-name="uni2153" unicode="&#x2153;" horiz-adv-x="890" 
d="M49 331h112v284l-109 -43v60l155 60h18v-361h92v-59h-268v59zM600 690h68l-358 -690h-68zM604.5 26q-37.5 36 -42.5 82l64 16q3 -28 24.5 -51t59.5 -23q36 0 57.5 20.5t21.5 53.5q0 37 -23.5 57t-55.5 20q-13 0 -34 -7l-27 48l113 114h-179v59h267v-49l-117 -121
q50 -2 87 -35t37 -87q0 -37 -18.5 -67t-52 -48t-76.5 -18q-68 0 -105.5 36z" />
    <glyph glyph-name="uni2154" unicode="&#x2154;" horiz-adv-x="890" 
d="M153.5 426q41.5 36 67.5 73t26 74q0 30 -18.5 46.5t-51.5 16.5q-35 0 -55 -23.5t-26 -53.5l-63 16q6 45 43.5 81t102.5 36q60 0 97.5 -32t37.5 -85q0 -64 -52 -122t-143 -123h203v-58h-286v61q76 57 117.5 93zM600 690h68l-358 -690h-68zM604.5 26q-37.5 36 -42.5 82
l64 16q3 -28 24.5 -51t59.5 -23q36 0 57.5 20.5t21.5 53.5q0 37 -23.5 57t-55.5 20q-13 0 -34 -7l-27 48l113 114h-179v59h267v-49l-117 -121q50 -2 87 -35t37 -87q0 -37 -18.5 -67t-52 -48t-76.5 -18q-68 0 -105.5 36z" />
    <glyph glyph-name="onequarter" unicode="&#xbc;" horiz-adv-x="890" 
d="M49 331h112v284l-109 -43v60l155 60h18v-361h92v-59h-268v59zM600 690h68l-358 -690h-68zM878 162v-55h-54v-107h-64v107h-205v48l129 260h69l-125 -253h132v82h64v-82h54z" />
    <glyph glyph-name="threequarters" unicode="&#xbe;" horiz-adv-x="890" 
d="M64.5 298q-37.5 36 -42.5 82l64 16q3 -28 24.5 -51t59.5 -23q36 0 57.5 20.5t21.5 53.5q0 37 -23.5 57t-55.5 20q-13 0 -34 -7l-27 48l113 114h-179v59h267v-49l-117 -121q50 -2 87 -35t37 -87q0 -37 -18.5 -67t-52 -48t-76.5 -18q-68 0 -105.5 36zM600 690h68l-358 -690
h-68zM878 162v-55h-54v-107h-64v107h-205v48l129 260h69l-125 -253h132v82h64v-82h54z" />
    <glyph glyph-name="uni2155" unicode="&#x2155;" horiz-adv-x="890" 
d="M49 331h112v284l-109 -43v60l155 60h18v-361h92v-59h-268v59zM600 690h68l-358 -690h-68zM817.5 235.5q40.5 -35.5 40.5 -101.5t-43 -105t-106 -39q-46 0 -77 17.5t-46.5 40.5t-18.5 41l63 15q4 -16 23.5 -34.5t55.5 -18.5t58 21.5t22 62.5q0 37 -22 58.5t-57 21.5
q-24 0 -42.5 -10t-29.5 -23l-59 24l17 209h234v-60h-177l-10 -110q8 10 29 18t50 8q55 0 95.5 -35.5z" />
    <glyph glyph-name="uni2156" unicode="&#x2156;" horiz-adv-x="890" 
d="M153.5 426q41.5 36 67.5 73t26 74q0 30 -18.5 46.5t-51.5 16.5q-35 0 -55 -23.5t-26 -53.5l-63 16q6 45 43.5 81t102.5 36q60 0 97.5 -32t37.5 -85q0 -64 -52 -122t-143 -123h203v-58h-286v61q76 57 117.5 93zM600 690h68l-358 -690h-68zM817.5 235.5
q40.5 -35.5 40.5 -101.5t-43 -105t-106 -39q-46 0 -77 17.5t-46.5 40.5t-18.5 41l63 15q4 -16 23.5 -34.5t55.5 -18.5t58 21.5t22 62.5q0 37 -22 58.5t-57 21.5q-24 0 -42.5 -10t-29.5 -23l-59 24l17 209h234v-60h-177l-10 -110q8 10 29 18t50 8q55 0 95.5 -35.5z" />
    <glyph glyph-name="uni2157" unicode="&#x2157;" horiz-adv-x="890" 
d="M64.5 298q-37.5 36 -42.5 82l64 16q3 -28 24.5 -51t59.5 -23q36 0 57.5 20.5t21.5 53.5q0 37 -23.5 57t-55.5 20q-13 0 -34 -7l-27 48l113 114h-179v59h267v-49l-117 -121q50 -2 87 -35t37 -87q0 -37 -18.5 -67t-52 -48t-76.5 -18q-68 0 -105.5 36zM600 690h68l-358 -690
h-68zM817.5 235.5q40.5 -35.5 40.5 -101.5t-43 -105t-106 -39q-46 0 -77 17.5t-46.5 40.5t-18.5 41l63 15q4 -16 23.5 -34.5t55.5 -18.5t58 21.5t22 62.5q0 37 -22 58.5t-57 21.5q-24 0 -42.5 -10t-29.5 -23l-59 24l17 209h234v-60h-177l-10 -110q8 10 29 18t50 8
q55 0 95.5 -35.5z" />
    <glyph glyph-name="uni2158" unicode="&#x2158;" horiz-adv-x="890" 
d="M338 434v-55h-54v-107h-64v107h-205v48l129 260h69l-125 -253h132v82h64v-82h54zM600 690h68l-358 -690h-68zM817.5 235.5q40.5 -35.5 40.5 -101.5t-43 -105t-106 -39q-46 0 -77 17.5t-46.5 40.5t-18.5 41l63 15q4 -16 23.5 -34.5t55.5 -18.5t58 21.5t22 62.5
q0 37 -22 58.5t-57 21.5q-24 0 -42.5 -10t-29.5 -23l-59 24l17 209h234v-60h-177l-10 -110q8 10 29 18t50 8q55 0 95.5 -35.5z" />
    <glyph glyph-name="uni2159" unicode="&#x2159;" horiz-adv-x="890" 
d="M49 331h112v284l-109 -43v60l155 60h18v-361h92v-59h-268v59zM600 690h68l-358 -690h-68zM605 43.5q-44 53.5 -44 151.5q0 68 21.5 119t60 78.5t87.5 27.5q47 0 81.5 -19t52.5 -53l-47 -36q-12 23 -35.5 35.5t-49.5 12.5q-50 0 -79 -43.5t-29 -113.5q15 28 43.5 43
t63.5 15q57 0 96.5 -36.5t39.5 -96.5q0 -40 -20 -71.5t-52.5 -49t-70.5 -17.5q-75 0 -119 53.5zM775 70q23 22 23 57q0 36 -22.5 57t-55.5 21t-56.5 -21.5t-23.5 -55.5t24 -57t56 -23t55 22z" />
    <glyph glyph-name="uni215A" unicode="&#x215a;" horiz-adv-x="890" 
d="M277.5 507.5q40.5 -35.5 40.5 -101.5t-43 -105t-106 -39q-46 0 -77 17.5t-46.5 40.5t-18.5 41l63 15q4 -16 23.5 -34.5t55.5 -18.5t58 21.5t22 62.5q0 37 -22 58.5t-57 21.5q-24 0 -42.5 -10t-29.5 -23l-59 24l17 209h234v-60h-177l-10 -110q8 10 29 18t50 8
q55 0 95.5 -35.5zM600 690h68l-358 -690h-68zM605 43.5q-44 53.5 -44 151.5q0 68 21.5 119t60 78.5t87.5 27.5q47 0 81.5 -19t52.5 -53l-47 -36q-12 23 -35.5 35.5t-49.5 12.5q-50 0 -79 -43.5t-29 -113.5q15 28 43.5 43t63.5 15q57 0 96.5 -36.5t39.5 -96.5
q0 -40 -20 -71.5t-52.5 -49t-70.5 -17.5q-75 0 -119 53.5zM775 70q23 22 23 57q0 36 -22.5 57t-55.5 21t-56.5 -21.5t-23.5 -55.5t24 -57t56 -23t55 22z" />
    <glyph glyph-name="oneeighth" unicode="&#x215b;" horiz-adv-x="890" 
d="M49 331h112v284l-109 -43v60l155 60h18v-361h92v-59h-268v59zM600 690h68l-358 -690h-68zM607.5 24.5q-40.5 34.5 -40.5 89.5q0 41 23 65t58 38q-29 11 -50 35.5t-21 57.5q0 47 37.5 78.5t99.5 31.5q63 0 100.5 -31t37.5 -79q0 -33 -21 -58t-50 -35q81 -30 81 -103
q0 -55 -40.5 -89.5t-107.5 -34.5q-66 0 -106.5 34.5zM764.5 260q21.5 17 21.5 46q0 25 -20.5 41t-51.5 16q-30 0 -50.5 -16t-20.5 -41q0 -28 21.5 -45.5t49.5 -17.5q29 0 50.5 17zM773.5 66q22.5 19 22.5 50q0 34 -24 53t-58 19q-33 0 -57 -19.5t-24 -52.5q0 -31 22.5 -50
t58.5 -19q37 0 59.5 19z" />
    <glyph glyph-name="threeeighths" unicode="&#x215c;" horiz-adv-x="890" 
d="M64.5 298q-37.5 36 -42.5 82l64 16q3 -28 24.5 -51t59.5 -23q36 0 57.5 20.5t21.5 53.5q0 37 -23.5 57t-55.5 20q-13 0 -34 -7l-27 48l113 114h-179v59h267v-49l-117 -121q50 -2 87 -35t37 -87q0 -37 -18.5 -67t-52 -48t-76.5 -18q-68 0 -105.5 36zM600 690h68l-358 -690
h-68zM607.5 24.5q-40.5 34.5 -40.5 89.5q0 41 23 65t58 38q-29 11 -50 35.5t-21 57.5q0 47 37.5 78.5t99.5 31.5q63 0 100.5 -31t37.5 -79q0 -33 -21 -58t-50 -35q81 -30 81 -103q0 -55 -40.5 -89.5t-107.5 -34.5q-66 0 -106.5 34.5zM764.5 260q21.5 17 21.5 46
q0 25 -20.5 41t-51.5 16q-30 0 -50.5 -16t-20.5 -41q0 -28 21.5 -45.5t49.5 -17.5q29 0 50.5 17zM773.5 66q22.5 19 22.5 50q0 34 -24 53t-58 19q-33 0 -57 -19.5t-24 -52.5q0 -31 22.5 -50t58.5 -19q37 0 59.5 19z" />
    <glyph glyph-name="fiveeighths" unicode="&#x215d;" horiz-adv-x="890" 
d="M277.5 507.5q40.5 -35.5 40.5 -101.5t-43 -105t-106 -39q-46 0 -77 17.5t-46.5 40.5t-18.5 41l63 15q4 -16 23.5 -34.5t55.5 -18.5t58 21.5t22 62.5q0 37 -22 58.5t-57 21.5q-24 0 -42.5 -10t-29.5 -23l-59 24l17 209h234v-60h-177l-10 -110q8 10 29 18t50 8
q55 0 95.5 -35.5zM600 690h68l-358 -690h-68zM607.5 24.5q-40.5 34.5 -40.5 89.5q0 41 23 65t58 38q-29 11 -50 35.5t-21 57.5q0 47 37.5 78.5t99.5 31.5q63 0 100.5 -31t37.5 -79q0 -33 -21 -58t-50 -35q81 -30 81 -103q0 -55 -40.5 -89.5t-107.5 -34.5q-66 0 -106.5 34.5z
M764.5 260q21.5 17 21.5 46q0 25 -20.5 41t-51.5 16q-30 0 -50.5 -16t-20.5 -41q0 -28 21.5 -45.5t49.5 -17.5q29 0 50.5 17zM773.5 66q22.5 19 22.5 50q0 34 -24 53t-58 19q-33 0 -57 -19.5t-24 -52.5q0 -31 22.5 -50t58.5 -19q37 0 59.5 19z" />
    <glyph glyph-name="seveneighths" unicode="&#x215e;" horiz-adv-x="890" 
d="M267 630h-212v58h282v-46l-174 -369h-70zM600 690h68l-358 -690h-68zM607.5 24.5q-40.5 34.5 -40.5 89.5q0 41 23 65t58 38q-29 11 -50 35.5t-21 57.5q0 47 37.5 78.5t99.5 31.5q63 0 100.5 -31t37.5 -79q0 -33 -21 -58t-50 -35q81 -30 81 -103q0 -55 -40.5 -89.5
t-107.5 -34.5q-66 0 -106.5 34.5zM764.5 260q21.5 17 21.5 46q0 25 -20.5 41t-51.5 16q-30 0 -50.5 -16t-20.5 -41q0 -28 21.5 -45.5t49.5 -17.5q29 0 50.5 17zM773.5 66q22.5 19 22.5 50q0 34 -24 53t-58 19q-33 0 -57 -19.5t-24 -52.5q0 -31 22.5 -50t58.5 -19
q37 0 59.5 19z" />
    <glyph glyph-name="period" unicode="." horiz-adv-x="253" 
d="M79.5 9q-19.5 19 -19.5 46q0 26 19.5 44.5t47.5 18.5q27 0 46.5 -18.5t19.5 -44.5q0 -27 -19.5 -46t-46.5 -19q-28 0 -47.5 19z" />
    <glyph glyph-name="comma" unicode="," horiz-adv-x="254" 
d="M121 -11q-25 4 -44 21t-19 44t19 45.5t47 18.5t48.5 -20t20.5 -57q0 -94 -105 -216l-40 34q57 71 73 130z" />
    <glyph glyph-name="colon" unicode=":" horiz-adv-x="297" 
d="M195.5 491q19.5 -19 19.5 -46q0 -26 -19.5 -44.5t-46.5 -18.5q-28 0 -47.5 18.5t-19.5 44.5q0 27 19.5 46t47.5 19q27 0 46.5 -19zM101.5 9q-19.5 19 -19.5 46q0 26 19.5 44.5t47.5 18.5q27 0 46.5 -18.5t19.5 -44.5q0 -27 -19.5 -46t-46.5 -19q-28 0 -47.5 19z" />
    <glyph glyph-name="semicolon" unicode=";" horiz-adv-x="308" 
d="M206.5 491q19.5 -19 19.5 -46q0 -26 -20 -44.5t-47 -18.5t-46.5 18.5t-19.5 44.5q0 27 19.5 46t46.5 19q28 0 47.5 -19zM156 -11q-25 4 -44 21t-19 44t19 45.5t46 18.5q28 0 48 -19t20 -56q0 -55 -30.5 -112t-72.5 -106l-41 34q59 72 74 130z" />
    <glyph glyph-name="ellipsis" unicode="&#x2026;" horiz-adv-x="709" 
d="M79.5 9q-19.5 19 -19.5 46q0 26 19.5 44.5t47.5 18.5q27 0 46.5 -18.5t19.5 -44.5q0 -27 -19.5 -46t-46.5 -19q-28 0 -47.5 19zM307.5 9q-19.5 19 -19.5 46q0 26 19.5 44.5t47.5 18.5q27 0 46.5 -18.5t19.5 -44.5q0 -27 -19.5 -46t-46.5 -19q-28 0 -47.5 19zM535.5 9
q-19.5 19 -19.5 46q0 26 19.5 44.5t47.5 18.5q27 0 46.5 -18.5t19.5 -44.5q0 -27 -19.5 -46t-46.5 -19q-28 0 -47.5 19z" />
    <glyph glyph-name="exclam" unicode="!" horiz-adv-x="309" 
d="M107 710h95l-14 -509h-67zM112.5 6.5q-17.5 16.5 -17.5 40.5t17.5 40.5t42.5 16.5q24 0 41.5 -16.5t17.5 -40.5t-17.5 -40.5t-41.5 -16.5q-25 0 -42.5 16.5z" />
    <glyph glyph-name="exclamdown" unicode="&#xa1;" horiz-adv-x="309" 
d="M196.5 493.5q17.5 -16.5 17.5 -40.5t-17.5 -40.5t-41.5 -16.5q-25 0 -42.5 16.5t-17.5 40.5t17.5 40.5t42.5 16.5q24 0 41.5 -16.5zM121 299h67l14 -509h-95z" />
    <glyph glyph-name="question" unicode="?" horiz-adv-x="460" 
d="M280 446q46 30 46 88q0 45 -34.5 73t-91.5 28q-36 0 -68.5 -10t-52.5 -22l-29 66q25 16 66 28.5t88 12.5q95 0 150.5 -46t55.5 -126q0 -81 -53.5 -124t-117.5 -56v-157h-81v209q76 6 122 36zM157.5 6.5q-17.5 16.5 -17.5 40.5t17.5 40.5t41.5 16.5t41.5 -16.5t17.5 -40.5
t-17.5 -40.5t-41.5 -16.5t-41.5 16.5z" />
    <glyph glyph-name="questiondown" unicode="&#xbf;" horiz-adv-x="438" 
d="M302.5 493.5q17.5 -16.5 17.5 -40.5t-17.5 -40.5t-41.5 -16.5t-41.5 16.5t-17.5 40.5t17.5 40.5t41.5 16.5t41.5 -16.5zM180 54q-46 -30 -46 -88q0 -45 34.5 -73t91.5 -28q36 0 68 10t52 22l30 -66q-25 -16 -66 -28.5t-88 -12.5q-95 0 -151 46t-56 126q0 81 54 124
t118 56v157h80v-209q-75 -6 -121 -36z" />
    <glyph glyph-name="periodcentered" unicode="&#xb7;" horiz-adv-x="222" 
d="M63.5 259q-19.5 19 -19.5 46q0 26 19.5 44.5t47.5 18.5q27 0 46.5 -18.5t19.5 -44.5q0 -27 -19.5 -46t-46.5 -19q-28 0 -47.5 19z" />
    <glyph glyph-name="bullet" unicode="&#x2022;" horiz-adv-x="276" 
d="M72 241.5q-27 27.5 -27 66.5q0 38 27 65t66 27t66 -27t27 -65q0 -39 -27 -66.5t-66 -27.5t-66 27.5z" />
    <glyph glyph-name="asterisk" unicode="*" horiz-adv-x="481" 
d="M92 385l101 115l-148 31l27 82l138 -57l-15 150h90l-14 -151l137 59l29 -83l-148 -31l101 -114l-73 -52l-77 131l-76 -132z" />
    <glyph glyph-name="numbersign" unicode="#" horiz-adv-x="753" 
d="M658 448h-97l-26 -182h97v-68h-107l-28 -198h-74l28 198h-194l-28 -198h-73l28 198h-89v68h99l26 182h-99v68h109l26 184h73l-26 -184h194l26 184h74l-26 -184h87v-68zM461 266l26 182h-194l-26 -182h194z" />
    <glyph glyph-name="slash" unicode="/" horiz-adv-x="475" 
d="M42 -60l307 820h84l-306 -820h-85z" />
    <glyph glyph-name="backslash" unicode="\" horiz-adv-x="492" 
d="M365 -60l-307 820h84l308 -820h-85z" />
    <glyph glyph-name="period.tf" horiz-adv-x="250" 
d="M79.5 9q-19.5 19 -19.5 46q0 26 19.5 44.5t47.5 18.5q27 0 46.5 -18.5t19.5 -44.5q0 -27 -19.5 -46t-46.5 -19q-28 0 -47.5 19z" />
    <glyph glyph-name="comma.tf" horiz-adv-x="250" 
d="M121 -11q-25 4 -44 21t-19 44t19 45.5t47 18.5t48.5 -20t20.5 -57q0 -94 -105 -216l-40 34q57 71 73 130z" />
    <glyph glyph-name="colon.tf" horiz-adv-x="250" 
d="M171.5 491q19.5 -19 19.5 -46q0 -26 -19.5 -44.5t-46.5 -18.5q-28 0 -47.5 18.5t-19.5 44.5q0 27 19.5 46t47.5 19q27 0 46.5 -19zM77.5 9q-19.5 19 -19.5 46q0 26 19.5 44.5t47.5 18.5q27 0 46.5 -18.5t19.5 -44.5q0 -27 -19.5 -46t-46.5 -19q-28 0 -47.5 19z" />
    <glyph glyph-name="semicolon.tf" horiz-adv-x="250" 
d="M175.5 491q19.5 -19 19.5 -46q0 -26 -20 -44.5t-47 -18.5t-46.5 18.5t-19.5 44.5q0 27 19.5 46t46.5 19q28 0 47.5 -19zM125 -11q-25 4 -44 21t-19 44t19 45.5t46 18.5q28 0 48 -19t20 -56q0 -55 -30.5 -112t-72.5 -106l-41 34q59 72 74 130z" />
    <glyph glyph-name="parenleft" unicode="(" horiz-adv-x="286" 
d="M94 -23.5q-45 123.5 -45 283.5q0 258 147 500l71 -37q-50 -86 -90 -203t-40 -260q0 -104 22 -195t49 -152t61 -123l-71 -40q-59 103 -104 226.5z" />
    <glyph glyph-name="parenright" unicode=")" horiz-adv-x="286" 
d="M17 -210q34 62 61 123t49 152t22 195q0 143 -40 260t-90 203l71 37q147 -242 147 -500q0 -112 -25.5 -212t-56 -166.5t-66.5 -131.5z" />
    <glyph glyph-name="braceleft" unicode="{" horiz-adv-x="428" 
d="M204.5 -206.5q-57.5 43.5 -57.5 147.5v137q0 56 -5 82t-25.5 40t-67.5 14v77q47 0 68 15t25.5 42t4.5 84v127q0 105 58.5 152t172.5 49v-81q-61 -2 -91.5 -16t-42 -46t-11.5 -94v-113q0 -72 -13 -107t-51 -50q38 -16 51 -51t13 -106v-129q0 -49 10 -77.5t41 -44.5t94 -17
v-78q-116 0 -173.5 43.5z" />
    <glyph glyph-name="braceright" unicode="}" horiz-adv-x="428" 
d="M49 -172q63 1 94.5 17t41.5 44.5t10 77.5v129q0 71 13 106t50 51q-37 15 -50 50.5t-13 106.5v113q0 62 -11.5 94t-42 46t-92.5 16v81q114 -2 172.5 -49t58.5 -152v-127q0 -56 5 -83.5t25.5 -42.5t67.5 -15v-77q-47 0 -67.5 -14t-25.5 -40t-5 -82v-137q0 -105 -57 -148
t-174 -43v78z" />
    <glyph glyph-name="bracketleft" unicode="[" horiz-adv-x="387" 
d="M95 760h243v-75h-156v-848h156v-77h-243v1000z" />
    <glyph glyph-name="bracketright" unicode="]" horiz-adv-x="387" 
d="M292 -240h-243v77h157v848h-157v75h243v-1000z" />
    <glyph glyph-name="hyphen" unicode="-" horiz-adv-x="456" 
d="M82 319h292v-73h-292v73z" />
    <glyph glyph-name="uni00AD" unicode="&#xad;" horiz-adv-x="456" 
d="M82 319h292v-73h-292v73z" />
    <glyph glyph-name="endash" unicode="&#x2013;" horiz-adv-x="590" 
d="M507 319v-73h-425v73h425z" />
    <glyph glyph-name="emdash" unicode="&#x2014;" horiz-adv-x="763" 
d="M680 319v-73h-598v73h598z" />
    <glyph glyph-name="underscore" unicode="_" horiz-adv-x="402" 
d="M-2 72h406v-72h-406v72z" />
    <glyph glyph-name="quotesinglbase" unicode="&#x201a;" horiz-adv-x="234" 
d="M113 -11q-24 3 -41 18.5t-17 40.5q0 24 17 41t43 17q28 0 47.5 -18t19.5 -52q0 -48 -27.5 -99.5t-62.5 -94.5l-41 29q46 63 62 118z" />
    <glyph glyph-name="quotedblbase" unicode="&#x201e;" horiz-adv-x="410" 
d="M290 -11q-24 3 -41 18.5t-17 40.5q0 24 17 41t43 17q28 0 47.5 -18t19.5 -52q0 -48 -27.5 -99.5t-62.5 -94.5l-41 29q46 63 62 118zM113 -11q-24 3 -41 18.5t-17 40.5q0 24 17 41t43 17q28 0 47.5 -18t19.5 -52q0 -48 -27.5 -99.5t-62.5 -94.5l-41 29q46 63 62 118z" />
    <glyph glyph-name="quotedblleft" unicode="&#x201c;" horiz-adv-x="410" 
d="M121 562q23 -2 40.5 -17.5t17.5 -40.5q0 -24 -17.5 -41t-43.5 -17q-28 0 -47.5 18t-19.5 52q0 47 27.5 99t62.5 95l41 -29q-46 -65 -61 -119zM297 562q24 -2 41 -17.5t17 -40.5q0 -24 -17 -41t-43 -17q-29 0 -48 17.5t-19 52.5q0 47 27.5 99t62.5 95l41 -29
q-46 -63 -62 -119z" />
    <glyph glyph-name="quotedblright" unicode="&#x201d;" horiz-adv-x="410" 
d="M290 593q-24 3 -41 18.5t-17 40.5q0 24 17 41t43 17q28 0 47.5 -18t19.5 -52q0 -48 -27.5 -99.5t-62.5 -94.5l-41 29q46 63 62 118zM113 593q-24 3 -41 18.5t-17 40.5q0 24 17 41t43 17q28 0 47.5 -18t19.5 -52q0 -48 -27.5 -99.5t-62.5 -94.5l-41 29q46 63 62 118z" />
    <glyph glyph-name="quoteleft" unicode="&#x2018;" horiz-adv-x="234" 
d="M121 562q23 -2 40.5 -17.5t17.5 -40.5q0 -24 -17.5 -41t-43.5 -17q-28 0 -47.5 18t-19.5 52q0 47 27.5 99t62.5 95l41 -29q-46 -65 -61 -119z" />
    <glyph glyph-name="quoteright" unicode="&#x2019;" horiz-adv-x="234" 
d="M113 593q-24 3 -41 18.5t-17 40.5q0 24 17 41t43 17q28 0 47.5 -18t19.5 -52q0 -48 -27.5 -99.5t-62.5 -94.5l-41 29q46 63 62 118z" />
    <glyph glyph-name="guillemotleft" unicode="&#xab;" horiz-adv-x="557" 
d="M263 285l192 225l57 -50l-148 -175l148 -175l-57 -50zM45 285l192 225l57 -50l-148 -175l148 -175l-57 -50z" />
    <glyph glyph-name="guillemotright" unicode="&#xbb;" horiz-adv-x="557" 
d="M45 110l148 175l-148 175l56 50l193 -225l-193 -225zM263 110l148 175l-148 175l57 50l192 -225l-192 -225z" />
    <glyph glyph-name="guilsinglleft" unicode="&#x2039;" horiz-adv-x="338" 
d="M45 285l192 225l57 -50l-148 -175l148 -175l-57 -50z" />
    <glyph glyph-name="guilsinglright" unicode="&#x203a;" horiz-adv-x="338" 
d="M101 60l-56 50l148 175l-148 175l56 50l193 -225z" />
    <glyph glyph-name="quotedbl" unicode="&#x22;" horiz-adv-x="371" 
d="M218 661q0 20 14 34.5t37 14.5t37 -14.5t14 -34.5q0 -17 -3 -32l-27 -196h-41l-28 196q-3 15 -3 32zM51 661q0 20 14 34.5t37 14.5t37 -14.5t14 -34.5q0 -17 -3 -32l-27 -196h-41l-28 196q-3 15 -3 32z" />
    <glyph glyph-name="quotesingle" unicode="'" horiz-adv-x="204" 
d="M51 661q0 20 14 34.5t37 14.5t37 -14.5t14 -34.5q0 -17 -3 -32l-27 -196h-41l-28 196q-3 15 -3 32z" />
    <glyph glyph-name="uni00A0" unicode="&#xa0;" horiz-adv-x="287" 
 />
    <glyph glyph-name="cent" unicode="&#xa2;" horiz-adv-x="532" 
d="M437 24.5q-41 -25.5 -94 -32.5v-112h-86v114q-61 11 -109 46.5t-75.5 90t-27.5 119.5t27.5 119.5t75.5 90t109 46.5v106h86v-104q55 -8 95 -33.5t63 -56.5l-59 -53q-19 27 -53.5 48t-81.5 21q-49 0 -89 -23t-62.5 -65t-22.5 -96t22.5 -96t62.5 -65t89 -23q46 0 82.5 21.5
t54.5 47.5l60 -55q-26 -30 -67 -55.5z" />
    <glyph glyph-name="currency" unicode="&#xa4;" horiz-adv-x="666" 
d="M543 285l67 -67l-62 -63l-71 72q-65 -38 -140 -38q-80 0 -148 44l-77 -78l-62 63l76 76q-49 66 -49 155q0 80 40 142l-72 73l62 62l69 -70q70 53 161 53q86 0 156 -49l66 66l62 -62l-66 -67q43 -65 43 -148q0 -94 -55 -164zM188 354q23 -42 62 -65.5t87 -23.5t87.5 23.5
t62.5 65.5t23 95t-23 95t-62.5 65.5t-87.5 23.5t-87 -23.5t-62 -65.5t-23 -95t23 -95z" />
    <glyph glyph-name="dollar" unicode="$" horiz-adv-x="606" 
d="M498.5 63q-51.5 -53 -134.5 -68v-127h-86v123q-75 5 -131 38t-91 79l58 60q35 -44 82.5 -71.5t107.5 -27.5q73 0 114 33.5t41 86.5q0 52 -39 80t-106 46l-57 15q-78 20 -126 63t-48 127q0 72 54 124.5t141 63.5v113h86v-114q57 -7 99.5 -29.5t68.5 -47.5l-48 -67
q-28 27 -71 47.5t-95 20.5q-66 0 -104.5 -30.5t-38.5 -79.5q0 -50 31.5 -75.5t89.5 -41.5l58 -15q55 -15 96.5 -35t70.5 -59.5t29 -102.5q0 -76 -51.5 -129z" />
    <glyph glyph-name="Euro" unicode="&#x20ac;" horiz-adv-x="839" 
d="M796 120q-41 -55 -117 -92.5t-159 -37.5q-81 0 -153 33t-122.5 92.5t-71.5 137.5h-149l26 63h112q-1 11 -1 34q0 14 2 42h-93l25 62h80q22 76 72.5 134t121 90t149.5 32q84 0 160 -37t117 -93l-70 -51q-27 41 -84 70t-122 29q-87 0 -154 -46.5t-95 -127.5h293l-26 -62
h-281q-3 -21 -3 -42q0 -12 2 -34h261l-25 -63h-224q27 -84 95.5 -132.5t158.5 -48.5q65 0 122.5 29t87.5 69z" />
    <glyph glyph-name="florin" unicode="&#x192;" horiz-adv-x="452" 
d="M55.5 -223q-27.5 7 -44.5 15l20 70q11 -7 30.5 -12t38.5 -5q44 0 64 24.5t20 63.5v495h-114v72h114v75q0 71 44.5 113t116.5 42q30 0 57 -6.5t41 -14.5l-19 -71q-12 6 -31.5 11t-39.5 5q-44 0 -63.5 -23.5t-19.5 -62.5v-68h158v-72h-158v-503q0 -71 -43.5 -113
t-113.5 -42q-30 0 -57.5 7z" />
    <glyph glyph-name="uni20BA" unicode="&#x20ba;" horiz-adv-x="647" 
d="M53 435l105 55v210h87v-163l154 84v-76l-346 -186v76zM53 203v75l346 186v-76l-154 -83v-227h25q119 0 187.5 68.5t73.5 190.5l86 -18q-8 -150 -96.5 -234.5t-242.5 -84.5h-120v258z" />
    <glyph glyph-name="uni20BD" unicode="&#x20bd;" horiz-adv-x="655" 
d="M53 115v75h81v78h-81v75h81v357h230q73 0 129.5 -25.5t88.5 -75.5t32 -119q0 -67 -32.5 -115t-87.5 -72.5t-121 -24.5h-153v-78h232v-75h-232v-115h-86v115h-81zM481 379q45 36 45 104q0 64 -45 101.5t-122 37.5h-139v-279h144q72 0 117 36z" />
    <glyph glyph-name="sterling" unicode="&#xa3;" horiz-adv-x="644" 
d="M363 0q-27 10 -63 30q-26 15 -44 22.5t-34 7.5q-30 0 -48.5 -16.5t-24.5 -43.5h-86q7 52 39 89.5t82 46.5q28 56 28 106q0 39 -19 77h-137v66h117q-37 62 -37 126q0 59 30 104t83.5 70t121.5 25q99 0 183 -56l-32 -72q-36 22 -69 34.5t-79 12.5q-62 0 -104.5 -35
t-42.5 -91q0 -34 10.5 -62t27.5 -56h256v-66h-235q14 -34 14 -77q0 -52 -30 -112q14 -5 33 -17t26 -16q22 -14 42 -21t42 -7q41 0 62.5 25.5t25.5 58.5h87q-6 -64 -47.5 -113.5t-118.5 -49.5q-32 0 -59 10z" />
    <glyph glyph-name="yen" unicode="&#xa5;" horiz-adv-x="674" 
d="M658 700l-242 -334h136v-63h-172v-83h172v-62h-172v-158h-85v158h-171v62h171v83h-171v63h135l-242 334h101l219 -308l220 308h101z" />
    <glyph glyph-name="uni2219" unicode="&#x2219;" horiz-adv-x="253" 
d="M79.5 259q-19.5 19 -19.5 46q0 26 19.5 44.5t47.5 18.5q27 0 46.5 -18.5t19.5 -44.5q0 -27 -19.5 -46t-46.5 -19q-28 0 -47.5 19z" />
    <glyph glyph-name="uni2215" unicode="&#x2215;" horiz-adv-x="492" 
d="M42 -60l307 820h84l-306 -820h-85z" />
    <glyph glyph-name="plus" unicode="+" horiz-adv-x="525" 
d="M222 281h-177v80h177v177h80v-177h178v-80h-178v-178h-80v178z" />
    <glyph glyph-name="minus" unicode="&#x2212;" horiz-adv-x="483" 
d="M45 360h393v-80h-393v80z" />
    <glyph glyph-name="multiply" unicode="&#xd7;" horiz-adv-x="454" 
d="M170 335l-125 126l56 56l126 -126l125 126l57 -56l-126 -127l126 -125l-56 -56l-126 126l-126 -126l-56 56z" />
    <glyph glyph-name="divide" unicode="&#xf7;" horiz-adv-x="507" 
d="M215 459q-16 16 -16 39t16 39t39 16t39 -16t16 -39t-16 -39t-39 -16t-39 16zM45 365h418v-80h-418v80zM215 112q-16 16 -16 39t16 39.5t39 16.5t39 -16.5t16 -39.5t-16 -39t-39 -16t-39 16z" />
    <glyph glyph-name="equal" unicode="=" horiz-adv-x="483" 
d="M45 277h393v-80h-393v80zM45 446h393v-80h-393v80z" />
    <glyph glyph-name="notequal" unicode="&#x2260;" horiz-adv-x="483" 
d="M438 366h-131l-31 -89h162v-80h-190l-69 -197h-73l69 197h-130v80h159l31 89h-190v79h218l60 171h72l-60 -171h103v-79z" />
    <glyph glyph-name="greater" unicode="&#x3e;" horiz-adv-x="493" 
d="M45 227l311 109l-311 107v84l403 -151v-82l-403 -152v85z" />
    <glyph glyph-name="less" unicode="&#x3c;" horiz-adv-x="493" 
d="M448 142l-403 152v82l403 151v-84l-311 -107l311 -109v-85z" />
    <glyph glyph-name="greaterequal" unicode="&#x2265;" horiz-adv-x="493" 
d="M356 317l-311 108v84l403 -151v-82l-403 -152v85zM45 70h403v-70h-403v70z" />
    <glyph glyph-name="lessequal" unicode="&#x2264;" horiz-adv-x="493" 
d="M448 209v-85l-403 152v82l403 151v-84l-311 -108zM448 0h-403v70h403v-70z" />
    <glyph glyph-name="plusminus" unicode="&#xb1;" horiz-adv-x="525" 
d="M222 327h-177v80h177v177h80v-177h178v-80h-178v-178h-80v178zM45 73h435v-73h-435v73z" />
    <glyph glyph-name="approxequal" unicode="&#x2248;" horiz-adv-x="473" 
d="M291 346q-21 5 -42 11q-57 19 -93 19q-55 0 -111 -28v77q61 27 112 27q24 0 44.5 -4.5t58.5 -15.5q51 -15 71 -15q29 0 54.5 9t43.5 22v-78q-24 -13 -47 -21t-54 -8q-16 0 -37 5zM291 190q-21 5 -42 11q-57 19 -93 19q-55 0 -111 -28v78q61 27 112 27q24 0 44.5 -4.5
t58.5 -15.5q51 -15 71 -15q55 0 98 31v-79q-49 -29 -101 -29q-16 0 -37 5z" />
    <glyph glyph-name="asciitilde" unicode="~" horiz-adv-x="445" 
d="M272.5 253q-19.5 5 -38.5 11q-53 19 -85 19q-53 0 -104 -28v78q24 11 48 19t56 8q37 0 95 -20q47 -15 66 -15q50 0 90 31v-79q-23 -13 -44 -21t-49 -8q-15 0 -34.5 5z" />
    <glyph glyph-name="logicalnot" unicode="&#xac;" horiz-adv-x="542" 
d="M415 264h-370v80h453v-344h-83v264z" />
    <glyph glyph-name="asciicircum" unicode="^" horiz-adv-x="541" 
d="M237 700h69l191 -416h-89l-137 312l-139 -312h-87z" />
    <glyph glyph-name="emptyset" unicode="&#x2205;" horiz-adv-x="813" 
d="M735.5 490.5q28.5 -66.5 28.5 -140.5q0 -98 -47.5 -180.5t-129.5 -131t-180 -48.5q-110 0 -201 62l-42 -52h-93l80 98q-48 50 -75 115t-27 137q0 98 48 180.5t130 131t180 48.5q106 0 196 -58l39 48h90l-75 -93q50 -50 78.5 -116.5zM158 250q17 -47 48 -84l343 420
q-64 42 -142 42q-72 0 -133 -36.5t-97 -100t-36 -141.5q0 -53 17 -100zM539.5 108q60.5 36 96.5 100t36 142q0 55 -18.5 103.5t-51.5 86.5l-343 -422q68 -46 148 -46q72 0 132.5 36z" />
    <glyph glyph-name="infinity" unicode="&#x221e;" horiz-adv-x="811" 
d="M128 174.5q-38 23.5 -60.5 63.5t-22.5 87q0 49 22.5 89t62 63t88.5 23q52 0 96.5 -32t96.5 -88q47 57 92 88.5t100 31.5q74 0 118.5 -48t44.5 -124v-1q0 -49 -23 -89.5t-62.5 -63.5t-85.5 -23q-34 0 -64 14.5t-56.5 37.5t-68.5 66q-47 -54 -92.5 -86t-101.5 -32
q-46 0 -84 23.5zM275 248.5q27 20.5 64 60.5l16 16l-15 17q-38 42 -65.5 62.5t-63.5 20.5q-37 0 -64 -30.5t-27 -71.5q0 -39 29 -67t68 -28q31 0 58 20.5zM662.5 255.5q26.5 29.5 26.5 69.5q0 46 -25.5 73t-63.5 27h-2q-30 0 -56 -19.5t-62 -57.5l-20 -21l15 -15
q48 -50 71.5 -68t51.5 -18q38 0 64.5 29.5z" />
    <glyph glyph-name="integral" unicode="&#x222b;" horiz-adv-x="452" 
d="M402 723.5q27 -6.5 41 -14.5l-19 -71q-12 6 -31.5 11t-39.5 5q-44 0 -63.5 -23.5t-19.5 -62.5v-643q0 -71 -43.5 -113t-113.5 -42q-30 0 -57.5 7t-44.5 15l20 70q11 -7 30.5 -12t38.5 -5q44 0 64 24.5t20 63.5v642q0 71 44.5 113t116.5 42q30 0 57 -6.5z" />
    <glyph glyph-name="uni2126" unicode="&#x2126;" horiz-adv-x="890" 
d="M275 82q-81 36 -130.5 116t-49.5 171q0 90 46.5 168.5t126.5 125.5t177 47t177.5 -46.5t126.5 -125t46 -169.5t-49 -171t-130 -116h128v-82h-247v82q99 38 154 115t55 171q0 69 -34.5 129t-94.5 96t-132 36t-131.5 -35.5t-94 -95.5t-34.5 -129q0 -95 55 -172t154 -115
v-82h-247v82h128z" />
    <glyph glyph-name="uni2206" unicode="&#x2206;" horiz-adv-x="711" 
d="M687 0h-663l276 700h111zM561 83l-205 533l-205 -533h410z" />
    <glyph glyph-name="product" unicode="&#x220f;" horiz-adv-x="755" 
d="M659 0h-86v620h-391v-620h-87v700h564v-700z" />
    <glyph glyph-name="summation" unicode="&#x2211;" horiz-adv-x="597" 
d="M65 75l202 273l-210 276v76h478v-82h-367l204 -270l-201 -268h371v-80h-477v75z" />
    <glyph glyph-name="radical" unicode="&#x221a;" horiz-adv-x="586" 
d="M16 500h93l138 -407l233 607h90l-275 -700h-94z" />
    <glyph glyph-name="uni00B5" unicode="&#xb5;" horiz-adv-x="603" 
d="M520 500v-500h-68l-16 98q-16 -42 -58 -75t-108 -33q-57 0 -102 25v-235h-86v720h86v-301q0 -65 33 -99.5t87 -34.5q68 0 107.5 46t39.5 115v274h85z" />
    <glyph glyph-name="partialdiff" unicode="&#x2202;" horiz-adv-x="620" 
d="M155.5 20.5q-53.5 30.5 -83.5 83.5t-30 118q0 80 38 143.5t101.5 99t135.5 35.5q59 0 99 -23t61 -53q-11 68 -60.5 147.5t-107.5 127.5l58 52q83 -75 144 -180t61 -233q0 -105 -40 -184t-107.5 -121.5t-147.5 -42.5q-68 0 -121.5 30.5zM378 100.5q45 28.5 71 76t26 101.5
q0 38 -20 70t-55.5 51t-79.5 19q-49 0 -92 -23t-69 -67t-26 -103q0 -67 40.5 -110t105.5 -43q54 0 99 28.5z" />
    <glyph glyph-name="percent" unicode="%" horiz-adv-x="710" 
d="M84.5 451q-35.5 41 -35.5 108q0 68 35.5 109.5t93.5 41.5t93.5 -41.5t35.5 -109.5q0 -67 -35.5 -108t-93.5 -41t-93.5 41zM485 700h77l-351 -700h-77zM222.5 495.5q16.5 25.5 16.5 63.5t-16.5 63t-44.5 25q-27 0 -43 -25t-16 -63q0 -39 16 -64t43 -25q28 0 44.5 25.5z
M438.5 32q-35.5 42 -35.5 109q0 66 35.5 107.5t92.5 41.5q58 0 93.5 -41t35.5 -108q0 -68 -35.5 -109.5t-93.5 -41.5q-57 0 -92.5 42zM575.5 76.5q16.5 24.5 16.5 63.5q0 38 -16.5 63.5t-44.5 25.5q-27 0 -42.5 -25t-15.5 -64t15.5 -63.5t42.5 -24.5q28 0 44.5 24.5z" />
    <glyph glyph-name="perthousand" unicode="&#x2030;" horiz-adv-x="1019" 
d="M84.5 451q-35.5 41 -35.5 108q0 68 35.5 109.5t93.5 41.5t93.5 -41.5t35.5 -109.5q0 -67 -35.5 -108t-93.5 -41t-93.5 41zM562 700l-351 -700h-77l351 700h77zM222.5 495.5q16.5 25.5 16.5 63.5t-16.5 63t-44.5 25q-27 0 -43 -25t-16 -63q0 -39 16 -64t43 -25
q28 0 44.5 25.5zM438.5 32q-35.5 42 -35.5 109q0 66 35.5 107.5t92.5 41.5q58 0 93.5 -41t35.5 -108q0 -68 -35.5 -109.5t-93.5 -41.5q-57 0 -92.5 42zM747 31.5q-35 41.5 -35 109.5q0 66 35 107.5t93 41.5t93.5 -41.5t35.5 -107.5q0 -68 -35.5 -109.5t-93.5 -41.5t-93 41.5
zM575.5 76.5q16.5 24.5 16.5 63.5q0 38 -16.5 63.5t-44.5 25.5q-27 0 -42.5 -25t-15.5 -64t15.5 -63.5t42.5 -24.5q28 0 44.5 24.5zM884 77q16 25 16 63q0 39 -16 63.5t-44 24.5q-27 0 -43 -25t-16 -63t16 -63t43 -25q28 0 44 25z" />
    <glyph glyph-name="arrowup" unicode="&#x2191;" horiz-adv-x="797" 
d="M753 361l-52 -53l-264 260v-568h-77v568l-262 -260l-53 53l354 349z" />
    <glyph glyph-name="uni2197" unicode="&#x2197;" horiz-adv-x="622" 
d="M503 201l-3 371l-401 -402l-54 54l401 402l-369 2v75l497 -4l3 -497z" />
    <glyph glyph-name="arrowright" unicode="&#x2192;" horiz-adv-x="799" 
d="M353 54l260 263h-568v77h568l-260 262l53 53l349 -354l-349 -354z" />
    <glyph glyph-name="uni2198" unicode="&#x2198;" horiz-adv-x="622" 
d="M574 1l-497 -4v75l369 2l-401 402l54 54l401 -402l3 371l74 -1z" />
    <glyph glyph-name="arrowdown" unicode="&#x2193;" horiz-adv-x="797" 
d="M97 392l263 -260v568h77v-568l263 260l53 -53l-354 -349l-354 349z" />
    <glyph glyph-name="uni2199" unicode="&#x2199;" horiz-adv-x="622" 
d="M119 499l3 -371l402 402l53 -54l-401 -402l369 -2v-75l-497 4l-3 497z" />
    <glyph glyph-name="arrowleft" unicode="&#x2190;" horiz-adv-x="799" 
d="M45 345l348 354l54 -53l-261 -263h569v-76h-569l261 -264l-54 -52z" />
    <glyph glyph-name="uni2196" unicode="&#x2196;" horiz-adv-x="622" 
d="M48 699l497 4v-75l-369 -2l401 -402l-53 -54l-402 402l-3 -371l-74 1z" />
    <glyph glyph-name="arrowboth" unicode="&#x2194;" horiz-adv-x="982" 
d="M588 707l349 -354l-349 -354l-53 52l260 264h-609l261 -264l-54 -52l-348 354l348 354l54 -53l-261 -263h609l-260 263z" />
    <glyph glyph-name="arrowupdn" unicode="&#x2195;" horiz-adv-x="797" 
d="M437 40l264 260l52 -54l-354 -348l-354 348l53 54l262 -260v608l-262 -260l-53 53l354 349l354 -349l-52 -53l-264 260v-608z" />
    <glyph glyph-name="lozenge" unicode="&#x25ca;" horiz-adv-x="636" 
d="M49 352l215 358h104l218 -358l-218 -352h-104zM479 352l-166 277l-161 -277l161 -277z" />
    <glyph glyph-name="uni2630" unicode="&#x2630;" horiz-adv-x="941" 
d="M846 700v-82h-751v82h751zM846 391v-82h-751v82h751zM846 82v-82h-751v82h751z" />
    <glyph glyph-name="uni2713" unicode="&#x2713;" horiz-adv-x="703" 
d="M145.5 231q-51.5 122 -120.5 240l75 39q61 -105 106 -213t64 -194q92 317 325 627l73 -49q-109 -135 -202.5 -310.5t-154.5 -370.5h-84q-30 109 -81.5 231z" />
    <glyph glyph-name="uni274C" unicode="&#x274c;" horiz-adv-x="900" 
d="M515 351l290 -295l-65 -66l-290 296l-291 -296l-64 66l290 295l-290 293l64 66l291 -296l290 296l65 -66z" />
    <glyph glyph-name="at" unicode="@" horiz-adv-x="905" 
d="M255 -110.5q-95 53.5 -150.5 146t-55.5 205.5q0 114 55 209t149 150.5t207 55.5q111 0 202 -54.5t142.5 -147t51.5 -200.5q0 -68 -20.5 -119t-56 -78t-78.5 -27q-44 0 -77 31t-41 71q-14 -31 -53 -59t-93 -28q-51 0 -94 26.5t-68.5 73.5t-25.5 105q0 57 25 102t66.5 70
t90.5 25t85 -24.5t50 -56.5l14 72h50v-250q0 -33 20.5 -61t49.5 -28q37 0 61.5 41.5t24.5 111.5q0 91 -42 167.5t-116.5 121.5t-166.5 45q-93 0 -171 -46t-123 -125.5t-45 -174.5q0 -93 45.5 -169.5t124 -120.5t173.5 -44t173 39l24 -65q-93 -44 -198 -44q-114 0 -209 53.5z
M530 148.5q33 38.5 33 95.5t-33 97t-86 40q-52 0 -86.5 -37.5t-34.5 -94.5q0 -58 34.5 -98.5t87.5 -40.5q52 0 85 38.5z" />
    <glyph glyph-name="ampersand" unicode="&#x26;" horiz-adv-x="692" 
d="M175 16q-60 26 -94 72.5t-34 107.5q0 69 42.5 115t99.5 61q-48 16 -80 55t-32 99q0 54 31.5 96t86.5 65t121 23q62 0 107.5 -14t83.5 -40l-37 -72q-26 20 -65.5 34t-88.5 14q-67 0 -108.5 -31t-41.5 -79q0 -53 35 -82.5t101 -29.5h390v-72h-103v-99q0 -119 -72.5 -184
t-206.5 -65q-75 0 -135 26zM451 109q53 41 53 131v96h-206q-69 0 -114.5 -38t-45.5 -96q0 -39 22.5 -69.5t62 -47.5t88.5 -17q87 0 140 41z" />
    <glyph glyph-name="paragraph" unicode="&#xb6;" horiz-adv-x="618" 
d="M235 287q-51 0 -94.5 29.5t-69.5 76.5t-26 99q0 58 29.5 106t80 75t109.5 27h76v-920h-89v507h-16zM435 700h88v-920h-88v920z" />
    <glyph glyph-name="section" unicode="&#xa7;" horiz-adv-x="467" 
d="M119.5 -114.5q-42.5 15.5 -69.5 38.5l43 63q23 -18 51 -31t70 -13q53 0 82 24.5t29 60.5q0 34 -27.5 59t-73.5 37q-74 21 -122.5 58.5t-48.5 110.5q0 93 92 131q-35 17 -59 50.5t-24 81.5q0 44 23.5 79t66 55t98.5 20q96 0 163 -52l-37 -62q-49 42 -123 42
q-50 0 -78 -22.5t-28 -58.5q0 -71 112 -103q45 -12 78.5 -27.5t59.5 -48t26 -84.5t-29.5 -87.5t-70.5 -49.5q88 -41 88 -126q0 -47 -24.5 -84t-69 -57t-101.5 -20q-54 0 -96.5 15.5zM245 196q44 0 72.5 27t28.5 66q0 42 -33.5 68t-80.5 26q-43 0 -72.5 -25t-29.5 -64
q0 -40 30 -66.5t66 -30.5q7 -1 19 -1z" />
    <glyph glyph-name="copyright" unicode="&#xa9;" horiz-adv-x="730" 
d="M204 121.5q-73 42.5 -116 115t-43 158.5t43 158t116.5 114.5t160.5 42.5t160.5 -42.5t116.5 -114.5t43 -158t-43 -158.5t-116.5 -115t-160.5 -42.5q-88 0 -161 42.5zM495.5 171q59.5 35 94.5 94.5t35 129.5t-35 129t-94.5 94t-130.5 35t-131 -35t-95 -94t-35 -129
t35 -129.5t95 -94.5t131 -35t130.5 35zM453 335l47 -34q-15 -21 -47 -42.5t-83 -21.5q-44 0 -80.5 20t-58.5 56.5t-22 82.5t22 82.5t58.5 56.5t80.5 20q51 0 82.5 -21t47.5 -42l-48 -35q-34 42 -80 42q-44 0 -72.5 -28t-28.5 -75t28.5 -75t72.5 -28q48 0 81 42z" />
    <glyph glyph-name="registered" unicode="&#xae;" horiz-adv-x="730" 
d="M204 121.5q-73 42.5 -116 115t-43 158.5t43 158t116.5 114.5t160.5 42.5t160.5 -42.5t116.5 -114.5t43 -158t-43 -158.5t-116.5 -115t-160.5 -42.5q-88 0 -161 42.5zM495.5 171q59.5 35 94.5 94.5t35 129.5t-35 129t-94.5 94t-130.5 35t-131 -35t-95 -94t-35 -129
t35 -129.5t95 -94.5t131 -35t130.5 35zM379 554q45 0 77 -24t32 -69q0 -36 -20.5 -57.5t-55.5 -29.5l86 -117h-72l-76 113h-39v-113h-57v297h125zM413 428.5q15 12.5 15 32.5t-15 32t-40 12h-61v-89h62q24 0 39 12.5z" />
    <glyph glyph-name="trademark" unicode="&#x2122;" horiz-adv-x="757" 
d="M149 646h-104v54h264v-54h-102v-236h-58v236zM382 700h64l80 -215l85 215h66l36 -290h-57l-24 204l-82 -204h-49l-77 199l-24 -199h-54z" />
    <glyph glyph-name="degree" unicode="&#xb0;" horiz-adv-x="412" 
d="M126 417.5q-37 20.5 -59 56.5t-22 79q0 44 22 80t59 56.5t81 20.5q43 0 80 -20.5t59 -56.5t22 -80q0 -43 -22 -79t-59 -56.5t-80 -20.5q-44 0 -81 20.5zM270 488.5q26 26.5 26 64.5q0 39 -26 65.5t-63 26.5q-38 0 -64 -26t-26 -66q0 -38 26 -64.5t64 -26.5q37 0 63 26.5z
" />
    <glyph glyph-name="bar" unicode="|" horiz-adv-x="277" 
d="M95 720h87v-940h-87v940z" />
    <glyph glyph-name="brokenbar" unicode="&#xa6;" horiz-adv-x="277" 
d="M95 720h87v-330h-87v330zM95 142h87v-362h-87v362z" />
    <glyph glyph-name="dagger" unicode="&#x2020;" horiz-adv-x="583" 
d="M538 474h-203l-14 -474h-58l-15 474h-203v73h203l15 153h58l14 -153h203v-73z" />
    <glyph glyph-name="uni2113" unicode="&#x2113;" horiz-adv-x="472" 
d="M156.5 37q-41.5 47 -41.5 122v85q-40 -13 -70 -18v75q4 1 25 6t45 15v245q0 77 36.5 122t102.5 45t101 -38.5t35 -101.5q0 -84 -54.5 -168t-135.5 -140v-106q0 -55 26.5 -82t73.5 -27q15 0 36 4t40 11v-79q-25 -7 -46.5 -12t-53.5 -5q-78 0 -119.5 47zM313 588
q0 35 -15 53.5t-38 18.5q-27 0 -43.5 -22t-16.5 -61v-209q113 110 113 220z" />
    <glyph glyph-name="daggerdbl" unicode="&#x2021;" horiz-adv-x="583" 
d="M335 474v-96h203v-73h-203l-14 -305h-58l-15 305h-203v73h203v96h-203v73h203l15 153h58l14 -153h203v-73h-203z" />
    <glyph glyph-name="uni2116" unicode="&#x2116;" horiz-adv-x="1229" 
d="M798.5 223q-59.5 33 -94.5 92.5t-35 134.5t35 134t94.5 92.5t128.5 33.5t128.5 -33.5t94.5 -92.5t35 -134t-35 -134.5t-94.5 -92.5t-128.5 -33t-128.5 33zM95 700h75l317 -531v531h86v-700h-76l-315 529v-529h-87v700zM1011.5 293.5q38.5 22.5 61 63.5t22.5 93
t-22.5 92.5t-61 63.5t-84.5 23t-84.5 -23t-61 -63.5t-22.5 -92.5t22.5 -93t61 -63.5t84.5 -22.5t84.5 22.5z" />
    <glyph glyph-name="estimated" unicode="&#x212e;" horiz-adv-x="621" 
d="M172 23q-60 33 -93.5 92t-33.5 135t33.5 135t94 92t138.5 33q73 0 132 -29t94.5 -87.5t39.5 -143.5h-416v-177q63 -50 150 -50q67 0 121.5 29t80.5 65l22 -25q-31 -39 -92 -70.5t-132 -31.5q-79 0 -139 33zM461 423q-64 54 -151 54q-90 0 -149 -55v-139h300v140z" />
    <glyph glyph-name="uni0308" unicode="&#x308;" horiz-adv-x="0" 
d="M-369.5 615q-15.5 15 -15.5 36t15.5 36.5t35.5 15.5q22 0 38 -15.5t16 -36.5t-16 -36t-38 -15q-20 0 -35.5 15zM-192 615q-15 15 -15 36t15 36.5t36 15.5q22 0 37.5 -15.5t15.5 -36.5t-15.5 -36t-37.5 -15q-21 0 -36 15z" />
    <glyph glyph-name="uni0307" unicode="&#x307;" horiz-adv-x="0" 
d="M-214 606q-18 17 -18 42q0 24 18 41t43 17t42.5 -17t17.5 -41q0 -25 -17.5 -42t-42.5 -17t-43 17z" />
    <glyph glyph-name="gravecomb" unicode="&#x300;" horiz-adv-x="0" 
d="M-317 637l30 80l203 -80l-18 -54z" />
    <glyph glyph-name="acutecomb" unicode="&#x301;" horiz-adv-x="0" 
d="M-289 583l-18 54l202 80l30 -80z" />
    <glyph glyph-name="uni030B" unicode="&#x30b;" horiz-adv-x="0" 
d="M-396 605l108 106l52 -59l-124 -85zM-226 604l107 106l52 -59l-124 -85z" />
    <glyph glyph-name="uni0302" unicode="&#x302;" horiz-adv-x="0" 
d="M-320 711h92l109 -125h-89l-66 76l-66 -76h-86z" />
    <glyph glyph-name="uni030C" unicode="&#x30c;" horiz-adv-x="0" 
d="M-339 711l66 -74l65 74h88l-107 -125h-93l-106 125h87z" />
    <glyph glyph-name="uni0306" unicode="&#x306;" horiz-adv-x="0" 
d="M-357.5 619q-35.5 33 -39.5 95h70q2 -34 17.5 -53t52.5 -19q61 0 66 72h71q-5 -61 -40 -94.5t-97 -33.5q-65 0 -100.5 33z" />
    <glyph glyph-name="uni030A" unicode="&#x30a;" horiz-adv-x="0" 
d="M-126.5 770.5q36.5 -34.5 36.5 -83.5q0 -50 -36.5 -85t-87.5 -35t-87.5 35t-36.5 85q0 49 36.5 83.5t87.5 34.5t87.5 -34.5zM-260 731q-19 -18 -19 -44q0 -27 19 -45.5t46 -18.5t46 18.5t19 45.5q0 26 -19 44t-46 18t-46 -18z" />
    <glyph glyph-name="tildecomb" unicode="&#x303;" horiz-adv-x="0" 
d="M-229.5 596.5q-13.5 6.5 -29.5 17.5q-11 8 -18.5 12t-16.5 4q-15 0 -24.5 -10t-12.5 -30h-64q5 51 31 78.5t67 27.5q19 0 32 -6.5t29 -19.5q10 -9 17.5 -13.5t17.5 -4.5q15 0 25 12t12 32h67q-4 -51 -31.5 -78.5t-67.5 -27.5q-20 0 -33.5 6.5z" />
    <glyph glyph-name="uni0304" unicode="&#x304;" horiz-adv-x="0" 
d="M-362 683h242v-69h-242v69z" />
    <glyph glyph-name="uni0312" unicode="&#x312;" horiz-adv-x="0" 
d="M-208 606q-15 16 -15 43q0 28 23 60t55 61l26 -24q-35 -41 -42 -62q19 -2 31 -14t12 -31q0 -20 -14.5 -34.5t-37.5 -14.5t-38 16z" />
    <glyph glyph-name="dotbelowcomb" unicode="&#x323;" horiz-adv-x="0" 
d="M-200 -195.5q-17 16.5 -17 40.5t17 40.5t40 16.5t40 -16.5t17 -40.5t-17 -40.5t-40 -16.5t-40 16.5z" />
    <glyph glyph-name="uni0326" unicode="&#x326;" horiz-adv-x="0" 
d="M-112.5 -59q13.5 -13 13.5 -36q0 -32 -16.5 -67t-39.5 -62l-28 18q26 37 34 73q-21 2 -33 14t-12 30t13 30.5t33 12.5q22 0 35.5 -13z" />
    <glyph glyph-name="uni0327" unicode="&#x327;" horiz-adv-x="0" 
d="M-290.5 -226.5q-24.5 3.5 -39.5 9.5v54q42 -15 85 -15q73 0 73 37q0 22 -27.5 32.5t-88.5 10.5l23 117h56l-10 -75q113 -10 113 -83q0 -43 -36.5 -67t-99.5 -24q-24 0 -48.5 3.5z" />
    <glyph glyph-name="uni0328" unicode="&#x328;" horiz-adv-x="0" 
d="M-273.5 -206q-32.5 24 -32.5 65q0 44 38.5 83.5t100.5 66.5l67 -9q-40 -16 -85 -51t-45 -67q0 -20 14.5 -31.5t37.5 -11.5q43 0 78 14v-69q-36 -14 -81 -14q-60 0 -92.5 24z" />
    <glyph glyph-name="uni0335" unicode="&#x335;" horiz-adv-x="0" 
d="M-424 334h333v-60h-333v60z" />
    <glyph glyph-name="uni0338" unicode="&#x338;" horiz-adv-x="0" 
d="M-142 700h89l-568 -700h-93z" />
    <glyph glyph-name="dieresis" unicode="&#xa8;" horiz-adv-x="503" 
d="M119.5 615q-15.5 15 -15.5 36t15.5 36.5t35.5 15.5q22 0 38 -15.5t16 -36.5t-16 -36t-38 -15q-20 0 -35.5 15zM297 615q-15 15 -15 36t15 36.5t36 15.5q22 0 37.5 -15.5t15.5 -36.5t-15.5 -36t-37.5 -15q-21 0 -36 15z" />
    <glyph glyph-name="dotaccent" unicode="&#x2d9;" horiz-adv-x="300" 
d="M107 606q-18 17 -18 42q0 24 18 41t43 17t42.5 -17t17.5 -41q0 -25 -17.5 -42t-42.5 -17t-43 17z" />
    <glyph glyph-name="grave" unicode="`" horiz-adv-x="392" 
d="M75 637l30 80l203 -80l-18 -54z" />
    <glyph glyph-name="acute" unicode="&#xb4;" horiz-adv-x="392" 
d="M103 583l-18 54l202 80l30 -80z" />
    <glyph glyph-name="hungarumlaut" unicode="&#x2dd;" horiz-adv-x="507" 
d="M111 605l108 106l52 -59l-124 -85zM281 604l107 106l52 -59l-124 -85z" />
    <glyph glyph-name="circumflex" unicode="&#x2c6;" horiz-adv-x="546" 
d="M226 711h92l109 -125h-89l-66 76l-66 -76h-86z" />
    <glyph glyph-name="caron" unicode="&#x2c7;" horiz-adv-x="546" 
d="M207 711l66 -74l65 74h88l-107 -125h-93l-106 125h87z" />
    <glyph glyph-name="breve" unicode="&#x2d8;" horiz-adv-x="518" 
d="M160.5 619q-35.5 33 -39.5 95h70q2 -34 17.5 -53t52.5 -19q61 0 66 72h71q-5 -61 -40 -94.5t-97 -33.5q-65 0 -100.5 33z" />
    <glyph glyph-name="ring" unicode="&#x2da;" horiz-adv-x="430" 
d="M301.5 770.5q36.5 -34.5 36.5 -83.5q0 -50 -36.5 -85t-87.5 -35t-87.5 35t-36.5 85q0 49 36.5 83.5t87.5 34.5t87.5 -34.5zM168 731q-19 -18 -19 -44q0 -27 19 -45.5t46 -18.5t46 18.5t19 45.5q0 26 -19 44t-46 18t-46 -18z" />
    <glyph glyph-name="tilde" unicode="&#x2dc;" horiz-adv-x="548" 
d="M262.5 596.5q-13.5 6.5 -29.5 17.5q-11 8 -18.5 12t-16.5 4q-15 0 -24.5 -10t-12.5 -30h-64q5 51 31 78.5t67 27.5q19 0 32 -6.5t29 -19.5q10 -9 17.5 -13.5t17.5 -4.5q15 0 25 12t12 32h67q-4 -51 -31.5 -78.5t-67.5 -27.5q-20 0 -33.5 6.5z" />
    <glyph glyph-name="macron" unicode="&#xaf;" horiz-adv-x="481" 
d="M120 683h242v-69h-242v69z" />
    <glyph glyph-name="cedilla" unicode="&#xb8;" horiz-adv-x="450" 
d="M159.5 -226.5q-24.5 3.5 -39.5 9.5v54q42 -15 85 -15q73 0 73 37q0 22 -27.5 32.5t-88.5 10.5l23 117h56l-10 -75q113 -10 113 -83q0 -43 -36.5 -67t-99.5 -24q-24 0 -48.5 3.5z" />
    <glyph glyph-name="ogonek" unicode="&#x2db;" horiz-adv-x="427" 
d="M153.5 -206q-32.5 24 -32.5 65q0 44 38.5 83.5t100.5 66.5l67 -9q-40 -16 -85 -51t-45 -67q0 -20 14.5 -31.5t37.5 -11.5q43 0 78 14v-69q-36 -14 -81 -14q-60 0 -92.5 24z" />
    </font>
</defs>
</svg>
